<svg width="418" height="313" viewBox="0 0 418 313" fill="none" xmlns="http://www.w3.org/2000/svg">
<g clip-path="url(#clip0)">
<path opacity="0.1" d="M217.443 313C290.845 313 350.349 309.777 350.349 305.801C350.349 301.825 290.845 298.602 217.443 298.602C144.041 298.602 84.5374 301.825 84.5374 305.801C84.5374 309.777 144.041 313 217.443 313Z" fill="#2BAFD9"/>
<path d="M292.726 277.576L291.583 279.254L284.515 289.778L278.514 291.589L274.037 287.204L274.255 284.31L275.371 269.283C275.371 269.283 247.672 252.974 245.195 249.923C242.719 246.873 233.194 244.108 233.194 244.108C233.194 244.108 218.62 237.34 213.191 225.519C207.762 213.699 222.24 211.887 222.24 211.887L276.628 263.944L292.726 277.576Z" fill="#FFC1C7"/>
<path d="M299.393 283.677L282.153 299.788C282.153 299.788 272.247 301.694 263.388 300.359C257.727 299.505 258.816 296.398 260.306 294.258L260.333 294.22C261.225 292.997 262.53 292.138 264.006 291.803C271.336 290.034 273.866 284.722 273.866 284.722L279.2 289.298L288.44 278.522L295.271 281.732L299.393 283.677Z" fill="#575988"/>
<path opacity="0.1" d="M295.271 281.74L291.213 279.834L291.594 279.254L292.737 277.576L276.628 263.944L222.24 211.895C222.24 211.895 207.762 213.699 213.191 225.519C218.62 237.34 233.194 244.108 233.194 244.108C233.194 244.108 242.719 246.873 245.195 249.923C247.672 252.974 275.39 269.275 275.39 269.275L274.274 284.302L274.22 285.019L273.866 284.718C273.866 284.718 271.336 290.03 264.006 291.799C262.53 292.134 261.225 292.993 260.333 294.217L260.306 294.255C258.782 296.39 257.727 299.498 263.388 300.356C272.247 301.69 282.153 299.784 282.153 299.784L299.393 283.673L295.271 281.74Z" fill="black"/>
<path opacity="0.1" d="M4.51489 163.957C11.1291 192.25 25.131 216.707 47.256 228.57C93.247 253.21 196.96 240.501 274.361 225.901C313.475 218.55 348.977 198.237 375.152 168.235L4.51489 163.957Z" fill="#2BAFD9"/>
<path opacity="0.1" d="M410.418 30.7795H367.947C366.994 30.7488 366.091 30.3483 365.427 29.6626C364.764 28.977 364.393 28.06 364.393 27.1056C364.393 26.1512 364.764 25.2342 365.427 24.5486C366.091 23.8629 366.994 23.4624 367.947 23.4317H375.289C374.316 23.4317 373.383 23.0448 372.695 22.3561C372.007 21.6675 371.62 20.7335 371.62 19.7596C371.62 18.7857 372.007 17.8517 372.695 17.1631C373.383 16.4745 374.316 16.0876 375.289 16.0876H370.047C369.094 16.0568 368.19 15.6563 367.526 14.9707C366.863 14.285 366.492 13.368 366.492 12.4136C366.492 11.4592 366.863 10.5423 367.526 9.85662C368.19 9.17097 369.094 8.77043 370.047 8.7397H392.214C387.295 6.45183 381.546 4.82362 374.92 3.96948C314.477 -3.79784 292.897 1.33843 285.285 6.63867C275.893 13.1591 265.415 17.956 254.218 20.2668C216.925 27.9655 147.182 37.2275 83.9696 17.3002C52.552 7.38604 29.204 24.1333 15.2059 52.1063H417.79C417.265 43.9767 415.691 36.4725 412.803 29.8987C412.139 30.468 411.293 30.7804 410.418 30.7795Z" fill="#2BAFD9"/>
<path opacity="0.1" d="M0.910605 104.899C-0.720665 121.354 -0.167207 137.954 2.55654 154.264L375.438 167.911C385.819 155.962 394.535 142.66 401.346 128.369L0.910605 104.899ZM148.39 140.105H141.048C141.54 140.09 142.03 140.173 142.489 140.35C142.949 140.528 143.367 140.796 143.721 141.139C144.075 141.481 144.356 141.892 144.548 142.345C144.74 142.799 144.839 143.287 144.839 143.779C144.839 144.272 144.74 144.76 144.548 145.213C144.356 145.667 144.075 146.077 143.721 146.42C143.367 146.763 142.949 147.031 142.489 147.208C142.03 147.386 141.54 147.469 141.048 147.453H98.5773C97.6242 147.423 96.7203 147.022 96.057 146.336C95.3936 145.651 95.0227 144.734 95.0227 143.779C95.0227 142.825 95.3936 141.908 96.057 141.222C96.7203 140.537 97.6242 140.136 98.5773 140.105H105.919C104.946 140.105 104.013 139.719 103.325 139.03C102.637 138.341 102.25 137.407 102.25 136.433C102.25 135.46 102.637 134.526 103.325 133.837C104.013 133.148 104.946 132.761 105.919 132.761H100.677C99.7235 132.731 98.8197 132.33 98.1563 131.644C97.4929 130.959 97.122 130.042 97.122 129.087C97.122 128.133 97.4929 127.216 98.1563 126.53C98.8197 125.845 99.7235 125.444 100.677 125.414H143.147C144.1 125.444 145.004 125.845 145.668 126.53C146.331 127.216 146.702 128.133 146.702 129.087C146.702 130.042 146.331 130.959 145.668 131.644C145.004 132.33 144.1 132.731 143.147 132.761H148.39C149.363 132.761 150.296 133.148 150.984 133.837C151.672 134.526 152.059 135.46 152.059 136.433C152.059 137.407 151.672 138.341 150.984 139.03C150.296 139.719 149.363 140.105 148.39 140.105Z" fill="#2BAFD9"/>
<path opacity="0.1" d="M417.81 52.3503L10.7138 62.2645C5.76078 75.0041 2.49558 89.391 0.971558 104.335H410.677C413.351 95.5651 415.33 86.598 416.594 77.5169C417.813 68.743 418.301 60.2549 417.81 52.3503ZM83.619 84.8153H76.2771C76.7691 84.7994 77.2593 84.8827 77.7185 85.0602C78.1778 85.2377 78.5967 85.5057 78.9503 85.8485C79.304 86.1912 79.5852 86.6016 79.7772 87.0552C79.9693 87.5089 80.0682 87.9965 80.0682 88.4892C80.0682 88.9819 79.9693 89.4695 79.7772 89.9232C79.5852 90.3768 79.304 90.7872 78.9503 91.1299C78.5967 91.4727 78.1778 91.7407 77.7185 91.9182C77.2593 92.0957 76.7691 92.179 76.2771 92.1631H33.8065C32.8534 92.1324 31.9496 91.7319 31.2862 91.0462C30.6228 90.3606 30.2519 89.4436 30.2519 88.4892C30.2519 87.5348 30.6228 86.6178 31.2862 85.9322C31.9496 85.2465 32.8534 84.846 33.8065 84.8153H41.1485C40.1754 84.8153 39.2421 84.4284 38.5541 83.7397C37.866 83.0511 37.4794 82.1171 37.4794 81.1432C37.4794 80.1693 37.866 79.2353 38.5541 78.5467C39.2421 77.8581 40.1754 77.4712 41.1485 77.4712H35.9059C34.9527 77.4405 34.0489 77.0399 33.3855 76.3543C32.7222 75.6686 32.3513 74.7516 32.3513 73.7972C32.3513 72.8428 32.7222 71.9259 33.3855 71.2402C34.0489 70.5546 34.9527 70.154 35.9059 70.1233H78.3764C79.3296 70.154 80.2334 70.5546 80.8968 71.2402C81.5601 71.9259 81.931 72.8428 81.931 73.7972C81.931 74.7516 81.5601 75.6686 80.8968 76.3543C80.2334 77.0399 79.3296 77.4405 78.3764 77.4712H83.619C84.5921 77.4712 85.5254 77.8581 86.2135 78.5467C86.9016 79.2353 87.2881 80.1693 87.2881 81.1432C87.2881 82.1171 86.9016 83.0511 86.2135 83.7397C85.5254 84.4284 84.5921 84.8153 83.619 84.8153Z" fill="#2BAFD9"/>
<g opacity="0.1">
<path opacity="0.1" d="M286.672 145.825C286.672 145.825 288.028 117.257 303.699 101.322C310.314 94.682 314.599 86.0733 315.91 76.7885C316.494 72.3719 316.672 67.9109 316.443 63.4617" stroke="#535461" stroke-width="2" stroke-miterlimit="10"/>
<path opacity="0.1" d="M326.269 53.357C325.168 56.5371 316.23 63.7515 316.23 63.7515C316.23 63.7515 313.677 52.5448 314.774 49.3684C315.376 47.941 316.497 46.7959 317.911 46.1656C319.325 45.5353 320.926 45.467 322.389 45.9744C323.851 46.4819 325.066 47.5272 325.787 48.8982C326.507 50.2692 326.68 51.8633 326.269 53.357Z" fill="#FCAC32"/>
<path opacity="0.1" d="M329.672 74.2529C327.005 76.3196 315.597 77.5169 315.597 77.5169C315.597 77.5169 319.541 66.7181 322.189 64.6514C323.469 63.7787 325.033 63.4263 326.563 63.6659C328.093 63.9054 329.475 64.719 330.428 65.9413C331.38 67.1636 331.832 68.703 331.692 70.2467C331.552 71.7905 330.829 73.2228 329.672 74.2529Z" fill="#FCAC32"/>
<path opacity="0.1" d="M318.836 104.178C315.506 104.624 305.04 99.8846 305.04 99.8846C305.04 99.8846 313.891 92.5558 317.232 92.1097C318.777 92.0039 320.304 92.4904 321.503 93.4704C322.703 94.4504 323.485 95.8504 323.69 97.3864C323.896 98.9223 323.51 100.479 322.61 101.74C321.711 103.002 320.366 103.873 318.847 104.178H318.836Z" fill="#FCAC32"/>
<path opacity="0.1" d="M305.539 124.971C302.335 125.978 291.221 123.065 291.221 123.065C291.221 123.065 298.704 114.348 301.912 113.345C302.691 113.04 303.524 112.9 304.359 112.931C305.195 112.963 306.015 113.166 306.769 113.528C307.523 113.891 308.194 114.404 308.741 115.037C309.288 115.671 309.699 116.409 309.948 117.208C310.198 118.007 310.28 118.849 310.191 119.681C310.101 120.513 309.842 121.318 309.428 122.045C309.014 122.773 308.456 123.407 307.787 123.909C307.118 124.411 306.352 124.77 305.539 124.964V124.971Z" fill="#FCAC32"/>
<path opacity="0.1" d="M303.318 73.9402C304.842 76.9449 314.641 82.9201 314.641 82.9201C314.641 82.9201 315.697 71.4807 314.188 68.4722C313.404 67.1369 312.141 66.1501 310.657 65.7119C309.173 65.2737 307.577 65.4169 306.195 66.1125C304.812 66.8081 303.745 68.0039 303.211 69.4575C302.677 70.9111 302.715 72.5137 303.318 73.9402Z" fill="#FCAC32"/>
<path opacity="0.1" d="M288.077 98.4585C290.417 100.872 301.565 103.637 301.565 103.637C301.565 103.637 299.153 92.3956 296.814 89.9819C295.667 88.9378 294.165 88.3705 292.615 88.3952C291.065 88.4199 289.582 89.0349 288.469 90.115C287.356 91.1951 286.696 92.6591 286.623 94.2092C286.55 95.7592 287.07 97.2787 288.077 98.4585Z" fill="#FCAC32"/>
<path opacity="0.1" d="M276.533 124.319C278.438 127.095 288.954 131.705 288.954 131.705C288.954 131.705 288.47 120.22 286.576 117.444C285.619 116.235 284.239 115.433 282.714 115.201C281.19 114.97 279.634 115.325 278.361 116.195C277.087 117.065 276.191 118.386 275.852 119.891C275.513 121.397 275.756 122.975 276.533 124.308V124.319Z" fill="#FCAC32"/>
</g>
<path opacity="0.1" d="M164.217 32.6022C164.217 32.6022 155.137 32.057 156.216 38.4249C156.16 38.748 156.209 39.0803 156.354 39.3741C156.499 39.668 156.733 39.9083 157.023 40.0607C157.023 40.0607 157.023 39.5879 157.953 39.748C158.279 39.8047 158.61 39.8214 158.94 39.7976C159.386 39.7666 159.81 39.5913 160.148 39.2981C160.148 39.2981 162.7 38.2418 163.691 34.0665C163.691 34.0665 164.426 33.1551 164.396 32.9225L162.872 33.5784C162.872 33.5784 163.394 34.6842 162.982 35.6032C162.982 35.6032 162.933 33.6165 162.639 33.6623C162.578 33.6623 161.843 34.0436 161.843 34.0436C161.843 34.0436 162.746 35.973 162.064 37.3724C162.064 37.3724 162.323 34.9969 161.561 34.1847L160.483 34.8138C160.483 34.8138 161.534 36.8043 160.822 38.4287C160.822 38.4287 161.005 35.9387 160.258 34.9664L159.279 35.729C159.279 35.729 160.27 37.6927 159.66 39.0388C159.66 39.0388 159.584 36.137 159.062 35.9197C158.692 36.233 158.362 36.5903 158.079 36.9835C158.079 36.9835 158.753 38.4096 158.334 39.1608C158.334 39.1608 158.079 37.2275 157.865 37.2199C157.865 37.2199 157.012 38.5011 156.924 39.3781C156.965 38.5643 157.219 37.7754 157.66 37.0903C157.168 37.1836 156.714 37.4181 156.353 37.7652C156.353 37.7652 156.486 36.8615 157.877 36.7814C157.877 36.7814 158.582 35.8091 158.768 35.7519C158.768 35.7519 157.393 35.6337 156.562 36.0074C156.562 36.0074 157.294 35.1532 159.02 35.5383L159.988 34.7528C159.988 34.7528 158.178 34.505 157.408 34.7757C157.408 34.7757 158.292 34.0131 160.247 34.5736L161.298 33.9445C160.49 33.7652 159.661 33.6934 158.833 33.7309C158.833 33.7309 159.805 33.2085 161.607 33.7729L162.369 33.4373C162.369 33.4373 161.226 33.2161 160.906 33.178C160.586 33.1399 160.559 33.0522 160.559 33.0522C161.275 32.9328 162.009 33.0146 162.681 33.2886C162.681 33.2886 164.247 32.7052 164.217 32.6022Z" fill="#FCAC32"/>
<path opacity="0.1" d="M140.374 63.5914C140.374 63.5914 137.272 72.1518 143.677 72.9335C143.971 73.0778 144.304 73.1253 144.627 73.0692C144.95 73.013 145.247 72.8561 145.475 72.6208C145.475 72.6208 145.026 72.4721 145.441 71.6409C145.582 71.3432 145.687 71.0295 145.753 70.7067C145.851 70.2702 145.804 69.8139 145.62 69.4064C145.62 69.4064 145.334 66.6571 141.616 64.5218C141.616 64.5218 140.949 63.5571 140.716 63.5189L140.911 65.1738C140.911 65.1738 142.119 64.987 142.884 65.6428C142.884 65.6428 140.979 65.1281 140.926 65.4217C140.926 65.4827 141.067 66.2949 141.067 66.2949C141.067 66.2949 143.17 65.9784 144.321 67.027C144.321 67.027 142.119 66.108 141.124 66.6037L141.421 67.8201C141.421 67.8201 143.627 67.374 144.98 68.5217C144.98 68.5217 142.644 67.6371 141.501 68.0794L141.955 69.2234C141.955 69.2234 144.115 68.842 145.235 69.7915C145.235 69.7915 142.435 69.0289 142.077 69.4826C142.272 69.9274 142.521 70.3462 142.82 70.7295C142.82 70.7295 144.374 70.4855 144.976 71.1108C144.976 71.1108 143.052 70.8096 142.983 71.0117C142.983 71.0117 143.966 72.1938 144.782 72.537C144.017 72.2674 143.337 71.802 142.808 71.1871C142.762 71.6794 142.858 72.1745 143.086 72.6132C143.086 72.6132 142.259 72.2319 142.576 70.8821C142.576 70.8821 141.844 69.9288 141.84 69.7381C141.84 69.7381 141.341 71.027 141.459 71.9307C141.459 71.9307 140.85 70.985 141.711 69.4369L141.231 68.293C141.231 68.293 140.469 69.9593 140.522 70.7715C140.522 70.7715 140.05 69.7114 141.132 67.9917L140.827 66.8058C140.429 67.5266 140.126 68.2955 139.924 69.0937C139.924 69.0937 139.699 68.0108 140.755 66.4474L140.644 65.6276C140.644 65.6276 140.111 66.6495 139.981 66.9584C139.852 67.2672 139.76 67.2558 139.76 67.2558C139.85 66.5347 140.138 65.8525 140.591 65.2844C140.591 65.2844 140.48 63.5952 140.374 63.5914Z" fill="#FCAC32"/>
<path opacity="0.1" d="M200.587 56.3808C200.587 56.3808 197.482 64.9375 203.891 65.7192C204.184 65.8636 204.516 65.9116 204.838 65.8561C205.16 65.8006 205.457 65.6446 205.685 65.4103C205.685 65.4103 205.239 65.2616 205.651 64.4265C205.797 64.1295 205.907 63.8158 205.979 63.4923C206.077 63.0568 206.029 62.601 205.841 62.1958C205.841 62.1958 205.556 59.4466 201.837 57.3074C201.837 57.3074 201.174 56.3427 200.942 56.3046L201.132 57.9633C201.132 57.9633 202.344 57.7726 203.106 58.4285C203.106 58.4285 201.201 57.9137 201.151 58.2111C201.151 58.2683 201.292 59.0843 201.292 59.0843C201.292 59.0843 203.395 58.764 204.542 59.8165C204.542 59.8165 202.344 58.8937 201.346 59.3932L201.643 60.6058C201.643 60.6058 203.849 60.1596 205.205 61.3074C205.205 61.3074 202.87 60.4227 201.727 60.8689L202.18 62.0128C202.18 62.0128 204.34 61.6315 205.46 62.581C205.46 62.581 202.66 61.8183 202.302 62.2683C202.497 62.7123 202.745 63.131 203.041 63.5152C203.041 63.5152 204.599 63.2711 205.201 63.8965C205.201 63.8965 203.273 63.5953 203.209 63.7935C203.209 63.7935 204.192 64.9756 205.007 65.3188C204.241 65.0476 203.56 64.581 203.03 63.9651C202.979 64.4637 203.076 64.9662 203.308 65.4103C203.308 65.4103 202.477 65.029 202.793 63.6753C202.793 63.6753 202.066 62.7259 202.062 62.5314C202.062 62.5314 201.559 63.8164 201.681 64.7239C201.681 64.7239 201.071 63.7745 201.936 62.2302L201.452 61.0862C201.452 61.0862 200.69 62.7526 200.747 63.5686C200.747 63.5686 200.275 62.5047 201.357 60.785L201.052 59.5991C200.653 60.3194 200.35 61.0884 200.149 61.887C200.149 61.887 199.921 60.8079 200.976 59.2407L200.865 58.4247C200.865 58.4247 200.332 59.4466 200.206 59.7516C200.081 60.0567 199.985 60.0529 199.985 60.0529C200.073 59.3312 200.361 58.6484 200.816 58.0815C200.816 58.0815 200.69 56.3808 200.587 56.3808Z" fill="#FCAC32"/>
<path opacity="0.1" d="M102.201 45.6583C102.201 45.6583 99.0954 54.2187 105.504 54.9966C105.797 55.1423 106.129 55.1908 106.452 55.1353C106.774 55.0798 107.071 54.9231 107.298 54.6877C107.298 54.6877 106.853 54.539 107.264 53.7078C107.409 53.41 107.519 53.0966 107.592 52.7736C107.688 52.3367 107.64 51.8804 107.455 51.4733C107.455 51.4733 107.169 48.724 103.45 46.5849C103.45 46.5849 102.787 45.6239 102.555 45.5858L102.745 47.2407C102.745 47.2407 103.953 47.0539 104.719 47.7097C104.719 47.7097 102.814 47.1911 102.764 47.4886C102.764 47.5496 102.905 48.3618 102.905 48.3618C102.905 48.3618 105.009 48.0453 106.155 49.0939C106.155 49.0939 103.953 48.1711 102.959 48.6706L103.256 49.887C103.256 49.887 105.462 49.4409 106.815 50.5886C106.815 50.5886 104.483 49.704 103.34 50.1463L103.793 51.2902C103.793 51.2902 105.954 50.9089 107.074 51.8584C107.074 51.8584 104.269 51.0958 103.915 51.5457C104.11 51.991 104.358 52.411 104.654 52.7964C104.654 52.7964 106.213 52.5486 106.811 53.1777C106.811 53.1777 104.887 52.8765 104.818 53.0786C104.818 53.0786 105.805 54.2569 106.62 54.6039C105.854 54.3343 105.172 53.8674 104.643 53.2502C104.592 53.7488 104.689 54.2512 104.921 54.6954C104.921 54.6954 104.09 54.3141 104.407 52.9642C104.407 52.9642 103.675 52.0109 103.675 51.8203C103.675 51.8203 103.172 53.1091 103.294 54.0128C103.294 54.0128 102.684 53.0672 103.546 51.519L103.065 50.3751C103.065 50.3751 102.303 52.0452 102.357 52.8574C102.357 52.8574 101.884 51.7974 102.966 50.0777L102.665 48.888C102.267 49.6082 101.963 50.3773 101.762 51.1759C101.762 51.1759 101.534 50.0967 102.589 48.5295L102.479 47.7135C102.479 47.7135 101.945 48.7355 101.82 49.0443C101.694 49.3532 101.599 49.3417 101.599 49.3417C101.686 48.6206 101.973 47.9381 102.425 47.3704C102.425 47.3704 102.319 45.6621 102.201 45.6583Z" fill="#FCAC32"/>
<path opacity="0.1" d="M197.589 103.725C197.589 103.725 199.985 112.495 205.67 109.444C205.993 109.393 206.292 109.24 206.523 109.009C206.754 108.777 206.906 108.479 206.958 108.155C206.958 108.155 206.508 108.289 206.363 107.37C206.312 107.044 206.221 106.725 206.093 106.42C205.921 106.009 205.62 105.663 205.236 105.437C205.236 105.437 203.418 103.358 199.14 103.755C199.14 103.755 198.042 103.351 197.829 103.454L198.941 104.697C198.941 104.697 199.818 103.847 200.82 103.934C200.82 103.934 198.957 104.617 199.098 104.88C199.124 104.933 199.715 105.513 199.715 105.513C199.715 105.513 201.239 104.041 202.793 104.235C202.793 104.235 200.465 104.754 199.936 105.734L200.881 106.558C200.881 106.558 202.428 104.918 204.192 105.074C204.192 105.074 201.776 105.7 201.098 106.722L202.134 107.404C202.134 107.404 203.658 105.837 205.14 105.974C205.14 105.974 202.424 106.981 202.382 107.541C202.798 107.793 203.243 107.992 203.708 108.136C203.708 108.136 204.851 107.038 205.681 107.194C205.681 107.194 203.936 108.056 203.997 108.262C203.997 108.262 205.479 108.643 206.341 108.46C205.56 108.682 204.735 108.693 203.948 108.495C204.193 108.931 204.56 109.286 205.003 109.517C205.003 109.517 204.104 109.681 203.586 108.396C203.586 108.396 202.443 108.041 202.325 107.881C202.325 107.881 202.656 109.219 203.277 109.89C203.277 109.89 202.233 109.471 202.047 107.709L200.999 107.057C200.999 107.057 201.342 108.853 201.848 109.494C201.848 109.494 200.85 108.899 200.744 106.87L199.81 106.077C199.903 106.9 200.101 107.707 200.401 108.479C200.401 108.479 199.593 107.717 199.555 105.837L198.991 105.235C198.991 105.235 199.143 106.378 199.22 106.703C199.296 107.027 199.22 107.084 199.22 107.084C198.875 106.444 198.716 105.72 198.759 104.994C198.759 104.994 197.676 103.664 197.589 103.725Z" fill="#FCAC32"/>
<path d="M310.705 153.196C311.536 154.157 312.453 155.04 313.445 155.835L320.867 162.164C322.189 163.289 323.534 164.452 325.21 164.982C326.202 165.294 327.252 165.374 328.28 165.216C329.308 165.058 330.286 164.667 331.139 164.071L331.013 164.029L331.139 163.945C329.885 163.541 328.601 163.121 327.569 162.309C327.143 161.991 326.786 161.59 326.516 161.132C326.247 160.674 326.071 160.167 325.999 159.64C325.999 159.587 325.999 159.537 325.999 159.484C326.002 159.339 326.016 159.195 326.041 159.053C327.64 158.917 329.178 158.375 330.51 157.478L330.38 157.432L330.51 157.352C326.555 156.082 323.816 152.368 322.574 148.437C321.331 144.506 321.328 140.319 321.194 136.205C321.061 132.09 320.756 127.862 318.981 124.14C318.314 122.744 317.457 121.417 317.133 119.907C317.044 119.459 317.002 119.003 317.007 118.546C317.034 117.078 317.46 115.602 317.853 114.169C318.725 110.967 319.422 107.719 319.941 104.441C320.145 103.276 320.258 102.097 320.28 100.914C320.316 99.7599 320.131 98.6093 319.735 97.5244C317.99 92.9868 311.924 90.8476 310.999 86.085C310.89 85.444 310.844 84.794 310.861 84.1441C310.861 83.7857 310.861 83.4311 310.861 83.0765C310.861 82.7218 310.861 82.3138 310.831 81.963C310.568 78.6113 308.495 75.7019 306.495 72.9831C304.087 69.7115 301.542 66.3102 297.843 64.5676C294.97 63.2063 291.129 62.7563 287.704 63.0614C286.167 61.7342 284.482 60.589 282.682 59.6486C280.065 58.192 277.348 56.7583 274.449 56.438C270.772 56.0338 267.137 57.4447 263.449 57.6811C258.435 58.0052 253.513 56.1558 248.499 55.7745C243.485 55.3932 237.712 57.0824 235.472 62.1348C234.947 63.3616 234.628 64.6667 234.527 65.9975C234.504 66.253 234.489 66.5046 234.478 66.7601V66.7868C234.44 67.8184 234.47 68.8514 234.565 69.8792V69.9975C234.565 70.2034 234.603 70.4093 234.626 70.6152C234.626 70.6762 234.626 70.7334 234.645 70.7944C234.645 70.9851 234.687 71.1757 234.71 71.3664L234.733 71.5456C234.763 71.7858 234.798 72.026 234.828 72.2663C234.886 72.7609 234.992 73.2488 235.144 73.7229C235.238 73.9969 235.374 74.2543 235.548 74.4855C236.093 75.1795 236.912 75.3854 237.758 75.515L238.425 75.6104C238.356 75.7476 238.284 75.8849 238.219 76.026C236.707 79.2158 235.926 82.7032 235.933 86.2337C235.933 98.2298 244.807 108.174 256.401 109.982L257.098 110.851C261.373 116.212 266.737 123.37 269.29 128.521C266.341 132.186 262.889 138.683 261.906 149.581L260.447 152.99C257.387 157.394 256.599 163.747 257.387 169.657C256.526 172.853 255.543 176.868 254.861 180.189C249.79 179.064 232.481 176.281 228.389 173.577L216.388 167.918C216.388 167.918 200.766 156.998 192.361 160.643C189.15 156.693 184.303 152.555 182.215 150.992C178.634 148.304 169.726 137.802 169.726 137.802L155.77 119.263C155.732 117.116 155.503 115.282 154.916 114.493C153.27 112.289 144.557 107.397 142.816 108.453C141.074 109.509 139.619 106.165 139.619 106.165L139.486 106.092C139.158 105.902 138.228 105.376 136.937 104.682C136.869 103.134 136.907 101.583 137.051 100.041C137.078 99.7817 137.112 99.5224 137.15 99.2784C141.776 99.1113 146.221 97.4362 149.809 94.5081C153.396 91.58 155.929 87.5591 157.023 83.0574C157.084 82.8172 157.126 82.5693 157.176 82.3253C157.8 82.4704 158.452 82.4527 159.067 82.2738C159.683 82.0949 160.243 81.7607 160.692 81.3034C161.912 79.9916 161.965 77.9745 161.576 76.2357C161.188 74.4969 160.433 72.8306 160.243 71.0537C160.003 68.6324 160.856 66.0966 160.071 63.8088C159.412 61.8564 157.675 60.438 155.823 59.5114C153.971 58.5848 151.944 58.0433 150.051 57.2006C148.245 56.3999 146.565 55.3246 144.69 54.6916C142.259 53.8718 139.646 53.8413 137.07 53.9023C135.455 53.2502 133.809 52.6287 132.079 52.4342C130.174 52.2169 128.078 52.5867 126.627 53.8565C125.484 54.8708 124.554 56.499 123.003 56.5524C122.241 56.5791 121.556 56.2016 120.877 55.8775C118.953 54.9547 116.519 54.4323 114.781 55.6563C113.387 56.6325 112.876 58.4284 112.636 60.1024C112.396 61.7764 112.354 63.5342 111.547 65.0328C111.047 65.9555 110.289 66.7067 109.661 67.5456C108.069 69.6751 107.319 72.3172 107.554 74.9659V75.0422C107.462 74.6609 107.375 74.3063 107.31 73.9326C107.31 74.2148 107.31 74.4931 107.348 74.7753C107.514 76.0835 107.798 77.3738 108.198 78.6304L109.775 84.1594C110.575 86.9658 111.394 89.8142 112.918 92.3118C113.513 93.2958 114.231 94.1993 115.056 95.0001C116.354 96.3649 118.016 97.3294 119.845 97.7799C120.487 97.9241 121.148 97.964 121.803 97.8981C121.803 97.9781 121.784 98.0544 121.769 98.1345C121.628 98.1078 121.483 98.0773 121.35 98.0582C120.731 97.9291 120.09 97.946 119.479 98.1078C116.469 99.1793 115.555 102.439 115.288 103.721C115.227 104.049 115.208 104.247 115.208 104.247C115.208 104.247 115.258 104.438 115.315 104.762L115.288 104.872C115.227 105.196 115.208 105.398 115.208 105.398C115.208 105.398 115.258 105.589 115.315 105.921L114.53 105.94L101.404 107.656C98.4057 107.45 95.552 107.4 94.0242 107.766C93.8949 107.795 93.7677 107.832 93.6432 107.877C91.7382 108.537 83.0093 114.565 75.1759 120.113C75.1759 119.961 75.1759 119.812 75.153 119.667L72.9242 121.253C72.9242 121.402 72.9242 121.558 72.9242 121.715C72.3679 122.096 71.8154 122.5 71.282 122.885C68.8855 124.601 66.71 126.149 65.0907 127.335C63.1171 128.754 61.8941 129.65 61.8941 129.65C61.8941 129.65 61.1702 129.886 60.6901 131.004C60.0729 132.433 59.8595 135.309 62.0884 140.967C66.0585 151.038 66.9272 157.848 66.9272 157.848C65.8501 157.961 64.7929 158.217 63.7839 158.611C62.4084 159.16 60.9721 160.09 60.3739 161.661C59.9899 162.758 59.9805 163.952 60.3472 165.055C62.1836 171.575 92.584 208.601 92.584 208.601L92.965 208.635C94.5241 208.772 96.0923 208.772 97.6514 208.635C99.0725 208.486 100.402 208.147 101.012 207.43C101.012 207.43 107.752 216.09 117.65 210.191C117.582 218.046 117.384 223.807 118.629 226.709C120.569 231.216 120.569 241.477 120.569 241.477L122.413 241.542C122.314 241.923 122.203 242.305 122.085 242.686C121.236 245.496 119.982 248.894 118.656 249.706C116.423 251.079 117.483 274.674 117.574 276.711C117.574 276.791 117.574 276.833 117.574 276.833L117.445 286.365V287.128C117.168 286.756 116.919 286.363 116.702 285.954C116.702 285.954 113.113 289.385 113.048 296.63C112.983 303.875 113.113 304.119 113.113 304.119C113.113 304.119 127.591 303.559 130.307 304.558C133.024 305.557 155.743 303.688 155.743 303.688C155.743 303.688 156.585 301.5 154.162 299.818C158.025 299.54 162.239 298.8 164.708 297.008C170.137 293.084 153.754 290.026 152.611 289.404C151.468 288.783 145.807 283.784 143.467 281.912C142.76 281.395 141.924 281.083 141.052 281.012L141.345 272.467C144.831 268.535 148.607 246.858 148.607 246.858C149.841 245.828 150.379 243.323 150.6 241.794C151.051 241.644 151.445 241.359 151.729 240.978C152.013 240.597 152.173 240.138 152.188 239.662C156.177 239.796 161.195 239.765 162.159 238.808C163.805 237.176 163.611 231.613 163.611 231.613L161.287 172.723L161.134 172.498C161.519 169.802 161.526 167.066 161.157 164.368C166.377 165.859 170.438 166.874 170.438 166.874C170.438 166.874 178.295 168.323 183.808 169.543C182.905 170.502 182.224 171.647 181.811 172.898C176.858 187.007 204.95 186.423 204.95 186.423L218.213 192.563L249.432 202.774C239.4 199.811 227.94 196.326 220.14 193.935C219.372 193.7 218.591 193.51 217.801 193.367C210.646 192.071 203.212 194.679 198.656 200.433C198.602 200.505 198.553 200.57 198.496 200.639C197.404 202.06 196.796 203.793 196.761 205.584C196.725 207.376 197.264 209.132 198.297 210.595C199.49 212.284 201.086 214.53 202.957 217.142C198.999 218.339 192.449 221.676 196.431 230.255C201.948 242.148 216.757 248.94 216.757 248.94C216.757 248.94 226.438 251.723 228.949 254.793C229.654 255.654 232.378 257.565 235.941 259.868C238.227 262.289 240.018 263.872 241.08 264.223C245.325 265.622 253.589 272.337 259.403 277.374L258.531 289.408L258.473 290.133L258.115 289.828C258.115 289.828 255.543 295.166 248.091 296.954C246.596 297.291 245.272 298.154 244.361 299.387L244.334 299.421L244.113 299.742L243.946 299.616C242.422 301.763 241.713 304.889 247.466 305.751C256.469 307.093 266.516 305.175 266.516 305.175L275.493 296.87C276.49 297.71 277.661 298.319 278.922 298.651C285.631 300.176 304.476 307.475 304.476 307.475C304.476 305.427 321.13 279.086 321.13 279.086C343.609 236.501 319.164 204.677 316.462 201.363L316.222 201.073L316.013 197.535L315.967 196.723C315.967 196.723 328.098 191.354 323.45 188.799C318.802 186.244 316.211 173.962 311.833 168.849C308.404 164.86 308.602 155.602 308.24 147.713C308.633 149.661 309.478 151.489 310.705 153.051C310.732 153.085 310.762 153.112 310.789 153.146L310.465 152.864C310.545 152.986 310.621 153.093 310.705 153.196ZM161.226 149.924C162.788 151.606 165.516 153.756 167.322 155.122C165.158 154.065 163.474 153.173 162.174 152.452C161.87 151.606 161.55 150.759 161.226 149.924ZM115.014 110.02C114.64 111.14 113.961 112.132 113.052 112.884L112.29 109.593C113.288 109.753 114.217 109.902 115.014 110.02ZM267.294 200.433C267.595 199.785 267.907 199.148 268.223 198.526C269.559 198.091 270.737 197.272 271.61 196.17C272.274 198.476 272.766 200.829 273.081 203.209C273.081 203.319 273.081 203.38 273.081 203.38C273.065 204.34 272.92 205.293 272.651 206.214C272.3 207.327 271.66 208.376 270.498 208.501C270.014 208.551 267.633 207.975 264.07 207.003C263.038 206.721 261.902 206.404 260.691 206.061C262.592 205.935 265.236 204.864 267.294 200.433ZM297.107 119.976C296.395 118.832 294.909 118.1 293.091 117.669C292.76 117.448 292.246 117.097 291.59 116.62C288.39 114.275 282 108.994 279.07 102.249C279.887 102.021 280.685 101.729 281.456 101.376C282.652 100.826 283.782 100.142 284.824 99.3356C285.174 99.0611 285.517 98.7751 285.845 98.4776C286.684 97.7197 287.45 96.8834 288.131 95.9801C288.401 95.5987 288.664 95.2365 288.893 94.8361C289.266 94.2492 289.605 93.6406 289.906 93.0134C290.6 91.5495 291.135 90.0156 291.503 88.4377C291.651 87.8047 291.781 87.1603 291.884 86.5121C291.986 85.8639 292.086 85.2118 292.158 84.556C292.395 82.2418 292.485 79.915 292.428 77.5894C292.428 77.4788 292.428 77.3644 292.428 77.2538C292.428 77.2119 292.428 77.1699 292.428 77.1318C292.417 74.7743 292.162 72.4243 291.666 70.1195C291.838 70.1843 292.009 70.2491 292.173 70.3254C292.449 70.4605 292.711 70.62 292.958 70.802C292.897 70.7143 292.829 70.6266 292.764 70.5389C293.869 71.2558 294.692 72.373 295.431 73.4865C298.817 78.7694 300.979 84.7435 301.76 90.9711C302.54 97.1987 301.919 103.522 299.942 109.479C299.386 111.114 298.719 112.743 298.57 114.462C298.033 120.605 303.904 125.292 306.087 131.065C307.181 133.959 307.352 137.166 307.497 140.338C305.851 132.304 299.835 124.395 297.119 119.991L297.107 119.976Z" fill="url(#paint0_linear)"/>
<path d="M151.468 241.447C151.468 241.447 151.183 246.213 149.373 247.739C149.373 247.739 145.658 269.283 142.229 273.191L141.657 275.384L127.37 273.763L130.227 254.697L132.894 237.157L151.468 241.447Z" fill="#FFC1C8"/>
<path opacity="0.03" d="M151.468 241.447C151.468 241.447 151.183 246.213 149.373 247.739C149.373 247.739 145.658 269.283 142.229 273.191L141.657 275.384L127.37 273.763L130.227 254.697L132.894 237.157L151.468 241.447Z" fill="black"/>
<path d="M136.072 273.458L142.229 273.187L141.901 282.888L137.188 286.049L128.7 284.188L131.797 271.223L136.072 273.458Z" fill="#FF748F"/>
<path opacity="0.03" d="M136.072 273.458L142.229 273.187L141.901 282.888L137.188 286.049L128.7 284.188L131.797 271.223L136.072 273.458Z" fill="black"/>
<path d="M137.188 282.144C137.188 282.144 142.023 280.718 144.317 282.579C146.61 284.44 152.188 289.401 153.305 290.022C154.421 290.644 170.518 293.683 165.203 297.587C159.888 301.492 146.241 300.379 146.241 300.379C146.241 300.379 137.314 297.77 137.066 297.648C136.819 297.526 131.351 294.857 131.18 294.67C131.008 294.483 132.727 282.087 132.727 282.087L137.188 282.144Z" fill="#5D618C"/>
<path opacity="0.03" d="M137.188 282.144C137.188 282.144 142.023 280.718 144.317 282.579C146.61 284.44 152.188 289.401 153.305 290.022C154.421 290.644 170.518 293.683 165.203 297.587C159.888 301.492 146.241 300.379 146.241 300.379C146.241 300.379 137.314 297.77 137.066 297.648C136.819 297.526 131.351 294.857 131.18 294.67C131.008 294.483 132.727 282.087 132.727 282.087L137.188 282.144Z" fill="black"/>
<path d="M123.179 153.268L122.893 170.992L122.245 208.799L121.864 209.131C110.529 218.949 102.528 208.559 102.528 208.559C101.926 209.272 100.623 209.611 99.2212 209.756C97.6875 209.893 96.1447 209.893 94.611 209.756L94.23 209.722C94.23 209.722 64.3135 172.898 62.5038 166.416C62.1448 165.32 62.1542 164.136 62.5304 163.045C63.121 161.497 64.5345 160.574 65.8871 160.029C66.8793 159.636 67.92 159.38 68.9808 159.266C68.9808 159.266 68.1236 152.498 64.2183 142.489C62.0237 136.864 62.2371 134.008 62.8429 132.575C63.3153 131.465 64.0278 131.228 64.0278 131.228C64.0278 131.228 65.2318 130.34 67.1711 128.941C68.7827 127.762 70.9049 126.222 73.2671 124.517L75.4579 122.946C83.539 117.143 93.2775 110.31 95.2702 109.6C95.3945 109.555 95.5218 109.518 95.6512 109.49C99.7393 108.502 113.459 110.554 113.459 110.554L123.179 153.268Z" fill="#FCAC32"/>
<path opacity="0.1" d="M123.179 153.268L122.893 170.992C109.341 166.992 96.7408 140.487 95.0796 138.397C93.6585 136.582 95.1177 116.369 95.6549 109.498C99.7431 108.51 113.463 110.561 113.463 110.561L123.179 153.268Z" fill="black"/>
<path d="M278.724 118.752C278.724 118.752 268.151 124.186 266.817 145.539C266.817 145.539 265.103 156.407 264.15 158.313C263.198 160.22 258.626 178.237 259.197 180.429C259.197 180.429 258.245 182.622 254.72 181.669C251.196 180.715 232.146 177.76 227.86 174.9L216.049 169.276C216.049 169.276 192.998 152.975 188.14 166.988C183.282 181.001 210.905 180.437 210.905 180.437L223.954 186.538L263.484 199.59C263.484 199.59 268.722 201.973 272.247 194.347C274.502 189.543 277.179 184.949 280.248 180.62C280.248 180.62 288.249 158.123 288.154 154.309C288.058 150.496 296.726 141.44 296.726 141.44C296.726 141.44 298.441 117.417 284.344 117.894L278.724 118.752Z" fill="#FFC1C7"/>
<path opacity="0.03" d="M278.724 118.752C278.724 118.752 268.151 124.186 266.817 145.539C266.817 145.539 265.103 156.407 264.15 158.313C263.198 160.22 258.626 178.237 259.197 180.429C259.197 180.429 258.245 182.622 254.72 181.669C251.196 180.715 232.146 177.76 227.86 174.9L216.049 169.276C216.049 169.276 192.998 152.975 188.14 166.988C183.282 181.001 210.905 180.437 210.905 180.437L223.954 186.538L263.484 199.59C263.484 199.59 268.722 201.973 272.247 194.347C274.502 189.543 277.179 184.949 280.248 180.62C280.248 180.62 288.249 158.123 288.154 154.309C288.058 150.496 296.726 141.44 296.726 141.44C296.726 141.44 298.441 117.417 284.344 117.894L278.724 118.752Z" fill="black"/>
<path d="M166.899 137.299C167.471 137.966 170.138 139.343 170.138 139.343C170.138 139.343 178.901 149.779 182.425 152.449C185.949 155.118 197.475 165.318 195.143 169.181C192.811 173.043 190.19 172.181 190.19 172.181L169.566 157.882C169.566 157.882 162.327 152.689 160.853 150.21C159.378 147.732 157.564 142.542 157.564 142.542L166.899 137.299Z" fill="#FFC1C8"/>
<path opacity="0.03" d="M166.899 137.299C167.471 137.966 170.138 139.343 170.138 139.343C170.138 139.343 178.901 149.779 182.425 152.449C185.949 155.118 197.475 165.318 195.143 169.181C192.811 173.043 190.19 172.181 190.19 172.181L169.566 157.882C169.566 157.882 162.327 152.689 160.853 150.21C159.378 147.732 157.564 142.542 157.564 142.542L166.899 137.299Z" fill="black"/>
<path d="M155.328 119.473L170.138 139.347L156.802 144.544L151.278 127.907L155.328 119.473Z" fill="#DCE6F2"/>
<path opacity="0.03" d="M155.328 119.473L170.138 139.347L156.802 144.544L151.278 127.907L155.328 119.473Z" fill="black"/>
<path d="M159.184 170.141L161.851 174.05L164.137 232.581C164.137 232.581 164.327 238.11 162.708 239.731C161.089 241.352 147.849 240.303 147.849 240.303C147.849 240.303 148.325 180.628 148.516 179.484C148.706 178.34 159.184 170.141 159.184 170.141Z" fill="#575988"/>
<path opacity="0.1" d="M159.184 170.141L161.851 174.05L164.137 232.581C164.137 232.581 164.327 238.11 162.708 239.731C161.089 241.352 147.849 240.303 147.849 240.303C147.849 240.303 148.325 180.628 148.516 179.484C148.706 178.34 159.184 170.141 159.184 170.141Z" fill="black"/>
<path d="M141.349 244.131C140.481 246.265 139.463 248.335 138.301 250.324C138.301 250.324 135.824 264.467 134.769 265.771C134.007 266.724 133.656 273.839 133.531 277.549C133.485 278.892 133.466 279.788 133.466 279.788L118.904 286.735L118.839 277.553C118.839 277.553 118.839 277.511 118.839 277.431C118.748 275.406 117.696 251.956 119.902 250.591C121.198 249.786 122.432 246.396 123.266 243.616C123.903 241.47 124.303 239.674 124.303 239.674C124.303 239.674 140.48 238.621 141.829 240.356C142.324 240.974 141.981 242.476 141.349 244.131Z" fill="#FFC1C8"/>
<path opacity="0.1" d="M141.349 244.131C134.788 243.994 126.566 243.716 123.244 243.597C123.88 241.451 124.28 239.655 124.28 239.655C124.28 239.655 140.457 238.602 141.806 240.337C142.324 240.974 141.981 242.476 141.349 244.131Z" fill="black"/>
<path d="M122.226 157.368C122.226 157.368 117.749 181.2 118.607 196.547C119.464 211.895 117.94 223.232 119.845 227.72C121.75 232.208 121.75 242.4 121.75 242.4C121.75 242.4 147.658 243.353 150.325 242.972C152.992 242.591 152.897 240.589 152.897 240.589C152.897 240.589 151.087 224.757 152.802 219.8C154.516 214.843 154.231 199.686 154.231 199.686L161.47 175.282C161.47 175.282 163.66 164.319 159.088 159.838C154.516 155.358 122.226 157.368 122.226 157.368Z" fill="#575988"/>
<path d="M275.962 283.296L274.819 284.974L267.751 295.498L261.75 297.309L257.273 292.924L257.49 290.03L258.607 275.002C258.607 275.002 230.908 258.694 228.431 255.643C225.955 252.593 216.43 249.828 216.43 249.828C216.43 249.828 201.856 243.06 196.427 231.239C190.998 219.418 205.476 217.607 205.476 217.607L259.864 269.664L275.962 283.296Z" fill="#FFC1C7"/>
<path opacity="0.1" d="M274.838 284.97L267.77 295.494L261.769 297.305L257.292 292.92L257.51 290.026L262.436 294.255L271.675 283.483L274.838 284.97Z" fill="black"/>
<path d="M282.629 289.397L265.389 305.507C265.389 305.507 255.483 307.414 246.624 306.079C240.963 305.225 242.052 302.117 243.542 299.978L243.569 299.94C244.461 298.717 245.766 297.858 247.242 297.523C254.572 295.753 257.102 290.442 257.102 290.442L262.436 295.017L271.675 284.241L278.507 287.452L282.629 289.397Z" fill="#575988"/>
<path d="M282.629 289.58L265.389 305.698C265.389 305.698 255.483 307.605 246.624 306.27C240.962 305.416 241.671 302.308 243.161 300.169C244.874 301.528 246.93 302.385 249.101 302.644C253.959 303.12 261.293 302.644 261.293 302.644L278.507 287.647L282.629 289.58Z" fill="white"/>
<path d="M140.293 96.4834C138.891 97.1851 138.247 99.3509 137.988 101.822C137.55 106.039 138.259 111.118 138.259 111.118C138.259 111.118 119.209 105.906 121.243 104.888C122.413 104.304 123.034 100.056 123.35 96.5597C123.586 93.9744 123.655 91.7971 123.655 91.7971C123.655 91.7971 144.103 94.5769 140.293 96.4834Z" fill="#FFC1C8"/>
<path d="M291.933 119.618C291.933 119.618 268.818 141.478 269.58 135.126C269.686 134.241 269.382 133.017 268.78 131.572C266.642 126.416 260.733 118.413 256.111 112.559C252.72 108.266 250.015 105.128 250.015 105.128C250.015 105.128 278.724 80.9792 276.438 94.7065C275.961 97.8365 276.397 101.038 277.691 103.927C280.553 110.668 286.893 115.972 290.059 118.313C291.202 119.156 291.933 119.618 291.933 119.618Z" fill="#FFC1C7"/>
<path opacity="0.1" d="M273.264 98.8971C272.849 99.4118 271.309 101.219 270.852 101.696C266.509 106.222 265.93 112.754 259.167 112.754C258.148 112.755 257.13 112.69 256.119 112.56C252.728 108.266 250.023 105.128 250.023 105.128C250.023 105.128 278.724 80.9792 276.438 94.7065C275.897 97.9629 272.056 96.0449 273.264 98.8971Z" fill="black"/>
<path d="M283.04 88.0945C283.041 92.8212 281.641 97.4419 279.018 101.372C276.395 105.303 272.665 108.366 268.302 110.175C263.939 111.985 259.138 112.458 254.506 111.536C249.873 110.614 245.619 108.338 242.279 104.996C238.939 101.654 236.665 97.3953 235.744 92.7594C234.823 88.1235 235.296 83.3183 237.104 78.9516C238.911 74.5849 241.972 70.8528 245.9 68.2272C249.827 65.6017 254.444 64.2007 259.167 64.2015C262.305 64.1894 265.415 64.7991 268.317 65.9956C271.219 67.192 273.856 68.9515 276.075 71.1726C278.294 73.3937 280.052 76.0324 281.248 78.9367C282.443 81.841 283.053 84.9534 283.04 88.0945Z" fill="#FFC1C7"/>
<path opacity="0.1" d="M291.933 119.618C291.933 119.618 268.818 141.478 269.58 135.126C269.686 134.241 269.382 133.017 268.78 131.572L272.121 123.686C276.215 120.097 281.465 118.107 286.908 118.081C287.898 118.08 288.887 118.148 289.868 118.283L290.059 118.314C291.202 119.156 291.933 119.618 291.933 119.618Z" fill="black"/>
<path d="M319.11 279.769C319.11 279.769 302.727 305.95 302.727 307.986C302.727 307.986 284.184 300.741 277.581 299.216C270.978 297.69 264.752 283.837 264.752 283.837C264.752 283.837 247.226 267.311 240.368 265.023C234.55 263.082 206.592 223.613 198.263 211.704C197.244 210.247 196.713 208.503 196.749 206.725C196.785 204.946 197.384 203.225 198.461 201.809L198.618 201.607C200.822 198.832 203.741 196.711 207.06 195.474C210.379 194.236 213.973 193.928 217.455 194.584C218.227 194.726 218.99 194.914 219.741 195.148C231.735 198.858 252.507 205.234 262.985 208.112C266.49 209.077 268.833 209.638 269.309 209.603C270.452 209.485 271.081 208.459 271.428 207.335C271.692 206.419 271.834 205.473 271.851 204.521C271.851 204.521 271.851 204.46 271.851 204.349C271.529 201.925 271.025 199.528 270.342 197.18C269.119 192.986 267 188.063 263.484 185.71C260.565 183.762 258.245 179.465 257.029 174.469C255.395 167.724 255.772 159.697 259.418 154.443L262.943 146.123L268.837 132.205L272.121 124.449C276.215 120.86 281.465 118.87 286.908 118.844C287.898 118.843 288.887 118.91 289.868 119.046C292.394 119.396 294.577 120.155 295.488 121.65C298.281 126.226 304.632 134.615 305.901 143.003C307.17 151.392 305.649 165.12 309.966 170.206C314.283 175.293 316.824 187.491 321.396 190.034C325.968 192.578 314.032 197.912 314.032 197.912L314.077 198.717L314.283 202.236C314.283 202.236 314.367 202.332 314.519 202.522C317.179 205.817 341.209 237.447 319.11 279.769Z" fill="#FF6584"/>
<path d="M314.538 202.522C309.532 203.571 298.582 205.855 293.697 206.858L292.84 207.033C292.554 207.091 292.234 207.144 291.888 207.194C286.98 207.868 276.335 207.537 271.462 207.338C271.726 206.423 271.869 205.477 271.885 204.524C271.885 204.524 271.885 204.463 271.885 204.353C275.592 204.113 284.378 203.411 291.907 201.863C292.52 201.737 293.126 201.603 293.716 201.481C294.57 201.283 295.4 201.073 296.193 200.852C302.944 198.946 310.073 198.694 314.1 198.732L314.306 202.252C314.306 202.252 314.367 202.332 314.538 202.522Z" fill="#575988"/>
<path d="M293.678 201.466V206.858L292.821 207.033C292.535 207.091 292.215 207.144 291.868 207.194V201.878C292.482 201.737 293.088 201.603 293.678 201.466Z" fill="#FF6584"/>
<path opacity="0.1" d="M298.345 211.792C298.345 211.792 288.154 235.147 281.962 237.435C275.771 239.723 260.34 247.826 260.34 247.826C260.34 247.826 269.199 255.643 278.438 247.063C287.677 238.484 301.013 215.605 298.345 211.792Z" fill="black"/>
<path opacity="0.1" d="M309.49 208.654C309.49 208.654 310.442 217.519 309.109 219.14C307.775 220.761 309.49 208.654 309.49 208.654Z" fill="black"/>
<path opacity="0.1" d="M315.014 214.461C315.014 214.461 320.158 268.417 294.631 268.703C294.631 268.711 318.539 244.966 315.014 214.461Z" fill="black"/>
<path opacity="0.1" d="M321.492 227.426C321.492 227.426 328.826 255.738 319.206 258.979C319.206 258.987 324.254 244.307 321.492 227.426Z" fill="black"/>
<path opacity="0.1" d="M275.866 220.181C275.39 220.181 256.054 223.518 260.245 226.187C264.436 228.856 275.866 220.181 275.866 220.181Z" fill="black"/>
<path opacity="0.1" d="M289.201 181.962C289.201 181.962 305.013 195.975 301.965 197.501L289.201 181.962Z" fill="black"/>
<path opacity="0.1" d="M287.868 186.443C287.868 186.443 297.012 197.691 295.964 198.359L287.868 186.443Z" fill="black"/>
<path opacity="0.1" d="M307.394 184.719C307.394 184.719 311.585 189.962 310.919 191.106L307.394 184.719Z" fill="black"/>
<path opacity="0.1" d="M311.585 181.962C311.585 181.962 317.586 186.626 316.253 188.444L311.585 181.962Z" fill="black"/>
<path d="M278.248 125.147C278.248 125.147 297.774 126.672 296.917 142.401C296.06 158.13 281.486 162.134 281.486 162.134L262.531 156.7C262.531 156.7 271.008 126.195 278.248 125.147Z" fill="#FFC1C7"/>
<path opacity="0.1" d="M219.756 195.148C231.75 198.858 252.522 205.234 263 208.112C262.313 208.463 261.561 208.666 260.791 208.708C260.022 208.751 259.252 208.632 258.531 208.36L219.001 195.308L217.454 194.583C218.232 194.725 219.001 194.914 219.756 195.148Z" fill="black"/>
<path opacity="0.1" d="M286.649 156.269C284.793 158.748 283.159 161.417 283.22 163.087C283.25 164.288 282.458 167.35 281.399 170.976C278.67 180.084 274.966 188.87 270.349 197.18C269.126 192.986 267.008 188.063 263.491 185.71C260.573 183.762 258.253 179.465 257.037 174.469C257.963 170.854 258.843 167.815 259.205 167.091C260.158 165.184 261.872 154.317 261.872 154.317C262.033 151.563 262.394 148.824 262.95 146.123C264.333 139.514 266.684 135.065 268.844 132.205C271.451 128.727 273.797 127.53 273.797 127.53L279.417 126.672C285.894 126.454 289.019 131.385 290.524 136.788C292.368 143.503 290.825 150.687 286.649 156.269Z" fill="black"/>
<path d="M272.628 125.997C272.628 125.997 262.055 131.431 260.721 152.784C260.721 152.784 259.007 163.651 258.054 165.558C257.102 167.465 252.53 185.482 253.101 187.674C253.101 187.674 252.149 189.867 248.624 188.913C245.1 187.96 226.05 185.005 221.764 182.145L209.952 176.521C209.952 176.521 186.902 160.22 182.044 174.233C177.186 188.246 204.809 187.682 204.809 187.682L217.858 193.783L257.388 206.835C257.388 206.835 262.626 209.218 266.151 201.592C267.031 199.685 267.972 197.874 268.89 196.227C273.645 187.751 277.454 178.776 280.248 169.466C281.326 165.84 282.1 162.778 282.069 161.577C282.027 159.907 283.665 157.234 285.498 154.759C289.689 149.177 291.213 141.993 289.346 135.274C287.841 129.871 284.702 124.941 278.24 125.162L272.628 125.997Z" fill="#FFC1C7"/>
<path opacity="0.1" d="M140.294 96.4834C138.891 97.1851 138.248 99.3509 137.988 101.822C137.741 101.822 137.493 101.822 137.245 101.822C132.123 101.831 127.177 99.9528 123.35 96.5445C123.586 93.9592 123.655 91.7819 123.655 91.7819C123.655 91.7819 144.104 94.5769 140.294 96.4834Z" fill="black"/>
<path d="M158.201 80.0869C158.201 84.2348 156.972 88.2896 154.669 91.7384C152.366 95.1873 149.094 97.8753 145.265 99.4627C141.436 101.05 137.222 101.465 133.157 100.656C129.092 99.8469 125.358 97.8495 122.428 94.9165C119.497 91.9835 117.501 88.2466 116.693 84.1784C115.884 80.1102 116.299 75.8934 117.885 72.0612C119.471 68.229 122.157 64.9536 125.603 62.6492C129.049 60.3447 133.101 59.1147 137.245 59.1147C142.799 59.1268 148.122 61.3403 152.05 65.2707C155.977 69.2011 158.189 74.5285 158.201 80.0869Z" fill="#FFC1C8"/>
<path opacity="0.1" d="M165.28 162.222C165.28 162.222 154.326 166.607 150.897 168.132C147.468 169.657 127.846 166.13 127.846 166.13C127.846 166.13 117.654 160.982 118.511 155.835C119.369 150.687 110.32 133.821 110.32 133.821C110.32 133.821 110.034 118.855 114.035 115.995C118.035 113.135 116.511 107.13 116.511 107.13C116.511 107.13 116.53 106.931 116.591 106.607C116.839 105.334 117.734 102.092 120.702 101.029C121.303 100.867 121.934 100.85 122.543 100.979C125.389 101.41 130.064 103.53 133.931 105.486C137.131 107.107 139.779 108.613 140.385 108.964L140.514 109.036C140.514 109.036 141.943 112.373 143.658 111.324C145.372 110.275 153.945 115.137 155.564 117.33C157.183 119.522 156.04 129.818 155.755 132.392C155.469 134.965 157.374 142.592 159.469 146.969C161.565 151.347 165.28 162.222 165.28 162.222Z" fill="black"/>
<path d="M165.28 161.078C165.28 161.078 154.326 165.463 150.897 166.988C147.468 168.513 127.846 164.986 127.846 164.986C127.846 164.986 117.654 159.838 118.511 154.691C119.369 149.543 110.32 132.678 110.32 132.678C110.32 132.678 110.034 117.711 114.035 114.851C118.035 111.991 116.511 105.986 116.511 105.986C116.511 105.986 116.53 105.787 116.591 105.463C116.839 104.19 117.734 100.949 120.702 99.8847C121.303 99.7229 121.934 99.706 122.543 99.8351C125.389 100.266 130.064 102.386 133.931 104.342C137.131 105.963 139.779 107.469 140.385 107.82L140.514 107.892C140.514 107.892 141.943 111.229 143.658 110.18C145.372 109.132 153.945 113.993 155.564 116.186C157.183 118.378 156.04 128.674 155.755 131.248C155.469 133.821 157.374 141.448 159.469 145.825C161.565 150.203 165.28 161.078 165.28 161.078Z" fill="#DCE6F2"/>
<path d="M129.816 146.435C129.816 146.435 120.416 161.688 118.892 162.515L119.464 167.854C119.464 167.854 132.864 165.055 133.691 161.306C134.517 157.558 134.072 146.245 134.072 146.245L129.816 146.435Z" fill="#575988"/>
<path opacity="0.2" d="M129.816 146.435C129.816 146.435 120.416 161.688 118.892 162.515L119.464 167.854C119.464 167.854 132.864 165.055 133.691 161.306C134.517 157.558 134.072 146.245 134.072 146.245L129.816 146.435Z" fill="black"/>
<path opacity="0.1" d="M143.041 127.004C143.041 127.004 144.706 133.44 147.327 135.633C149.948 137.825 143.041 127.004 143.041 127.004Z" fill="black"/>
<path d="M126.703 143.972C126.943 144.403 134.99 155.366 143.467 159.415C151.945 163.465 170.854 168.235 170.854 168.235C170.854 168.235 186.189 171.095 188.807 172.189C191.424 173.283 194.762 168.376 178.329 161.371C161.896 154.367 158.707 151.266 158.707 151.266C158.707 151.266 144.42 144.3 142.134 140.868C139.848 137.436 126.703 143.972 126.703 143.972Z" fill="#FFC1C8"/>
<path opacity="0.1" d="M132.704 197.302C132.99 197.112 139.848 189.771 140.705 192.917C141.562 196.063 132.704 197.302 132.704 197.302Z" fill="black"/>
<path opacity="0.1" d="M136.704 182.812C136.609 183.098 135.657 191.201 132.894 192.155L136.704 182.812Z" fill="black"/>
<path opacity="0.1" d="M139.562 185.013C139.562 185.013 137.085 193.687 133.942 194.252L139.562 185.013Z" fill="black"/>
<path opacity="0.1" d="M126.989 211.03C126.989 211.03 131.18 211.125 131.751 208.456L126.989 211.03Z" fill="black"/>
<path opacity="0.1" d="M132.704 228.387C133.275 228.482 142.229 234.202 139.943 235.346C137.657 236.49 132.704 228.387 132.704 228.387Z" fill="black"/>
<path opacity="0.1" d="M133.515 276.669V277.549C133.47 278.892 133.451 279.788 133.451 279.788L118.889 286.735L118.824 277.553C118.824 277.553 118.824 277.511 118.824 277.431V276.81L124.653 276.997L133.515 276.669Z" fill="black"/>
<path d="M136.24 290.018L124.093 294.67L118.641 291.444L118.698 287.029L118.824 277.549L124.653 277.736L133.515 277.427V284.066L136.24 290.018Z" fill="#FF748F"/>
<path opacity="0.1" d="M136.228 290.022L124.082 294.674L118.63 291.448L118.687 287.033C119.478 288.07 120.489 288.92 121.647 289.52C122.805 290.12 124.082 290.455 125.385 290.503C125.385 290.503 129.66 285.164 132.262 283.616C132.447 283.505 132.652 283.433 132.866 283.404C133.079 283.376 133.296 283.391 133.504 283.448V284.07L136.228 290.022Z" fill="black"/>
<path d="M125.396 291.261C125.396 291.261 120.443 291.326 117.959 286.609C117.959 286.609 114.427 290.022 114.362 297.218C114.297 304.413 114.427 304.661 114.427 304.661C114.427 304.661 128.68 304.104 131.347 305.095C134.014 306.087 156.387 304.226 156.387 304.226C156.387 304.226 157.873 300.318 151.118 298.953C144.363 297.587 138.785 290.392 138.598 290.083C138.411 289.774 134.879 282.838 132.277 284.364C129.675 285.889 125.396 291.261 125.396 291.261Z" fill="#5D618C"/>
<path opacity="0.1" d="M138.533 56.9184L137.112 56.7239L138 56.701L138.533 56.9184Z" fill="black"/>
<path opacity="0.1" d="M158.201 80.087C158.201 81.7137 158.014 83.3349 157.641 84.9182C157.323 84.8361 157.018 84.7076 156.738 84.5369C156.33 84.2738 155.922 83.9116 155.442 83.9535C155.161 83.9978 154.897 84.1192 154.68 84.3043C152.425 85.9554 150.748 88.6703 148.005 89.1965C148.28 88.3929 148.317 87.527 148.112 86.7028C147.53 87.2883 146.816 87.7254 146.031 87.9776C145.245 88.2297 144.41 88.2894 143.597 88.1517C143.795 87.6757 143.818 87.1446 143.662 86.6532C141.73 87.736 139.719 88.6703 137.646 89.4482C137.573 89.0669 137.505 88.7161 137.432 88.35C134.514 89.7761 134.742 94.615 131.824 96.0411C130.086 96.8914 127.633 96.2813 126.433 97.8142C126.387 97.8752 126.345 97.9362 126.303 98.001C123.185 96.0919 120.619 93.3995 118.862 90.1912C117.105 86.983 116.217 83.3705 116.286 79.7125C116.356 76.0545 117.38 72.4784 119.258 69.3392C121.135 66.2 123.801 63.607 126.989 61.8177C130.178 60.0284 133.779 59.105 137.434 59.1394C141.09 59.1737 144.673 60.1645 147.827 62.0134C150.982 63.8622 153.598 66.5048 155.417 69.6787C157.235 72.8527 158.192 76.4474 158.193 80.1061L158.201 80.087Z" fill="black"/>
<path d="M138.533 56.1521C136.773 55.4238 134.986 54.6916 133.092 54.4743C131.199 54.257 129.157 54.6268 127.728 55.889C126.585 56.8956 125.69 58.5124 124.166 58.5582C123.423 58.5848 122.737 58.2112 122.07 57.887C120.165 56.9719 117.784 56.4533 116.065 57.6659C114.694 58.6382 114.179 60.4228 113.955 62.0891C113.73 63.7554 113.676 65.5209 112.884 66.989C112.392 67.9041 111.646 68.6515 111.028 69.4866C109.46 71.6083 108.722 74.232 108.956 76.8611C109.115 78.1613 109.393 79.444 109.786 80.6933L111.341 86.188C112.13 88.9792 112.934 91.8086 114.435 94.2909C115.936 96.7732 118.245 98.9086 121.064 99.5492C122.763 99.9305 124.821 99.6178 125.773 98.1574C126.017 97.7761 126.173 97.3681 126.44 97.0135C127.621 95.4882 130.094 96.0945 131.831 95.2442C134.75 93.8181 134.521 88.9792 137.44 87.5531L137.657 88.6475C139.728 87.8685 141.737 86.9355 143.669 85.8563C143.825 86.3475 143.803 86.8779 143.608 87.3548C144.421 87.4906 145.255 87.43 146.039 87.1779C146.824 86.9258 147.537 86.4897 148.119 85.9058C148.325 86.73 148.287 87.596 148.013 88.3996C150.756 87.8696 152.432 85.1547 154.688 83.5036C154.906 83.3212 155.169 83.2013 155.45 83.1566C155.934 83.1146 156.338 83.4769 156.745 83.7362C157.451 84.1652 158.282 84.3419 159.101 84.2373C159.921 84.1327 160.68 83.7531 161.256 83.1604C162.456 81.8563 162.51 79.8506 162.125 78.1195C161.74 76.3883 160.982 74.7372 160.818 72.9717C160.578 70.5657 161.416 68.0528 160.647 65.7649C159.995 63.8241 158.288 62.417 156.456 61.4943C154.623 60.5715 152.646 60.0338 150.775 59.2064C148.999 58.4094 147.346 57.3418 145.502 56.7126C142.835 55.8013 139.935 55.8737 137.12 55.95" fill="#794F6A"/>
<path d="M138.895 127.179C138.895 127.179 141.943 106.653 115.844 107.667L102.7 109.417C102.7 109.417 115.239 111.675 118.256 112.007L118.576 112.052C121.369 112.563 131.024 111.927 138.895 127.179Z" fill="#FCAC32"/>
<path opacity="0.1" d="M122.226 209.035V208.799C132.929 199.537 122.226 209.035 122.226 209.035Z" fill="black"/>
<path d="M99.2022 209.756C97.6685 209.893 96.1257 209.893 94.592 209.756L62.5305 163.053C63.1211 161.505 64.5346 160.582 65.8872 160.037L99.2022 209.756Z" fill="#575988"/>
<path d="M78.4107 159.751L76.8867 161.562C76.8867 161.562 65.327 142.344 62.8429 132.582C63.3153 131.473 64.0278 131.236 64.0278 131.236C64.0278 131.236 65.2318 130.348 67.1711 128.948C67.8912 133.539 70.3487 144.765 78.4107 159.751Z" fill="#575988"/>
<path d="M86.888 153.833L83.84 155.549C75.5189 145.802 74.8102 129.429 74.8864 122.905L77.081 121.326C77.3782 129.894 86.888 153.833 86.888 153.833Z" fill="#575988"/>
<path opacity="0.1" d="M94.8891 152.125C94.7939 153.364 91.2696 165.947 96.4131 168.044C101.557 170.142 94.8891 152.125 94.8891 152.125Z" fill="black"/>
<path opacity="0.1" d="M105.938 173.764C106.129 174.431 107.843 196.166 111.558 194.45C115.273 192.734 113.273 167.949 113.273 167.949L105.938 173.764Z" fill="black"/>
<path opacity="0.1" d="M283.041 88.0945C283.048 94.2664 280.66 100.2 276.381 104.643C274.637 105.013 272.84 105.044 271.085 104.735C270.188 104.621 269.335 104.279 268.608 103.74C267.909 103.094 267.361 102.301 267.004 101.418C265.613 98.4243 264.901 94.9658 262.95 92.4034C260.999 89.8409 257.041 88.7161 255.159 91.3433C254.134 92.7694 253.962 94.962 252.594 95.9496C250.952 97.1393 248.784 95.7398 247.508 94.043C243.736 89.0859 245.028 79.3396 237.834 77.9707L237.545 77.9211C239.852 72.9986 243.767 69.0105 248.643 66.6152C253.52 64.2198 259.068 63.5605 264.37 64.7461C269.672 65.9317 274.411 68.8912 277.805 73.1361C281.2 77.381 283.047 82.6576 283.041 88.0945Z" fill="black"/>
<path d="M238.215 77.6161C237.05 77.3911 235.697 77.4216 234.916 76.415C234.455 75.8201 234.322 74.9965 234.211 74.2148C233.742 70.8364 233.487 67.2101 234.832 64.1482C237.038 59.1263 242.715 57.4485 247.649 57.8222C252.583 58.1959 257.426 60.0376 262.36 59.7288C265.987 59.4924 269.564 58.0891 273.18 58.4895C276.042 58.8098 278.709 60.2321 281.28 61.6849C283.688 63.0424 286.15 64.5028 287.856 66.8593C290.363 70.3102 290.836 75.0766 290.904 79.5494C290.988 84.8 290.619 90.2528 288.417 94.8743C285.224 101.582 278.103 105.574 271.466 104.373C270.569 104.259 269.716 103.916 268.989 103.378C268.292 102.73 267.746 101.938 267.389 101.055C265.994 98.0583 265.282 94.6036 263.331 92.0373C261.38 89.4711 257.422 88.3539 255.54 90.9811C254.515 92.4034 254.343 94.5998 252.975 95.5874C251.333 96.7732 249.165 95.3738 247.889 93.6808C244.117 88.7199 245.409 78.9812 238.215 77.6161Z" fill="#945B79"/>
<path d="M296.197 66.5313C299.828 68.2663 302.346 71.6447 304.712 74.8973C306.682 77.6008 308.72 80.4911 308.979 83.8238C309.082 85.1889 308.88 86.5769 309.139 87.9191C310.05 92.6588 315.998 94.7827 317.735 99.2974C318.543 101.425 318.287 103.793 317.933 106.043C317.424 109.297 316.738 112.521 315.879 115.701C315.365 117.608 314.782 119.591 315.175 121.528C315.476 123.03 316.318 124.35 316.988 125.722C318.737 129.425 319.038 133.623 319.171 137.715C319.305 141.806 319.301 145.97 320.524 149.875C321.747 153.779 324.444 157.47 328.334 158.733C327.028 159.624 325.513 160.163 323.938 160.296C323.705 161.573 324.433 162.874 325.462 163.682C326.49 164.49 327.748 164.91 328.975 165.31C328.137 165.901 327.174 166.29 326.162 166.447C325.149 166.603 324.114 166.522 323.138 166.21C321.511 165.676 320.166 164.532 318.866 163.411L311.563 157.123C310.587 156.333 309.685 155.455 308.869 154.5C304.144 148.624 306.964 139.72 304.327 132.662C302.178 126.923 296.402 122.264 296.932 116.159C297.077 114.451 297.732 112.834 298.281 111.202C300.227 105.281 300.838 99.002 300.071 92.8164C299.303 86.6308 297.176 80.6922 293.842 75.4273C293.008 74.1308 292.04 72.8267 290.649 72.1594C288.535 71.149 285.513 71.5837 284.313 69.5665C283.677 68.5027 283.551 66.6304 283.494 65.4369C287.373 64.5485 292.57 64.7963 296.197 66.5313Z" fill="#945B79"/>
<path opacity="0.1" d="M110.651 131.091C112.434 119.362 127.084 115.126 134.86 124.09C137.108 126.691 139.101 129.539 140.229 132.388C144.039 142.016 144.325 142.874 144.325 142.874C144.325 142.874 120.797 147.45 120.988 150.881L110.32 133.818C110.32 133.818 110.4 132.75 110.651 131.091Z" fill="black"/>
<path d="M110.651 129.947C112.434 118.218 127.084 113.982 134.86 122.946C137.108 125.547 139.101 128.395 140.229 131.244C144.039 140.872 144.325 141.73 144.325 141.73C144.325 141.73 120.797 146.306 120.988 149.737L110.32 132.674C110.32 132.674 110.4 131.606 110.651 129.947Z" fill="#DCE6F2"/>
<path opacity="0.1" d="M117.273 114.897C117.559 115.374 128.799 129.101 134.704 131.057C140.61 133.013 117.273 114.897 117.273 114.897Z" fill="black"/>
<path opacity="0.1" d="M68.9808 159.274C68.9808 159.274 98.6992 194.355 102.509 208.559L68.9808 159.274Z" fill="black"/>
<path opacity="0.1" d="M70.1239 126.863C70.1239 126.863 76.601 160.418 89.1741 174.527C101.747 188.635 114.701 212.658 114.701 212.658" stroke="black" stroke-width="2" stroke-miterlimit="10"/>
<g opacity="0.1">
<path opacity="0.1" d="M161.95 78.0432C161.975 79.1585 161.59 80.2442 160.868 81.0937C160.292 81.6864 159.532 82.066 158.713 82.1706C157.893 82.2752 157.063 82.0985 156.357 81.6695C155.949 81.4102 155.545 81.0479 155.061 81.0899C154.781 81.1346 154.517 81.2545 154.299 81.4369C152.154 83.0079 150.531 85.5398 148.013 86.2376C148.102 86.9113 148.034 87.5964 147.815 88.2395C150.558 87.7095 152.234 84.9945 154.49 83.3435C154.708 83.161 154.971 83.0411 155.252 82.9965C155.736 82.9545 156.14 83.3168 156.547 83.5761C157.253 84.0051 158.084 84.1818 158.903 84.0772C159.723 83.9726 160.482 83.5929 161.058 83.0003C162.236 81.7038 162.308 79.7515 161.95 78.0432Z" fill="black"/>
<path opacity="0.1" d="M160.43 70.8897C160.46 71.2024 160.514 71.5113 160.574 71.8201C160.574 69.9136 161.028 67.9308 160.574 66.1005C160.582 67.6562 160.27 69.3035 160.43 70.8897Z" fill="black"/>
<path opacity="0.1" d="M147.738 83.8239C147.156 84.4077 146.443 84.8439 145.658 85.0959C144.874 85.348 144.04 85.4086 143.227 85.2728C143.422 84.7959 143.444 84.2655 143.288 83.7743C141.357 84.8535 139.347 85.7865 137.276 86.5655L137.059 85.4711C134.14 86.8972 134.369 91.7361 131.45 93.1622C129.713 94.0125 127.259 93.3986 126.059 94.9315C125.793 95.2785 125.636 95.6941 125.392 96.0754C124.44 97.5358 122.383 97.8523 120.683 97.4672C117.856 96.8266 115.551 94.6913 114.054 92.2089C112.556 89.7266 111.749 86.8972 110.96 84.106L109.406 78.6113C109.15 77.6962 108.891 76.781 108.724 75.8468C108.724 76.129 108.724 76.4073 108.765 76.6857C108.925 77.9858 109.203 79.2686 109.596 80.5179L111.151 86.0126C111.939 88.8038 112.743 91.6331 114.244 94.1155C115.745 96.5978 118.054 98.7332 120.874 99.3738C122.573 99.7551 124.63 99.4424 125.583 97.982C125.827 97.6007 125.983 97.1927 126.25 96.838C127.431 95.3128 129.904 95.9191 131.641 95.0688C134.559 93.6426 134.331 88.8038 137.249 87.3777L137.466 88.472C139.533 87.6926 141.539 86.7596 143.467 85.6808C143.623 86.1721 143.601 86.7024 143.406 87.1794C144.179 87.3074 144.971 87.2579 145.723 87.0347C146.474 86.8114 147.164 86.4202 147.742 85.8906C147.905 85.2111 147.903 84.5027 147.738 83.8239Z" fill="black"/>
</g>
<path opacity="0.1" d="M140.385 108.964C138.335 110.146 133.573 112.777 132.609 112.327C131.58 111.85 120.356 107.919 116.606 106.607C116.854 105.334 117.749 102.092 120.717 101.029C121.318 100.867 121.949 100.85 122.558 100.979L133.942 105.486C137.131 107.107 139.779 108.613 140.385 108.964Z" fill="black"/>
<path d="M140.385 107.82C138.335 109.002 133.573 111.633 132.609 111.183C131.58 110.706 120.356 106.775 116.606 105.463C116.854 104.19 117.749 100.949 120.717 99.8847C121.318 99.7229 121.949 99.706 122.558 99.8351L133.942 104.342C137.131 105.963 139.779 107.469 140.385 107.82Z" fill="#DCE6F2"/>
<path opacity="0.1" d="M290.916 79.0956C290.806 83.393 290.223 87.6904 288.436 91.4463C285.243 98.1536 278.122 102.146 271.485 100.945C270.588 100.831 269.735 100.488 269.008 99.9495C268.311 99.3024 267.765 98.5096 267.408 97.6274C266.014 94.6302 265.301 91.1756 263.35 88.6093C261.4 86.0431 257.441 84.9258 255.559 87.5531C254.534 88.9754 254.362 91.1717 252.995 92.1593C251.353 93.3452 249.185 91.9458 247.908 90.2528C244.136 85.2957 245.428 75.5456 238.235 74.1805C237.069 73.9555 235.716 73.986 234.935 72.9793C234.474 72.3845 234.341 71.5609 234.23 70.7792C234.101 69.8602 233.99 68.9222 233.925 67.9803C233.793 70.0621 233.895 72.1521 234.23 74.211C234.341 74.9927 234.474 75.8163 234.935 76.4112C235.716 77.4178 237.069 77.3873 238.235 77.6123C245.428 78.9774 244.136 88.7161 247.908 93.6846C249.181 95.3586 251.337 96.758 252.995 95.5912C254.362 94.6036 254.519 92.4072 255.559 90.9849C257.441 88.3577 261.4 89.4787 263.35 92.0411C265.301 94.6036 266.017 98.0621 267.408 101.059C267.765 101.941 268.311 102.734 269.008 103.381C269.735 103.92 270.588 104.263 271.485 104.377C278.122 105.578 285.243 101.585 288.436 94.8781C290.638 90.2566 291.007 84.8038 290.924 79.5532C290.916 79.3854 290.916 79.2329 290.916 79.0956Z" fill="black"/>
<g opacity="0.1">
<path opacity="0.1" d="M315.83 97.3985C316.638 99.5262 316.382 101.894 316.028 104.144C315.518 107.396 314.833 110.617 313.974 113.795C313.46 115.701 312.877 117.684 313.27 119.621C313.571 121.124 314.413 122.443 315.083 123.816C316.832 127.518 317.133 131.717 317.266 135.808C317.4 139.9 317.396 144.063 318.619 147.968C319.411 150.629 320.925 153.018 322.993 154.87C321.9 153.405 321.066 151.765 320.524 150.02C319.301 146.115 319.301 141.951 319.171 137.859C319.042 133.768 318.737 129.57 316.988 125.871C316.333 124.487 315.464 123.168 315.175 121.677C314.794 119.74 315.365 117.753 315.879 115.846C316.739 112.66 317.424 109.429 317.933 106.169C318.287 103.919 318.543 101.547 317.735 99.4194C317.083 97.715 315.83 96.3689 314.47 95.061C315.039 95.7663 315.498 96.5546 315.83 97.3985Z" fill="black"/>
<path opacity="0.1" d="M328.334 158.885C327.316 158.548 326.359 158.048 325.5 157.406C324.422 157.967 323.243 158.309 322.033 158.412C321.8 159.69 322.528 160.99 323.557 161.798C323.761 161.963 323.978 162.112 324.204 162.245C323.939 161.686 323.85 161.059 323.949 160.449C325.52 160.31 327.03 159.772 328.334 158.885Z" fill="black"/>
<path opacity="0.1" d="M288.733 70.2834C287.281 69.5894 285.403 69.5742 283.978 68.9832C284.059 69.2481 284.167 69.5038 284.302 69.7458C285.502 71.7591 288.523 71.3244 290.638 72.3387C290.905 72.4728 291.16 72.6297 291.4 72.8077C290.739 71.7536 289.821 70.885 288.733 70.2834Z" fill="black"/>
<path opacity="0.1" d="M325.827 164.128C324.368 164.751 322.733 164.828 321.221 164.345C319.594 163.812 318.249 162.668 316.95 161.547L309.646 155.259C309.299 154.961 308.956 154.66 308.621 154.355C308.697 154.458 308.774 154.565 308.857 154.668C309.673 155.623 310.574 156.502 311.551 157.291L318.855 163.583C320.154 164.7 321.499 165.848 323.126 166.382C324.103 166.693 325.138 166.773 326.151 166.616C327.163 166.46 328.126 166.07 328.963 165.478C327.86 165.176 326.805 164.721 325.827 164.128Z" fill="black"/>
<path opacity="0.1" d="M302.807 72.9945C304.777 75.698 306.815 78.5884 307.074 81.921C307.177 83.2861 306.975 84.6741 307.234 86.0163C307.646 88.1631 309.098 89.7761 310.721 91.3127C309.936 90.371 309.393 89.2519 309.139 88.0525C308.88 86.7065 309.082 85.3185 308.979 83.9534C308.72 80.6207 306.693 77.7304 304.712 75.0307C303.28 73.0593 301.786 71.046 300.03 69.3759C301.009 70.535 301.919 71.7705 302.807 72.9945Z" fill="black"/>
</g>
<path opacity="0.1" d="M286.092 65.09C286.092 65.09 283.806 68.9031 290.283 72.0794L290.664 71.0613L286.092 65.09Z" fill="black"/>
<path d="M285.711 65.09C285.711 65.09 283.425 68.9031 289.903 72.0794L290.284 71.0613L285.711 65.09Z" fill="#FF6584"/>
<path d="M375.899 280.909C375.899 280.909 377.995 283.65 374.935 287.772C371.876 291.894 369.353 295.399 370.363 297.98C370.363 297.98 374.981 290.297 378.745 290.19C382.509 290.083 380.033 285.53 375.899 280.909Z" fill="#FCAC32"/>
<path opacity="0.1" d="M375.899 280.909C376.082 281.173 376.227 281.462 376.329 281.767C379.995 286.079 381.945 290.102 378.421 290.201C375.141 290.297 371.205 296.169 370.26 297.652C370.29 297.767 370.329 297.877 370.37 297.992C370.37 297.992 374.988 290.308 378.753 290.201C382.517 290.095 380.033 285.53 375.899 280.909Z" fill="black"/>
<path d="M379.793 284.402C379.793 285.366 379.682 286.148 379.549 286.148C379.416 286.148 379.309 285.385 379.309 284.402C379.309 283.418 379.442 283.891 379.576 283.891C379.709 283.891 379.793 283.437 379.793 284.402Z" fill="#FFD037"/>
<path d="M381.126 285.553C380.281 286.015 379.541 286.293 379.48 286.175C379.419 286.057 380.048 285.588 380.894 285.126C381.74 284.665 381.408 285 381.473 285.126C381.538 285.252 381.976 285.092 381.126 285.553Z" fill="#FFD037"/>
<path d="M364.831 280.909C364.831 280.909 362.735 283.65 365.795 287.772C368.854 291.894 371.376 295.399 370.367 297.98C370.367 297.98 365.753 290.297 361.985 290.19C358.217 290.083 360.712 285.53 364.831 280.909Z" fill="#FCAC32"/>
<path opacity="0.1" d="M364.831 280.909C364.648 281.173 364.503 281.462 364.4 281.767C360.735 286.079 358.784 290.102 362.309 290.201C365.589 290.297 369.525 296.169 370.47 297.652C370.439 297.768 370.4 297.881 370.356 297.992C370.356 297.992 365.742 290.308 361.973 290.201C358.205 290.095 360.712 285.53 364.831 280.909Z" fill="black"/>
<path d="M360.952 284.402C360.952 285.366 361.063 286.148 361.196 286.148C361.329 286.148 361.436 285.385 361.436 284.402C361.436 283.418 361.303 283.891 361.169 283.891C361.036 283.891 360.952 283.437 360.952 284.402Z" fill="#FFD037"/>
<path d="M359.619 285.553C360.465 286.015 361.2 286.293 361.265 286.175C361.329 286.057 360.697 285.588 359.851 285.126C359.005 284.665 359.337 285 359.272 285.126C359.207 285.252 358.773 285.092 359.619 285.553Z" fill="#FFD037"/>
<path d="M361.619 297.633C361.619 297.633 367.471 297.45 369.239 296.196C371.007 294.941 378.242 293.435 378.68 295.433C379.118 297.431 387.474 305.458 380.867 305.511C374.261 305.564 365.517 304.482 363.756 303.41C361.996 302.339 361.619 297.633 361.619 297.633Z" fill="#A8A8A8"/>
<path opacity="0.2" d="M380.982 304.832C374.375 304.886 365.631 303.803 363.871 302.731C362.529 301.911 361.996 298.979 361.817 297.629H361.619C361.619 297.629 362 302.354 363.753 303.429C365.505 304.504 374.257 305.583 380.863 305.53C382.768 305.53 383.428 304.836 383.393 303.829C383.119 304.451 382.399 304.832 380.982 304.832Z" fill="black"/>
<path d="M100.067 290.911C100.767 290.341 101.277 289.573 101.53 288.707C101.717 287.83 101.343 286.777 100.509 286.457C99.5717 286.098 98.5697 286.75 97.8115 287.406C97.0533 288.062 96.1808 288.813 95.1864 288.672C95.6978 288.209 96.0803 287.621 96.2967 286.965C96.5131 286.309 96.5558 285.609 96.4208 284.932C96.3775 284.651 96.259 284.388 96.0779 284.169C95.5597 283.612 94.6149 283.853 93.99 284.291C92.0088 285.683 91.4563 288.379 91.4487 290.8C91.2468 289.927 91.4144 289.015 91.4106 288.131C91.4068 287.246 91.1591 286.224 90.4048 285.759C89.9388 285.501 89.4133 285.369 88.8807 285.378C87.9892 285.343 86.9986 285.435 86.389 286.087C85.627 286.895 85.8289 288.257 86.488 289.137C87.1472 290.018 88.1454 290.59 89.0636 291.204C89.8026 291.644 90.4329 292.245 90.9077 292.962C90.9632 293.063 91.0091 293.169 91.0448 293.279H96.6037C97.8598 292.65 99.0249 291.853 100.067 290.911Z" fill="#FCAC32"/>
<path d="M55.7067 296.924C55.7067 296.924 50.3726 278.735 56.7087 265.344C59.4101 259.745 60.2256 253.421 59.0329 247.319C58.4409 244.427 57.5865 241.595 56.4801 238.858" stroke="#535461" stroke-width="2" stroke-miterlimit="10"/>
<path d="M60.4388 230.396C60.4388 232.623 56.404 239.09 56.404 239.09C56.404 239.09 52.3691 232.608 52.3691 230.396C52.3691 229.325 52.7942 228.298 53.5509 227.541C54.3076 226.784 55.3339 226.358 56.404 226.358C57.4741 226.358 58.5004 226.784 59.257 227.541C60.0137 228.298 60.4388 229.325 60.4388 230.396Z" fill="#FCAC32"/>
<path d="M67.1063 242.743C65.8947 244.615 58.9985 247.849 58.9985 247.849C58.9985 247.849 59.1205 240.223 60.3321 238.358C60.9241 237.484 61.8346 236.878 62.8683 236.667C63.902 236.457 64.9769 236.661 65.8626 237.234C66.7483 237.807 67.3745 238.705 67.607 239.735C67.8394 240.765 67.6597 241.844 67.1063 242.743Z" fill="#FCAC32"/>
<path d="M66.8129 263.849C64.8241 264.852 57.2383 264.158 57.2383 264.158C57.2383 264.158 61.1931 257.645 63.182 256.638C63.6563 256.387 64.1759 256.233 64.7105 256.185C65.2451 256.137 65.7839 256.196 66.2953 256.359C66.8067 256.522 67.2804 256.786 67.6888 257.135C68.0971 257.483 68.4319 257.91 68.6734 258.389C68.915 258.869 69.0585 259.392 69.0955 259.928C69.1326 260.464 69.0624 261.002 68.8891 261.51C68.7159 262.019 68.443 262.487 68.0865 262.889C67.73 263.291 67.297 263.617 66.8129 263.849Z" fill="#FCAC32"/>
<path d="M62.9991 279.765C61.2084 281.092 53.615 281.671 53.615 281.671C53.615 281.671 56.4116 274.583 58.187 273.256C58.6097 272.909 59.0984 272.652 59.6235 272.5C60.1485 272.348 60.6989 272.304 61.2413 272.372C61.7837 272.439 62.3068 272.616 62.7789 272.891C63.2509 273.167 63.662 273.536 63.9873 273.976C64.3126 274.415 64.5453 274.916 64.6712 275.449C64.7971 275.981 64.8136 276.533 64.7198 277.072C64.626 277.611 64.4237 278.125 64.1253 278.584C63.8269 279.042 63.4386 279.435 62.9839 279.738L62.9991 279.765Z" fill="#FCAC32"/>
<path d="M50.5288 248.28C52.1252 249.836 59.57 251.445 59.57 251.445C59.57 251.445 57.745 244.044 56.141 242.488C55.7644 242.103 55.3145 241.797 54.8178 241.588C54.3212 241.38 53.7879 241.273 53.2493 241.274C52.7108 241.275 52.1779 241.384 51.6821 241.594C51.1862 241.805 50.7375 242.112 50.3623 242.499C49.9872 242.885 49.6931 243.343 49.4976 243.846C49.302 244.348 49.2089 244.884 49.2237 245.423C49.2385 245.962 49.3609 246.492 49.5838 246.983C49.8066 247.473 50.1253 247.914 50.5212 248.28H50.5288Z" fill="#FCAC32"/>
<path d="M46.3111 266.953C48.2999 267.956 55.8857 267.265 55.8857 267.265C55.8857 267.265 51.9347 260.749 49.942 259.746C49.4692 259.507 48.9541 259.364 48.426 259.325C47.8979 259.286 47.3673 259.351 46.8644 259.517C46.3614 259.682 45.8961 259.946 45.4949 260.292C45.0937 260.638 44.7645 261.059 44.5261 261.532C44.2876 262.006 44.1447 262.521 44.1054 263.05C44.066 263.578 44.1311 264.109 44.2969 264.612C44.4626 265.116 44.7258 265.582 45.0714 265.983C45.417 266.385 45.8382 266.714 46.3111 266.953Z" fill="#FCAC32"/>
<path d="M44.688 285.668C46.4787 286.991 54.0721 287.574 54.0721 287.574C54.0721 287.574 51.2755 280.482 49.5001 279.155C48.6384 278.58 47.5887 278.358 46.5683 278.536C45.5479 278.714 44.635 279.278 44.0186 280.111C43.4022 280.944 43.1294 281.982 43.2569 283.011C43.3843 284.04 43.9022 284.98 44.7032 285.637L44.688 285.668Z" fill="#FCAC32"/>
<path d="M60.4388 230.396C60.4388 232.623 56.404 239.09 56.404 239.09C56.404 239.09 52.3691 232.608 52.3691 230.396C52.3691 229.325 52.7942 228.298 53.5509 227.541C54.3076 226.784 55.3339 226.358 56.404 226.358C57.4741 226.358 58.5004 226.784 59.257 227.541C60.0137 228.298 60.4388 229.325 60.4388 230.396Z" fill="#FCAC32"/>
<path d="M67.1063 242.743C65.8947 244.615 58.9985 247.849 58.9985 247.849C58.9985 247.849 59.1205 240.223 60.3321 238.358C60.9241 237.484 61.8346 236.878 62.8683 236.667C63.902 236.457 64.9769 236.661 65.8626 237.234C66.7483 237.807 67.3745 238.705 67.607 239.735C67.8394 240.765 67.6597 241.844 67.1063 242.743Z" fill="#FCAC32"/>
<path d="M66.8129 263.849C64.8241 264.852 57.2383 264.158 57.2383 264.158C57.2383 264.158 61.1931 257.645 63.182 256.638C63.6563 256.387 64.1759 256.233 64.7105 256.185C65.2451 256.137 65.7839 256.196 66.2953 256.359C66.8067 256.522 67.2804 256.786 67.6888 257.135C68.0971 257.483 68.4319 257.91 68.6734 258.389C68.915 258.869 69.0585 259.392 69.0955 259.928C69.1326 260.464 69.0624 261.002 68.8891 261.51C68.7159 262.019 68.443 262.487 68.0865 262.889C67.73 263.291 67.297 263.617 66.8129 263.849Z" fill="#FCAC32"/>
<path d="M62.9991 279.765C61.2084 281.092 53.615 281.671 53.615 281.671C53.615 281.671 56.4116 274.583 58.187 273.256C58.6097 272.909 59.0984 272.652 59.6235 272.5C60.1485 272.348 60.6989 272.304 61.2413 272.372C61.7837 272.439 62.3068 272.616 62.7789 272.891C63.2509 273.167 63.662 273.536 63.9873 273.976C64.3126 274.415 64.5453 274.916 64.6712 275.449C64.7971 275.981 64.8136 276.533 64.7198 277.072C64.626 277.611 64.4237 278.125 64.1253 278.584C63.8269 279.042 63.4386 279.435 62.9839 279.738L62.9991 279.765Z" fill="#FCAC32"/>
<path d="M50.5288 248.28C52.1252 249.836 59.57 251.445 59.57 251.445C59.57 251.445 57.745 244.044 56.141 242.488C55.7644 242.103 55.3145 241.797 54.8178 241.588C54.3212 241.38 53.7879 241.273 53.2493 241.274C52.7108 241.275 52.1779 241.384 51.6821 241.594C51.1862 241.805 50.7375 242.112 50.3623 242.499C49.9872 242.885 49.6931 243.343 49.4976 243.846C49.302 244.348 49.2089 244.884 49.2237 245.423C49.2385 245.962 49.3609 246.492 49.5838 246.983C49.8066 247.473 50.1253 247.914 50.5212 248.28H50.5288Z" fill="#FCAC32"/>
<path d="M46.3111 266.953C48.2999 267.956 55.8857 267.265 55.8857 267.265C55.8857 267.265 51.9347 260.749 49.942 259.746C49.4692 259.507 48.9541 259.364 48.426 259.325C47.8979 259.286 47.3673 259.351 46.8644 259.517C46.3614 259.682 45.8961 259.946 45.4949 260.292C45.0937 260.638 44.7645 261.059 44.5261 261.532C44.2876 262.006 44.1447 262.521 44.1054 263.05C44.066 263.578 44.1311 264.109 44.2969 264.612C44.4626 265.116 44.7258 265.582 45.0714 265.983C45.417 266.385 45.8382 266.714 46.3111 266.953Z" fill="#FCAC32"/>
<path d="M44.688 285.668C46.4787 286.991 54.0721 287.574 54.0721 287.574C54.0721 287.574 51.2755 280.482 49.5001 279.155C48.6384 278.58 47.5887 278.358 46.5683 278.536C45.5479 278.714 44.635 279.278 44.0186 280.111C43.4022 280.944 43.1294 281.982 43.2569 283.011C43.3843 284.04 43.9022 284.98 44.7032 285.637L44.688 285.668Z" fill="#FCAC32"/>
<path d="M43.0536 295.78C43.0536 295.78 49.5726 294.483 51.31 292.756C53.0473 291.029 60.8732 288.005 61.7419 290.163C62.6105 292.321 73.4768 299.666 66.0891 300.962C58.7014 302.258 48.7039 302.689 46.5284 301.824C44.3528 300.958 43.0536 295.78 43.0536 295.78Z" fill="#A8A8A8"/>
<path opacity="0.2" d="M66.0891 300.157C58.6976 301.454 48.7039 301.885 46.5284 301.023C44.8748 300.363 43.7242 297.21 43.2708 295.734L43.0536 295.78C43.0536 295.78 44.3566 300.962 46.5284 301.824C48.7001 302.686 58.6976 302.258 66.0891 300.962C68.2189 300.581 68.8285 299.708 68.5999 298.598C68.4094 299.322 67.6741 299.875 66.0891 300.157Z" fill="black"/>
</g>
<defs>
<linearGradient id="paint0_linear" x1="195.604" y1="307.475" x2="195.604" y2="52.3465" gradientUnits="userSpaceOnUse">
<stop stop-color="#808080" stop-opacity="0.25"/>
<stop offset="0.54" stop-color="#808080" stop-opacity="0.12"/>
<stop offset="1" stop-color="#808080" stop-opacity="0.1"/>
</linearGradient>
<clipPath id="clip0">
<rect width="418" height="313" fill="white"/>
</clipPath>
</defs>
</svg>
