<svg width="58" height="60" viewBox="0 0 58 60" fill="none" xmlns="http://www.w3.org/2000/svg">
<path d="M37.3254 1.08752H29V7.23752H37.3254V1.08752Z" fill="#E47980"/>
<path d="M37.3253 1.08752V5.39377H34.7274C32.2201 5.39377 30.2083 3.46877 30.2083 1.08752H37.3253Z" fill="#F4929C"/>
<path d="M56.9488 56.45H1.05127V58.9125H56.9488V56.45Z" fill="#5C5F7D"/>
<path d="M56.9488 29.3875H1.05127L8.18648 14.6188H49.8136L56.9488 29.3875Z" fill="#7190C4"/>
<path d="M56.0546 27.5375H17.9921C16.5208 27.5385 15.0737 27.1503 13.7883 26.4097C12.5029 25.669 11.422 24.6007 10.6482 23.3061C9.87448 22.0115 9.43364 20.5337 9.36759 19.0132C9.30154 17.4927 9.61248 15.9799 10.2709 14.6188H49.8136L56.0546 27.5375Z" fill="#89A3CE"/>
<path d="M50.2847 25.0812C48.1225 25.0812 45.9824 24.6313 43.9917 23.7584C42.001 22.8855 40.2003 21.6073 38.6968 20L37.9234 19.175C37.7689 18.998 37.6665 18.7791 37.6283 18.5439C37.5901 18.3088 37.6177 18.0672 37.7079 17.8478C37.7981 17.6283 37.9471 17.4401 38.1373 17.3054C38.3275 17.1707 38.551 17.0951 38.7814 17.0875H47.6082C47.8287 17.0899 48.0443 17.1546 48.2317 17.2747C48.4192 17.3948 48.5713 17.5656 48.6716 17.7687L51.3541 23.3C51.4397 23.4885 51.4784 23.6963 51.4667 23.9043C51.455 24.1123 51.3932 24.3139 51.2869 24.4909C51.1806 24.6679 51.0333 24.8147 50.8583 24.9177C50.6832 25.0208 50.4861 25.077 50.2847 25.0812Z" fill="#A5B9DB"/>
<path d="M53.9762 29.3875V56.45H4.02368V29.3875H17.1099L18.8076 27.5375L28.9999 16.4688L29.0422 16.5187L40.8899 29.3875H53.9762Z" fill="#CCD1DC"/>
<path d="M53.9762 29.375V54.6063H12.9472C11.0548 54.6063 9.23998 53.8286 7.90187 52.4443C6.56375 51.0601 5.81201 49.1826 5.81201 47.225V29.375H17.1099L18.8076 27.5H18.8922L29.0422 16.4813L40.8899 29.375H53.9762Z" fill="#DEE1E7"/>
<path d="M29.0001 31.2313C31.2991 31.2313 33.1628 29.3033 33.1628 26.925C33.1628 24.5468 31.2991 22.6188 29.0001 22.6188C26.7011 22.6188 24.8374 24.5468 24.8374 26.925C24.8374 29.3033 26.7011 31.2313 29.0001 31.2313Z" fill="#FFE5C3"/>
<path d="M30.2083 32.4625H50.9856C51.3061 32.4625 51.6134 32.5942 51.84 32.8286C52.0667 33.063 52.194 33.381 52.194 33.7125V52.125C52.194 52.4565 52.0667 52.7745 51.84 53.0089C51.6134 53.2433 51.3061 53.375 50.9856 53.375H48.0131C42.9705 53.375 38.1345 51.3027 34.5688 47.6141C31.0032 43.9255 29 38.9227 29 33.7062C29 33.3747 29.1273 33.0568 29.3539 32.8224C29.5805 32.5879 29.8879 32.4562 30.2083 32.4562V32.4625Z" fill="#F3F4F5"/>
<path d="M28.9999 44.7625H22.4568V56.45H28.9999V44.7625Z" fill="#A67F74"/>
<path d="M28.9999 44.7625V54.6063H26.6195C26.3072 54.6063 25.9979 54.5425 25.7095 54.4187C25.421 54.2949 25.159 54.1134 24.9384 53.8846C24.7179 53.6559 24.5431 53.3844 24.4241 53.0856C24.3052 52.7869 24.2443 52.4668 24.2451 52.1438V44.7625H28.9999Z" fill="#B58B7E"/>
<path d="M35.5431 44.7625H29V56.45H35.5431V44.7625Z" fill="#A67F74"/>
<path d="M35.5431 44.7625V54.6063H33.1627C32.5366 54.598 31.9389 54.335 31.499 53.8741C31.0591 53.4131 30.8124 52.7915 30.8125 52.1438V44.7625H35.5431Z" fill="#B58B7E"/>
<path d="M50.4056 34.9188H46.2429V41.0688H50.4056V34.9188Z" fill="#ABD9E6"/>
<path d="M49.2154 34.9188L46.2429 40.0438V39.025L48.6233 34.9188H49.2154Z" fill="#C3E1F5"/>
<path d="M50.4056 34.9188V35.95L47.4331 41.075H46.2429L49.8135 34.9188H50.4056Z" fill="#C3E1F5"/>
<path d="M50.4056 44.7625H46.2429V50.9125H50.4056V44.7625Z" fill="#ABD9E6"/>
<path d="M49.2154 44.7625L46.2429 49.8875V48.8688L48.6233 44.7625H49.2154Z" fill="#C3E1F5"/>
<path d="M50.4056 44.7625V45.7938L47.4331 50.9125H46.2429L49.8135 44.7625H50.4056Z" fill="#C3E1F5"/>
<path d="M42.6783 44.7625H38.5156V50.9125H42.6783V44.7625Z" fill="#ABD9E6"/>
<path d="M41.4881 44.7625L38.5156 49.8875V48.8688L40.89 44.7625H41.4881Z" fill="#C3E1F5"/>
<path d="M42.6783 44.7625V45.7938L39.7058 50.9125H38.5156L42.0802 44.7625H42.6783Z" fill="#C3E1F5"/>
<path d="M42.6783 34.9188H38.5156V41.0688H42.6783V34.9188Z" fill="#ABD9E6"/>
<path d="M41.4881 34.9188L38.5156 40.0438V39.025L40.89 34.9188H41.4881Z" fill="#C3E1F5"/>
<path d="M42.6783 34.9188V35.95L39.7058 41.075H38.5156L42.0802 34.9188H42.6783Z" fill="#C3E1F5"/>
<path d="M19.4845 44.7625H15.3218V50.9125H19.4845V44.7625Z" fill="#ABD9E6"/>
<path d="M18.2943 44.7625L15.3218 49.8875V48.8688L17.7022 44.7625H18.2943Z" fill="#C3E1F5"/>
<path d="M19.4845 44.7625V45.7938L16.512 50.9125H15.3218L18.8924 44.7625H19.4845Z" fill="#C3E1F5"/>
<path d="M19.4845 34.9188H15.3218V41.0688H19.4845V34.9188Z" fill="#ABD9E6"/>
<path d="M18.2943 34.9188L15.3218 40.0438V39.025L17.7022 34.9188H18.2943Z" fill="#C3E1F5"/>
<path d="M19.4845 34.9188V35.95L16.512 41.075H15.3218L18.8924 34.9188H19.4845Z" fill="#C3E1F5"/>
<path d="M11.7572 44.7625H7.59448V50.9125H11.7572V44.7625Z" fill="#ABD9E6"/>
<path d="M10.567 44.7625L7.59448 49.8875V48.8688L9.96886 44.7625H10.567Z" fill="#C3E1F5"/>
<path d="M11.7572 44.7625V45.7938L8.78469 50.9125H7.59448L11.1591 44.7625H11.7572Z" fill="#C3E1F5"/>
<path d="M11.7572 34.9188H7.59448V41.0688H11.7572V34.9188Z" fill="#ABD9E6"/>
<path d="M10.567 34.9188L7.59448 40.0438V39.025L9.96886 34.9188H10.567Z" fill="#C3E1F5"/>
<path d="M11.7572 34.9188V35.95L8.78469 41.075H7.59448L11.1591 34.9188H11.7572Z" fill="#C3E1F5"/>
<path d="M34.9449 34.9188H30.7822V41.0688H34.9449V34.9188Z" fill="#ABD9E6"/>
<path d="M33.7547 34.9188L30.7822 40.0438V39.025L33.1626 34.9188H33.7547Z" fill="#C3E1F5"/>
<path d="M34.9449 34.9188V35.95L31.9724 41.075H30.7822L34.3529 34.9188H34.9449Z" fill="#C3E1F5"/>
<path d="M27.2176 34.9188H23.0549V41.0688H27.2176V34.9188Z" fill="#ABD9E6"/>
<path d="M26.0274 34.9188L23.0549 40.0438V39.025L25.4293 34.9188H26.0274Z" fill="#C3E1F5"/>
<path d="M27.2176 34.9188V35.95L24.2451 41.075H23.0549L26.6195 34.9188H27.2176Z" fill="#C3E1F5"/>
<path d="M46.2429 30.6125H42.2192L29 16.4687L15.7808 30.6125H11.7571L29 12.1625L46.2429 30.6125Z" fill="#A5B9DB"/>
<path d="M56.9487 55.8375H54.5683V30H56.9487C57.0503 29.9992 57.1501 29.9718 57.2389 29.9205C57.3276 29.8691 57.4023 29.7954 57.4562 29.7063C57.5092 29.6113 57.5371 29.5035 57.5371 29.3938C57.5371 29.2841 57.5092 29.1763 57.4562 29.0813L50.3451 14.375C50.2946 14.2741 50.2184 14.1893 50.1247 14.1298C50.031 14.0703 49.9234 14.0384 49.8135 14.0375H31.5495L29.6041 11.9125V7.85627H37.3374C37.4977 7.85627 37.6513 7.79043 37.7646 7.67322C37.878 7.55601 37.9416 7.39703 37.9416 7.23127V1.08752C37.9416 0.921764 37.878 0.762793 37.7646 0.645583C37.6513 0.528372 37.4977 0.462524 37.3374 0.462524H28.9999C28.8397 0.462524 28.686 0.528372 28.5727 0.645583C28.4594 0.762793 28.3958 0.921764 28.3958 1.08752V11.9125L26.4383 14.0063H8.1864C8.07648 14.0072 7.96889 14.0391 7.8752 14.0986C7.78152 14.158 7.70529 14.2428 7.65473 14.3438L0.519521 29.1125C0.477458 29.2064 0.458603 29.3097 0.46465 29.413C0.470697 29.5163 0.501456 29.6165 0.554165 29.7045C0.606874 29.7925 0.679883 29.8655 0.766634 29.9171C0.853386 29.9687 0.951164 29.9972 1.05119 30H3.4316V55.8375H1.05119C0.890953 55.8375 0.737281 55.9034 0.623978 56.0206C0.510675 56.1378 0.447021 56.2968 0.447021 56.4625V58.925C0.447021 59.0908 0.510675 59.2498 0.623978 59.367C0.737281 59.4842 0.890953 59.55 1.05119 59.55H56.9487C57.1089 59.55 57.2626 59.4842 57.3759 59.367C57.4892 59.2498 57.5529 59.0908 57.5529 58.925V56.45C57.5497 56.2864 57.4846 56.1307 57.3717 56.0161C57.2587 55.9016 57.1069 55.8375 56.9487 55.8375ZM49.4449 15.2125L55.9881 28.75H45.3487L32.7035 15.2375L49.4449 15.2125ZM28.9999 13.0438L44.8412 30H42.4729L29.4289 16.0375C29.3727 15.9789 29.3059 15.9324 29.2323 15.9007C29.1587 15.869 29.0797 15.8526 28.9999 15.8526C28.9202 15.8526 28.8412 15.869 28.7676 15.9007C28.694 15.9324 28.6271 15.9789 28.571 16.0375L15.527 30H13.1587L28.9999 13.0438ZM36.7272 6.62502H29.6041V1.70627H36.7272V6.62502ZM8.55494 15.2375H25.2964L12.6512 28.75H2.01181L8.55494 15.2375ZM4.62181 30H11.4791L11.3039 30.1875C11.2192 30.2768 11.1623 30.3902 11.1406 30.5133C11.1189 30.6363 11.1334 30.7633 11.1822 30.8777C11.231 30.9921 11.3119 31.0888 11.4143 31.1552C11.5168 31.2215 11.6362 31.2546 11.757 31.25H15.7808C15.8607 31.2497 15.9398 31.2329 16.0134 31.2007C16.087 31.1686 16.1538 31.1216 16.2097 31.0625L28.9999 17.35L41.7901 31.0438C41.8461 31.1028 41.9128 31.1498 41.9865 31.182C42.0601 31.2142 42.1392 31.2309 42.2191 31.2313H46.2429C46.3581 31.2275 46.4698 31.1897 46.5649 31.1223C46.66 31.0549 46.7345 30.9608 46.7796 30.8511C46.8247 30.7414 46.8385 30.6206 46.8194 30.503C46.8003 30.3855 46.7491 30.276 46.6718 30.1875L46.5208 30H53.3781V55.8375H36.1351V44.7625C36.1351 44.5968 36.0715 44.4378 35.9582 44.3206C35.8449 44.2034 35.6912 44.1375 35.531 44.1375H22.4568C22.2966 44.1375 22.1429 44.2034 22.0296 44.3206C21.9163 44.4378 21.8526 44.5968 21.8526 44.7625V55.8375H4.62181V30ZM23.0549 55.8375V45.3813H28.3958V55.8375H23.0549ZM29.6041 45.3813H34.957V55.8375H29.6041V45.3813ZM56.3506 58.2938H1.64931V57.0438H56.3506V58.2938Z" fill="#39426A"/>
<path d="M38.5155 41.6875H42.6783C42.8385 41.6875 42.9922 41.6217 43.1055 41.5044C43.2188 41.3872 43.2824 41.2283 43.2824 41.0625V34.9188C43.2824 34.753 43.2188 34.594 43.1055 34.4768C42.9922 34.3596 42.8385 34.2938 42.6783 34.2938H38.5155C38.3553 34.2938 38.2016 34.3596 38.0883 34.4768C37.975 34.594 37.9114 34.753 37.9114 34.9188V41.075C37.9145 41.2386 37.9796 41.3944 38.0925 41.5089C38.2055 41.6234 38.3574 41.6875 38.5155 41.6875ZM39.1197 35.5375H42.0922V40.4563H39.1076L39.1197 35.5375Z" fill="#39426A"/>
<path d="M30.2083 34.9188V41.075C30.2083 41.2408 30.2719 41.3997 30.3852 41.517C30.4985 41.6342 30.6522 41.7 30.8124 41.7H34.9751C35.1354 41.7 35.289 41.6342 35.4023 41.517C35.5156 41.3997 35.5793 41.2408 35.5793 41.075V34.9188C35.5793 34.753 35.5156 34.594 35.4023 34.4768C35.289 34.3596 35.1354 34.2938 34.9751 34.2938H30.8124C30.6522 34.2938 30.4985 34.3596 30.3852 34.4768C30.2719 34.594 30.2083 34.753 30.2083 34.9188ZM31.4166 35.5438H34.3891V40.4625H31.3803L31.4166 35.5438Z" fill="#39426A"/>
<path d="M23.0551 41.6875H27.2178C27.378 41.6875 27.5317 41.6217 27.645 41.5044C27.7583 41.3872 27.822 41.2283 27.822 41.0625V34.9188C27.822 34.753 27.7583 34.594 27.645 34.4768C27.5317 34.3596 27.378 34.2938 27.2178 34.2938H23.0551C22.8949 34.2938 22.7412 34.3596 22.6279 34.4768C22.5146 34.594 22.4509 34.753 22.4509 34.9188V41.075C22.4541 41.2386 22.5191 41.3944 22.6321 41.5089C22.7451 41.6234 22.8969 41.6875 23.0551 41.6875ZM23.6593 35.5375H26.6318V40.4563H23.6472L23.6593 35.5375Z" fill="#39426A"/>
<path d="M46.2428 41.6875H50.4055C50.5658 41.6875 50.7195 41.6217 50.8328 41.5044C50.9461 41.3872 51.0097 41.2283 51.0097 41.0625V34.9188C51.0097 34.753 50.9461 34.594 50.8328 34.4768C50.7195 34.3596 50.5658 34.2938 50.4055 34.2938H46.2428C46.0826 34.2938 45.9289 34.3596 45.8156 34.4768C45.7023 34.594 45.6387 34.753 45.6387 34.9188V41.075C45.6418 41.2386 45.7069 41.3944 45.8198 41.5089C45.9328 41.6234 46.0847 41.6875 46.2428 41.6875ZM46.847 35.5375H49.8195V40.4563H46.841L46.847 35.5375Z" fill="#39426A"/>
<path d="M38.5155 51.5313H42.6783C42.8385 51.5313 42.9922 51.4654 43.1055 51.3482C43.2188 51.231 43.2824 51.072 43.2824 50.9063V44.7625C43.2824 44.5968 43.2188 44.4378 43.1055 44.3206C42.9922 44.2034 42.8385 44.1375 42.6783 44.1375H38.5155C38.3553 44.1375 38.2016 44.2034 38.0883 44.3206C37.975 44.4378 37.9114 44.5968 37.9114 44.7625V50.9125C37.913 51.0772 37.9773 51.2346 38.0905 51.3504C38.2036 51.4663 38.3563 51.5313 38.5155 51.5313ZM39.1197 45.3813H42.0922V50.3H39.1076L39.1197 45.3813Z" fill="#39426A"/>
<path d="M46.2428 51.5313H50.4055C50.5658 51.5313 50.7195 51.4654 50.8328 51.3482C50.9461 51.231 51.0097 51.072 51.0097 50.9063V44.7625C51.0097 44.5968 50.9461 44.4378 50.8328 44.3206C50.7195 44.2034 50.5658 44.1375 50.4055 44.1375H46.2428C46.0826 44.1375 45.9289 44.2034 45.8156 44.3206C45.7023 44.4378 45.6387 44.5968 45.6387 44.7625V50.9125C45.6403 51.0772 45.7046 51.2346 45.8177 51.3504C45.9309 51.4663 46.0836 51.5313 46.2428 51.5313ZM46.847 45.3813H49.8195V50.3H46.841L46.847 45.3813Z" fill="#39426A"/>
<path d="M11.7571 34.3063H7.5944C7.43417 34.3063 7.28049 34.3721 7.16719 34.4893C7.05389 34.6065 6.99023 34.7655 6.99023 34.9313V41.0875C6.99023 41.2533 7.05389 41.4123 7.16719 41.5295C7.28049 41.6467 7.43417 41.7125 7.5944 41.7125H11.7571C11.9173 41.7125 12.071 41.6467 12.1843 41.5295C12.2976 41.4123 12.3613 41.2533 12.3613 41.0875V34.9188C12.3581 34.7552 12.2931 34.5994 12.1801 34.4849C12.0671 34.3704 11.9153 34.3062 11.7571 34.3063ZM11.1529 40.4563H8.18648V35.5375H11.159L11.1529 40.4563Z" fill="#39426A"/>
<path d="M19.4844 34.3063H15.3217C15.1615 34.3063 15.0078 34.3721 14.8945 34.4893C14.7812 34.6065 14.7175 34.7655 14.7175 34.9313V41.0875C14.7175 41.2533 14.7812 41.4123 14.8945 41.5295C15.0078 41.6467 15.1615 41.7125 15.3217 41.7125H19.4844C19.6446 41.7125 19.7983 41.6467 19.9116 41.5295C20.0249 41.4123 20.0886 41.2533 20.0886 41.0875V34.9188C20.0854 34.7552 20.0204 34.5994 19.9074 34.4849C19.7944 34.3704 19.6426 34.3062 19.4844 34.3063ZM18.8802 40.4563H15.9198V35.5375H18.8923L18.8802 40.4563Z" fill="#39426A"/>
<path d="M11.7571 44.15H7.5944C7.43417 44.15 7.28049 44.2159 7.16719 44.3331C7.05389 44.4503 6.99023 44.6093 6.99023 44.775V50.925C6.99023 51.0908 7.05389 51.2498 7.16719 51.367C7.28049 51.4842 7.43417 51.55 7.5944 51.55H11.7571C11.9173 51.55 12.071 51.4842 12.1843 51.367C12.2976 51.2498 12.3613 51.0908 12.3613 50.925V44.7625C12.3581 44.5989 12.2931 44.4432 12.1801 44.3286C12.0671 44.2141 11.9153 44.15 11.7571 44.15ZM11.1529 50.3H8.18648V45.3813H11.159L11.1529 50.3Z" fill="#39426A"/>
<path d="M19.4844 44.15H15.3217C15.1615 44.15 15.0078 44.2159 14.8945 44.3331C14.7812 44.4503 14.7175 44.6093 14.7175 44.775V50.925C14.7175 51.0908 14.7812 51.2498 14.8945 51.367C15.0078 51.4842 15.1615 51.55 15.3217 51.55H19.4844C19.6446 51.55 19.7983 51.4842 19.9116 51.367C20.0249 51.2498 20.0886 51.0908 20.0886 50.925V44.7625C20.0854 44.5989 20.0204 44.4432 19.9074 44.3286C19.7944 44.2141 19.6426 44.15 19.4844 44.15ZM18.8802 50.3H15.9198V45.3813H18.8923L18.8802 50.3Z" fill="#39426A"/>
<path d="M28.9999 31.875C29.9403 31.875 30.8596 31.5865 31.6415 31.046C32.4234 30.5055 33.0329 29.7373 33.3928 28.8386C33.7526 27.9398 33.8468 26.9508 33.6633 25.9966C33.4799 25.0425 33.027 24.166 32.3621 23.4781C31.6971 22.7902 30.8499 22.3218 29.9275 22.132C29.0052 21.9422 28.0492 22.0396 27.1803 22.4119C26.3115 22.7842 25.5689 23.4146 25.0464 24.2235C24.524 25.0324 24.2451 25.9834 24.2451 26.9562C24.2467 28.2603 24.7482 29.5104 25.6395 30.4325C26.5309 31.3546 27.7393 31.8733 28.9999 31.875ZM28.9999 23.2625C29.7061 23.2625 30.3965 23.4791 30.9836 23.885C31.5708 24.2909 32.0285 24.8677 32.2987 25.5427C32.569 26.2176 32.6397 26.9603 32.5019 27.6768C32.3642 28.3934 32.0241 29.0515 31.5247 29.5681C31.0254 30.0847 30.3891 30.4365 29.6965 30.579C29.0039 30.7215 28.2859 30.6484 27.6335 30.3688C26.981 30.0892 26.4234 29.6158 26.031 29.0084C25.6387 28.4009 25.4293 27.6868 25.4293 26.9562C25.4261 26.4688 25.5161 25.9855 25.694 25.5341C25.8719 25.0827 26.1344 24.6721 26.4662 24.326C26.798 23.9798 27.1926 23.7049 27.6274 23.517C28.0623 23.3292 28.5287 23.232 28.9999 23.2312V23.2625Z" fill="#39426A"/>
<path d="M29 27.5375H30.8125C30.9728 27.5375 31.1264 27.4716 31.2397 27.3544C31.353 27.2372 31.4167 27.0782 31.4167 26.9125C31.4167 26.7467 31.353 26.5877 31.2397 26.4705C31.1264 26.3533 30.9728 26.2875 30.8125 26.2875H29.6042V24.4125C29.6042 24.2467 29.5405 24.0877 29.4272 23.9705C29.3139 23.8533 29.1603 23.7875 29 23.7875C28.8398 23.7875 28.6861 23.8533 28.5728 23.9705C28.4595 24.0877 28.3959 24.2467 28.3959 24.4125V26.875C28.3909 26.9602 28.4029 27.0455 28.431 27.1257C28.4592 27.2059 28.5029 27.2793 28.5595 27.3414C28.6161 27.4034 28.6844 27.4529 28.7601 27.4866C28.8359 27.5203 28.9175 27.5376 29 27.5375Z" fill="#39426A"/>
</svg>
