<svg width="44" height="36" viewBox="0 0 44 36" fill="none" xmlns="http://www.w3.org/2000/svg">
<path fill-rule="evenodd" clip-rule="evenodd" d="M10.4643 32.841L0.552246 22L3.34937 19L10.8084 24L32.253 0L35.0501 2L13.2792 32.653C12.9511 33.1148 12.4521 33.4009 11.9118 33.437C11.3715 33.4731 10.8433 33.2556 10.4643 32.841Z" fill="white"/>
<path opacity="0.497489" fill-rule="evenodd" clip-rule="evenodd" d="M42.509 9H37.8472C37.3322 9 36.9148 8.55228 36.9148 8C36.9148 7.44772 37.3322 7 37.8472 7H42.509C43.024 7 43.4414 7.44772 43.4414 8C43.4414 8.55228 43.024 9 42.509 9Z" fill="white"/>
<path opacity="0.497489" fill-rule="evenodd" clip-rule="evenodd" d="M42.5093 18H31.3208C30.8059 18 30.3884 17.5523 30.3884 17C30.3884 16.4477 30.8059 16 31.3208 16H42.5093C43.0242 16 43.4417 16.4477 43.4417 17C43.4417 17.5523 43.0242 18 42.5093 18Z" fill="white"/>
<path opacity="0.497489" fill-rule="evenodd" clip-rule="evenodd" d="M42.5091 27H24.7939C24.279 27 23.8616 26.5523 23.8616 26C23.8616 25.4477 24.279 25 24.7939 25H42.5091C43.024 25 43.4414 25.4477 43.4414 26C43.4414 26.5523 43.024 27 42.5091 27Z" fill="white"/>
<path opacity="0.497489" fill-rule="evenodd" clip-rule="evenodd" d="M42.5091 36H18.2673C17.7524 36 17.335 35.5523 17.335 35C17.335 34.4477 17.7524 34 18.2673 34H42.5091C43.024 34 43.4415 34.4477 43.4415 35C43.4415 35.5523 43.024 36 42.5091 36Z" fill="white"/>
</svg>
