<svg width="59" height="61" viewBox="0 0 59 61" fill="none" xmlns="http://www.w3.org/2000/svg">
<g clip-path="url(#clip0)">
<path d="M43.4422 12.8563C43.7626 12.8563 44.07 12.988 44.2966 13.2224C44.5232 13.4568 44.6505 13.7747 44.6505 14.1063V16.5688H42.252V14.0875C42.2566 13.7625 42.3835 13.4521 42.6057 13.2222C42.8279 12.9924 43.128 12.8611 43.4422 12.8563Z" fill="#F6B756"/>
<path d="M39.2793 1.78131H20.248V10.3938H39.2793V1.78131Z" fill="#7190C4"/>
<path d="M39.2793 1.78131V8.55006H24.4108C24.0984 8.55006 23.7892 8.48632 23.5007 8.3625C23.2123 8.23867 22.9502 8.05718 22.7297 7.82844C22.5091 7.59969 22.3344 7.32818 22.2154 7.02945C22.0964 6.73072 22.0356 6.41065 22.0364 6.08756V1.78131H39.2793Z" fill="#89A3CE"/>
<path d="M39.8714 17.775H19.656V20.2375H39.8714V17.775Z" fill="#5C5F7D"/>
<path d="M20.9369 20.0688H21.674V24.6313H20.9369C20.352 24.6313 19.7911 24.3909 19.3776 23.9631C18.964 23.5353 18.7317 22.9551 18.7317 22.35C18.7317 21.745 18.964 21.1648 19.3776 20.7369C19.7911 20.3091 20.352 20.0688 20.9369 20.0688Z" fill="#EAD4C6"/>
<path d="M38.6146 24.5813H37.8775V20.0188H38.6146C39.1995 20.0188 39.7604 20.2591 40.1739 20.687C40.5875 21.1148 40.8198 21.695 40.8198 22.3C40.8198 22.9051 40.5875 23.4853 40.1739 23.9131C39.7604 24.341 39.1995 24.5813 38.6146 24.5813Z" fill="#EAD4C6"/>
<path d="M40.0587 24.0188H19.4626V35.2563H40.0587V24.0188Z" fill="#5C5F7D"/>
<path d="M40.0647 24.0188V33.3938H23.6254C23.313 33.3938 23.0038 33.3301 22.7153 33.2062C22.4269 33.0824 22.1648 32.9009 21.9443 32.6722C21.7237 32.4434 21.549 32.1719 21.43 31.8732C21.311 31.5745 21.2502 31.2544 21.251 30.9313V24.0188H40.0647Z" fill="#6A6E86"/>
<path d="M37.8596 13.6V23.85C37.8584 25.5355 37.3659 27.1813 36.4465 28.5728C35.5272 29.9643 34.2236 31.0367 32.7061 31.65C31.2425 32.2453 29.6427 32.3849 28.1034 32.0518C26.5641 31.7187 25.1525 30.9273 24.0423 29.775C23.2895 29 22.6922 28.0786 22.2847 27.0639C21.8772 26.0493 21.6676 24.9613 21.668 23.8625V13.6H37.8596Z" fill="#F2E1D7"/>
<path d="M37.8596 13.6V22C37.8592 23.6857 37.3671 25.3319 36.4476 26.7236C35.5281 28.1152 34.2241 29.1874 32.7061 29.8C31.2422 30.3929 29.6429 30.5312 28.1041 30.1982C26.5653 29.8652 25.1538 29.0752 24.0423 27.925C23.2893 27.1488 22.6919 26.2264 22.2845 25.2107C21.877 24.195 21.6675 23.106 21.668 22.0063V13.6H37.8596Z" fill="#F4E8DE"/>
<path d="M40.0647 14.7188V18.5188H33.0624C31.2154 18.5188 29.4439 17.7606 28.1367 16.4107C26.8295 15.0608 26.0936 13.2295 26.0904 11.3188V12.4563C26.0887 13.8068 25.6535 15.1184 24.853 16.1852C24.0525 17.252 22.9321 18.0135 21.6679 18.35L19.4626 18.5375V14.4125C19.4992 12.8951 20.1009 11.4508 21.1422 10.3813C21.2208 10.3063 21.2872 10.2313 21.3537 10.175H26.0783C26.0845 10.229 26.0845 10.2836 26.0783 10.3375C26.0751 10.2834 26.0751 10.2292 26.0783 10.175H38.5845C39.5429 11.4826 40.0626 13.0779 40.0647 14.7188Z" fill="#5C5F7D"/>
<path d="M26.0904 10.1563V10.5938C26.0885 11.9435 25.653 13.2542 24.8524 14.3199C24.0519 15.3857 22.9317 16.146 21.6679 16.4813L19.4929 16.6751V14.3938C19.5295 12.8763 20.1312 11.4321 21.1725 10.3626C21.251 10.2876 21.3175 10.2126 21.384 10.1563H26.0904Z" fill="#6A6E86"/>
<path d="M40.0647 14.7188V16.6751H33.0624C31.3322 16.6709 29.6652 16.0014 28.3856 14.7967C27.106 13.5919 26.3051 11.9379 26.1387 10.1563H38.5845C39.5466 11.469 40.0665 13.0715 40.0647 14.7188Z" fill="#6A6E86"/>
<path d="M37.6541 14.8126C37.5075 14.814 37.3654 14.7603 37.2543 14.6615C37.1431 14.5626 37.0705 14.4252 37.05 14.2751C36.9446 13.0028 36.5151 11.7822 35.8054 10.7376C35.7514 10.6026 35.7449 10.4524 35.7868 10.313C35.8287 10.1736 35.9165 10.0537 36.035 9.97427C36.1534 9.89482 36.295 9.86078 36.4351 9.87804C36.5753 9.89531 36.7052 9.96281 36.8023 10.0688C37.62 11.2736 38.1198 12.6781 38.2523 14.1438C38.2606 14.2255 38.2534 14.3081 38.2309 14.3868C38.2084 14.4656 38.1711 14.539 38.1212 14.6028C38.0712 14.6667 38.0096 14.7197 37.9398 14.7589C37.8701 14.7981 37.7935 14.8227 37.7146 14.8313L37.6541 14.8126Z" fill="#797C92"/>
<path d="M47.1939 60.2188H12.3335L14.436 45.0688C14.7403 42.5769 15.832 40.2588 17.5414 38.475H41.986C43.6954 40.2588 44.7871 42.5769 45.0914 45.0688L47.0187 58.9813L47.1939 60.2188Z" fill="#7190C4"/>
<path d="M47.0187 58.9875H18.2362C17.7247 58.9884 17.219 58.8754 16.7534 58.6562C16.2879 58.437 15.8734 58.1167 15.5381 57.7171C15.2028 57.3175 14.9546 56.8479 14.8103 56.3403C14.666 55.8326 14.629 55.2988 14.7018 54.775L16.2183 43.8188C16.4539 41.8859 17.1653 40.048 18.2845 38.4813H41.9679C43.6827 40.2607 44.7809 42.5767 45.0914 45.0688L47.0187 58.9875Z" fill="#89A3CE"/>
<path d="M44.2636 57.1438C44.1188 57.1457 43.9781 57.0938 43.8672 56.9974C43.7563 56.9011 43.6826 56.7667 43.6594 56.6188L42.143 45.4813C41.9628 43.9607 41.3818 42.5206 40.4634 41.3188C40.3953 41.2593 40.3407 41.185 40.3037 41.1011C40.2666 41.0173 40.248 40.9259 40.2491 40.8338C40.2501 40.7416 40.2709 40.6507 40.3099 40.5678C40.3489 40.4849 40.4052 40.412 40.4746 40.3542C40.5441 40.2964 40.6251 40.2553 40.7117 40.2337C40.7984 40.2121 40.8886 40.2106 40.9759 40.2293C41.0631 40.248 41.1453 40.2865 41.2165 40.342C41.2877 40.3974 41.3462 40.4685 41.3877 40.5501C42.4429 41.9213 43.1119 43.5671 43.3211 45.3063L44.8677 56.4438C44.8868 56.605 44.8446 56.7675 44.7498 56.897C44.6551 57.0265 44.5154 57.1128 44.3602 57.1376L44.2636 57.1438Z" fill="#A5B9DB"/>
<path d="M37.497 42.9938H22.0364V60.2188H37.497V42.9938Z" fill="#89A3CE"/>
<path d="M37.4909 47.4688V56.5313C37.4909 57.1828 37.2407 57.8075 36.7955 58.2681C36.3502 58.7288 35.7462 58.9876 35.1165 58.9876H26.193C25.5633 58.9876 24.9593 58.7288 24.514 58.2681C24.0688 57.8075 23.8186 57.1828 23.8186 56.5313V52.5313C23.8179 52.0509 23.9208 51.5764 24.1197 51.1423C24.3187 50.7081 24.6087 50.3254 24.9687 50.0219C25.3286 49.7183 25.7495 49.5016 26.2006 49.3876C26.6518 49.2735 27.1218 49.265 27.5765 49.3626H27.6671C28.1025 49.4126 28.5401 49.4397 28.9782 49.4438C32.1621 49.4438 31.2317 49.5063 34.6936 48.7813C35.6703 48.4528 36.6086 48.0126 37.4909 47.4688Z" fill="#A5B9DB"/>
<path d="M41.992 38.45C41.9926 38.4604 41.9926 38.4709 41.992 38.4813C41.4858 40.4559 40.5112 42.2686 39.1566 43.755C37.802 45.2415 36.1102 46.3547 34.2345 46.9938L31.5762 47.5688C31.2369 47.6043 30.8961 47.621 30.5551 47.6188H28.9782C28.6218 47.6188 28.2714 47.6188 27.927 47.5688L25.2445 46.9875C23.3788 46.3426 21.6977 45.2273 20.3529 43.7423C19.0081 42.2573 18.0418 40.4492 17.5414 38.4813C17.5408 38.4709 17.5408 38.4604 17.5414 38.45C17.4033 37.8677 17.4786 37.2532 17.7528 36.725C17.9652 36.3227 18.2778 35.9865 18.6581 35.7514C19.0384 35.5162 19.4727 35.3905 19.9157 35.3875H39.6176C40.0607 35.3905 40.4949 35.5162 40.8753 35.7514C41.2556 35.9865 41.5682 36.3227 41.7805 36.725C42.0547 37.2532 42.1301 37.8677 41.992 38.45Z" fill="#F6B756"/>
<path d="M41.7806 36.725C41.2003 38.5459 40.2153 40.2006 38.9048 41.5563C37.5943 42.912 35.9947 43.9309 34.2345 44.5313L31.5762 45.0688C31.237 45.1043 30.8961 45.121 30.5552 45.1188H28.9783C28.6218 45.1188 28.2714 45.1188 27.927 45.0688L25.2445 44.4938C23.4974 43.8901 21.9103 42.8738 20.6089 41.5253C19.3075 40.1768 18.3276 38.5333 17.7468 36.725C17.9582 36.3219 18.2705 35.9849 18.6511 35.7496C19.0316 35.5143 19.4664 35.3892 19.9097 35.3875H39.6177C40.061 35.3892 40.4958 35.5143 40.8763 35.7496C41.2569 35.9849 41.5692 36.3219 41.7806 36.725Z" fill="#FAC77D"/>
<path d="M41.116 35.9188C40.4171 37.363 39.4495 38.6502 38.2686 39.7066C37.0877 40.7631 35.7168 41.5679 34.2345 42.075L31.5762 42.6313C31.2369 42.6668 30.8961 42.6835 30.5551 42.6813H28.9783C28.6218 42.6813 28.2714 42.6813 27.927 42.6313L25.2445 42.0563C22.2712 41.0269 19.8138 38.8197 18.4114 35.9188C18.8403 35.5752 19.3672 35.3883 19.9097 35.3875H39.6176C40.1601 35.3883 40.687 35.5752 41.116 35.9188Z" fill="#FFD69E"/>
<path d="M32.7059 31.6438V36.0188C31.9253 36.8256 30.867 37.2788 29.7636 37.2788C28.6601 37.2788 27.6019 36.8256 26.8213 36.0188V31.6438C28.7144 32.4019 30.8128 32.4019 32.7059 31.6438Z" fill="#EAD4C6"/>
<path d="M26.8758 52.1813L25.2446 46.975L21.6135 35.3875H24.1087L27.9271 47.5563L28.9904 50.9438L30.531 50.9375L31.5702 47.5563L35.316 35.3875H37.8112L34.2346 46.9938L32.6396 52.1688L26.8758 52.1813Z" fill="#CF4055"/>
<path d="M29.7636 59.0126C31.9392 59.0126 33.7028 57.1881 33.7028 54.9376C33.7028 52.687 31.9392 50.8625 29.7636 50.8625C27.5881 50.8625 25.8245 52.687 25.8245 54.9376C25.8245 57.1881 27.5881 59.0126 29.7636 59.0126Z" fill="#F6B756"/>
<path d="M29.7637 56.7813C30.7481 56.7813 31.546 55.9558 31.546 54.9376C31.546 53.9193 30.7481 53.0938 29.7637 53.0938C28.7794 53.0938 27.9814 53.9193 27.9814 54.9376C27.9814 55.9558 28.7794 56.7813 29.7637 56.7813Z" fill="#FAC77D"/>
<path d="M29.7636 29.4063C30.1912 29.4064 30.6147 29.3193 31.0097 29.1498C31.4047 28.9803 31.7635 28.7319 32.0655 28.4188C32.1351 28.2983 32.1635 28.1571 32.1461 28.0179C32.1286 27.8787 32.0664 27.7496 31.9694 27.6514C31.8724 27.5532 31.7463 27.4917 31.6114 27.4767C31.4765 27.4617 31.3406 27.4942 31.2257 27.5688C30.8374 27.9688 30.3116 28.1933 29.7636 28.1933C29.2156 28.1933 28.6899 27.9688 28.3016 27.5688C28.1852 27.4865 28.0448 27.4488 27.9045 27.4623C27.7642 27.4758 27.6328 27.5396 27.5332 27.6427C27.4335 27.7457 27.3718 27.8816 27.3588 28.0268C27.3458 28.1719 27.3822 28.3172 27.4618 28.4375C28.0747 29.0631 28.9026 29.4115 29.7636 29.4063Z" fill="#39426A"/>
<path d="M45.6834 44.7813C45.3609 42.3363 44.2895 40.0627 42.6264 38.2938C42.6801 37.8881 42.6542 37.4753 42.5504 37.0802C42.4466 36.685 42.267 36.3156 42.0222 35.9938C41.6637 35.5225 41.1843 35.1651 40.6386 34.9625V24.2625C41.1086 23.7332 41.3694 23.0406 41.3694 22.3219C41.3694 21.6032 41.1086 20.9106 40.6386 20.3813V14.7188C40.6418 13.3082 40.2899 11.921 39.6176 10.6938C39.7063 10.6409 39.7806 10.5655 39.8334 10.4748C39.8863 10.384 39.916 10.2809 39.9197 10.175V2.40002H42.8439V12.35C42.4951 12.4775 42.1925 12.7123 41.9765 13.0229C41.7605 13.3335 41.6415 13.705 41.6355 14.0875V16.5438C41.6355 16.7095 41.6992 16.8685 41.8125 16.9857C41.9258 17.1029 42.0795 17.1688 42.2397 17.1688H44.6201C44.7803 17.1688 44.934 17.1029 45.0473 16.9857C45.1606 16.8685 45.2243 16.7095 45.2243 16.5438V14.0875C45.2183 13.705 45.0993 13.3335 44.8833 13.0229C44.6673 12.7123 44.3647 12.4775 44.0159 12.35V2.40002H45.9251C46.0853 2.40002 46.239 2.33418 46.3523 2.21697C46.4656 2.09976 46.5293 1.94078 46.5293 1.77502C46.5293 1.60926 46.4656 1.45029 46.3523 1.33308C46.239 1.21587 46.0853 1.15002 45.9251 1.15002H13.5841C13.4238 1.15002 13.2702 1.21587 13.1568 1.33308C13.0435 1.45029 12.9799 1.60926 12.9799 1.77502C12.9799 1.94078 13.0435 2.09976 13.1568 2.21697C13.2702 2.33418 13.4238 2.40002 13.5841 2.40002H19.6257V10.1563C19.6311 10.2915 19.6788 10.4213 19.7616 10.5262C19.8444 10.631 19.9578 10.7051 20.0849 10.7375C19.3016 11.8366 18.8782 13.1658 18.8766 14.5313V20.3813C18.4066 20.9106 18.1458 21.6032 18.1458 22.3219C18.1458 23.0406 18.4066 23.7332 18.8766 24.2625V34.9625C18.3375 35.1682 17.8647 35.5253 17.5111 35.9938C17.2663 36.3156 17.0867 36.685 16.9829 37.0802C16.8791 37.4753 16.8533 37.8881 16.907 38.2938C15.2465 40.0596 14.1753 42.3284 13.8499 44.7688L11.7474 59.4438C11.7329 59.6001 11.7758 59.7563 11.8676 59.8814C11.9594 60.0065 12.0934 60.0912 12.2428 60.1188H12.3334C12.4774 60.1209 12.6173 60.0699 12.7281 59.9748C12.8388 59.8797 12.9131 59.7468 12.9376 59.6L15.022 44.9375C15.2754 42.9984 16.0594 41.1747 17.2816 39.6813C18.0853 42.023 19.5294 44.0727 21.4382 45.5813V59.6063C21.4382 59.772 21.5019 59.931 21.6152 60.0482C21.7285 60.1654 21.8822 60.2313 22.0424 60.2313C22.2026 60.2313 22.3563 60.1654 22.4696 60.0482C22.5829 59.931 22.6466 59.772 22.6466 59.6063V46.4125C23.3245 46.8307 24.041 47.1782 24.7853 47.45L26.2232 52.0438C25.6946 52.7345 25.3648 53.5653 25.2717 54.4409C25.1785 55.3166 25.3258 56.2017 25.6966 56.9948C26.0675 57.7878 26.6468 58.4567 27.3683 58.9248C28.0898 59.3928 28.9241 59.6411 29.7757 59.6411C30.6273 59.6411 31.4617 59.3928 32.1832 58.9248C32.9046 58.4567 33.484 57.7878 33.8548 56.9948C34.2256 56.2017 34.3729 55.3166 34.2798 54.4409C34.1867 53.5653 33.8569 52.7345 33.3282 52.0438L34.7299 47.4875C35.4921 47.2115 36.2249 46.8555 36.917 46.425V59.6063C36.917 59.772 36.9806 59.931 37.0939 60.0482C37.2072 60.1654 37.3609 60.2313 37.5211 60.2313C37.6814 60.2313 37.8351 60.1654 37.9484 60.0482C38.0617 59.931 38.1253 59.772 38.1253 59.6063V45.5688C38.5527 45.2298 38.9564 44.8601 39.3336 44.4625C40.6347 43.108 41.6311 41.4734 42.2518 39.675C43.4793 41.1729 44.2656 43.0037 44.5174 44.95L46.6138 59.6063C46.6383 59.753 46.7126 59.8859 46.8234 59.981C46.9341 60.0761 47.0741 60.1272 47.218 60.125H47.2845C47.4351 60.0974 47.5699 60.0118 47.6619 59.8853C47.7538 59.7589 47.796 59.6011 47.7799 59.4438L45.6834 44.7813ZM43.442 13.4688C43.6022 13.4688 43.7559 13.5346 43.8692 13.6518C43.9825 13.769 44.0461 13.928 44.0461 14.0938V15.9375H42.8378V14.0875C42.8394 13.9228 42.9038 13.7655 43.0169 13.6496C43.13 13.5338 43.2828 13.4688 43.442 13.4688ZM40.1976 22.3188C40.1984 22.5379 40.1575 22.7551 40.0771 22.9579C39.9968 23.1606 39.8786 23.3451 39.7294 23.5006C39.5802 23.6561 39.4028 23.7797 39.2074 23.8644C39.012 23.949 38.8024 23.993 38.5905 23.9938H38.4516V20.6563H38.5905C39.0163 20.6579 39.4241 20.8336 39.7251 21.145C40.0262 21.4565 40.196 21.8784 40.1976 22.3188ZM30.5309 46.9875H28.9782H28.3741L24.9303 36H26.2232C26.2255 36.1649 26.2906 36.3221 26.4045 36.4375C27.2959 37.3581 28.5041 37.8751 29.7636 37.8751C31.0232 37.8751 32.2314 37.3581 33.1228 36.4375C33.2366 36.3221 33.3018 36.1649 33.3041 36H34.5124L31.123 46.9438C30.972 46.9813 30.7545 46.9875 30.5491 46.9875H30.5309ZM30.7243 48.2375L30.1201 50.2938C30.0034 50.2875 29.8864 50.2875 29.7697 50.2938C29.6488 50.2938 29.528 50.2938 29.4072 50.2938L28.7607 48.1938H30.7424L30.7243 48.2375ZM28.368 31.4938C28.1324 31.4438 27.9088 31.3938 27.6793 31.325C27.4554 31.262 27.2354 31.1848 27.0207 31.0938C25.6137 30.5297 24.4046 29.5382 23.5527 28.2497C22.7008 26.9612 22.2459 25.4361 22.2478 23.875V18.8188C23.165 18.4992 24.0013 17.9713 24.6955 17.2737C25.3897 16.5761 25.9241 15.7266 26.2595 14.7875C26.8842 16.0982 27.8504 17.2023 29.0492 17.9753C30.248 18.7483 31.6317 19.1595 33.0443 19.1625H37.2432V23.875C37.2455 25.4297 36.7932 26.9487 35.9457 28.2326C35.0982 29.5165 33.8951 30.5052 32.4945 31.0688C31.187 31.5921 29.765 31.7306 28.3861 31.4688L28.368 31.4938ZM32.0957 32.5188V35.7563C31.4438 36.3424 30.6092 36.6651 29.7455 36.6651C28.8818 36.6651 28.0472 36.3424 27.3953 35.7563V32.4938C27.6249 32.5625 27.8484 32.6125 28.072 32.6625L28.2834 32.7C28.4526 32.7 28.6218 32.7563 28.797 32.775H29.0386C29.2501 32.775 29.4616 32.8063 29.673 32.8063H29.818C30.0295 32.8063 30.2409 32.8063 30.4524 32.775H30.6941C30.8693 32.775 31.0384 32.7313 31.2076 32.7L31.4191 32.6625C31.6607 32.6125 31.8843 32.5688 32.1139 32.4938L32.0957 32.5188ZM23.6193 30.2C24.3717 30.9732 25.2541 31.598 26.2232 32.0438V34.6438H20.0607V25.0688C20.3425 25.1708 20.6383 25.2256 20.9368 25.2313H21.1905C21.4668 27.1132 22.3179 28.8543 23.6193 30.2ZM33.2859 34.6438V32.05C34.6143 31.4439 35.7732 30.5005 36.6551 29.3074C37.537 28.1142 38.1134 26.71 38.3307 25.225H38.5724C38.8767 25.2234 39.1786 25.1706 39.4666 25.0688V34.6438H33.2859ZM39.4484 19.5875C39.1714 19.4939 38.882 19.4454 38.5905 19.4438H38.4516V18.5188C38.4516 18.353 38.3879 18.194 38.2746 18.0768C38.1613 17.9596 38.0076 17.8938 37.8474 17.8938H33.0624C31.3755 17.8905 29.7582 17.1975 28.5631 15.9659C27.368 14.7343 26.692 13.0638 26.6824 11.3188V10.7875H38.2703C39.0561 11.9443 39.4781 13.3236 39.4786 14.7375L39.4484 19.5875ZM20.7978 2.40002H38.7295V9.53752H20.7978V2.40002ZM20.0607 14.5313C20.0589 13.8326 20.1928 13.1407 20.4543 12.4965C20.7158 11.8524 21.0997 11.2691 21.5832 10.7813H25.4741V12.45C25.4749 13.6623 25.0859 14.8403 24.3684 15.7987C23.6508 16.7571 22.6455 17.4414 21.5107 17.7438C21.3678 17.7849 21.2445 17.8789 21.1642 18.008C21.084 18.1371 21.0525 18.2922 21.0757 18.4438C21.0757 18.475 21.0757 18.5 21.0757 18.5313V19.4438H20.9368C20.6383 19.4494 20.3425 19.5043 20.0607 19.6063V14.5313ZM20.9368 20.6563H21.0757V23.9938H20.9368C20.5089 23.9938 20.0986 23.818 19.7961 23.505C19.4936 23.1921 19.3236 22.7676 19.3236 22.325C19.3236 21.8824 19.4936 21.458 19.7961 21.145C20.0986 20.8321 20.5089 20.6563 20.9368 20.6563ZM18.1214 38.3375C18.1214 38.3375 18.1214 38.3375 18.1214 38.3C18.0567 38.0331 18.0526 37.7544 18.1092 37.4855C18.1658 37.2167 18.2816 36.965 18.4476 36.75C18.6205 36.5171 18.8428 36.3284 19.0973 36.1984C19.3519 36.0683 19.6319 36.0005 19.9157 36H21.1845L24.2959 45.925C22.7878 45.2122 21.4516 44.1618 20.3838 42.8496C19.3159 41.5375 18.5432 39.9963 18.1214 38.3375ZM22.4291 36H23.6736L27.347 47.7375L28.223 50.5125C27.8416 50.6571 27.4801 50.8525 27.1476 51.0938L22.4291 36ZM29.7636 58.3938C29.1028 58.3938 28.4569 58.1911 27.9075 57.8113C27.358 57.4315 26.9298 56.8917 26.6769 56.2602C26.424 55.6286 26.3579 54.9337 26.4868 54.2632C26.6157 53.5928 26.9339 52.977 27.4012 52.4936C27.8684 52.0102 28.4637 51.681 29.1118 51.5477C29.7599 51.4143 30.4317 51.4828 31.0422 51.7444C31.6527 52.006 32.1745 52.449 32.5416 53.0173C32.9087 53.5857 33.1047 54.2539 33.1047 54.9375C33.1031 55.8537 32.7506 56.7318 32.1244 57.3796C31.4981 58.0275 30.6493 58.3921 29.7636 58.3938ZM32.3495 51.0938C32.0194 50.8552 31.6597 50.6639 31.2801 50.525L35.7509 36H37.0136L32.3495 51.0938ZM41.412 38.3C41.4091 38.3124 41.4091 38.3252 41.412 38.3375C40.9832 40.0016 40.204 41.5469 39.1303 42.863C38.0566 44.179 36.7148 45.2332 35.2011 45.95L38.222 36H39.5995C39.8834 36.0005 40.1633 36.0683 40.4179 36.1984C40.6724 36.3284 40.8947 36.5171 41.0676 36.75C41.2367 36.9634 41.3559 37.2143 41.4156 37.4832C41.4754 37.7521 41.4741 38.0317 41.412 38.3Z" fill="#39426A"/>
<path d="M33.8056 22.1751C34.3361 22.1751 34.7662 21.7301 34.7662 21.1813C34.7662 20.6325 34.3361 20.1876 33.8056 20.1876C33.2751 20.1876 32.845 20.6325 32.845 21.1813C32.845 21.7301 33.2751 22.1751 33.8056 22.1751Z" fill="#39426A"/>
<path d="M25.7219 22.1751C26.2524 22.1751 26.6825 21.7301 26.6825 21.1813C26.6825 20.6325 26.2524 20.1876 25.7219 20.1876C25.1913 20.1876 24.7612 20.6325 24.7612 21.1813C24.7612 21.7301 25.1913 22.1751 25.7219 22.1751Z" fill="#39426A"/>
<path d="M39.9258 46.1813C39.7696 46.2031 39.6279 46.2872 39.5308 46.4157C39.4337 46.5441 39.389 46.7067 39.4062 46.8688L40.9831 59.6813C41.0036 59.8314 41.0762 59.9688 41.1873 60.0677C41.2985 60.1665 41.4406 60.2203 41.5872 60.2188H41.6658C41.8208 60.1954 41.9611 60.1107 42.0569 59.9824C42.1527 59.8541 42.1966 59.6924 42.1793 59.5313L40.6085 46.7188C40.5981 46.637 40.5721 46.5581 40.5321 46.4867C40.4921 46.4153 40.4388 46.3529 40.3754 46.3029C40.3119 46.2529 40.2395 46.2164 40.1623 46.1956C40.0852 46.1747 40.0048 46.1698 39.9258 46.1813Z" fill="#39426A"/>
<path d="M19.4324 46.1813C19.2767 46.1634 19.1203 46.2088 18.9963 46.3079C18.8723 46.4071 18.7904 46.5521 18.7678 46.7126L17.191 59.5251C17.1737 59.6862 17.2175 59.8479 17.3134 59.9762C17.4092 60.1045 17.5494 60.1892 17.7045 60.2126H17.783C17.9296 60.2141 18.0718 60.1604 18.1829 60.0615C18.2941 59.9626 18.3667 59.8252 18.3872 59.6751L19.9641 46.8626C19.9794 46.6996 19.9323 46.5369 19.8328 46.4095C19.7334 46.2821 19.5896 46.2002 19.4324 46.1813Z" fill="#39426A"/>
<path d="M29.7637 52.475C29.2929 52.475 28.8327 52.6195 28.4412 52.89C28.0498 53.1606 27.7447 53.5452 27.5645 53.9952C27.3843 54.4451 27.3372 54.9403 27.429 55.4179C27.5209 55.8956 27.7476 56.3344 28.0805 56.6788C28.4134 57.0232 28.8376 57.2577 29.2993 57.3527C29.7611 57.4477 30.2397 57.399 30.6747 57.2126C31.1096 57.0262 31.4814 56.7106 31.743 56.3056C32.0045 55.9007 32.1441 55.4246 32.1441 54.9375C32.1425 54.2849 31.8912 53.6596 31.4452 53.1981C30.9991 52.7367 30.3946 52.4767 29.7637 52.475ZM29.7637 56.1625C29.5247 56.1625 29.2911 56.0892 29.0924 55.9519C28.8937 55.8145 28.7388 55.6193 28.6474 55.3909C28.5559 55.1625 28.532 54.9111 28.5786 54.6687C28.6252 54.4262 28.7403 54.2035 28.9093 54.0287C29.0783 53.8538 29.2936 53.7348 29.528 53.6866C29.7624 53.6383 30.0053 53.6631 30.2261 53.7577C30.4469 53.8523 30.6356 54.0125 30.7684 54.2181C30.9012 54.4236 30.9721 54.6653 30.9721 54.9125C30.9721 55.2441 30.8448 55.562 30.6181 55.7964C30.3915 56.0308 30.0842 56.1625 29.7637 56.1625Z" fill="#39426A"/>
<path d="M36.905 3.01251H36.899C36.572 3.01251 36.3069 3.28674 36.3069 3.62501V7.31876C36.3069 7.65704 36.572 7.93126 36.899 7.93126H36.905C37.232 7.93126 37.4971 7.65704 37.4971 7.31876V3.62501C37.4971 3.28674 37.232 3.01251 36.905 3.01251Z" fill="#A5B9DB"/>
</g>
<defs>
<clipPath id="clip0">
<rect width="58" height="60" fill="white" transform="translate(0.763672 0.693787)"/>
</clipPath>
</defs>
</svg>
