<svg width="144" height="183" viewBox="0 0 144 183" fill="none" xmlns="http://www.w3.org/2000/svg">
<g filter="url(#filter0_d)">
<rect x="0.812012" width="88.7967" height="97" rx="10" fill="black"/>
</g>
<path fill-rule="evenodd" clip-rule="evenodd" d="M38.3446 39C37.8391 39 37.4292 38.7015 37.4292 38.3333V33.6667C37.4292 33.2985 37.8391 33 38.3446 33C38.8502 33 39.2601 33.2985 39.2601 33.6667V38.3333C39.2601 38.7015 38.8502 39 38.3446 39Z" fill="white"/>
<path fill-rule="evenodd" clip-rule="evenodd" d="M52.9916 39C52.486 39 52.0762 38.7015 52.0762 38.3333V33.6667C52.0762 33.2985 52.486 33 52.9916 33C53.4972 33 53.907 33.2985 53.907 33.6667V38.3333C53.907 38.7015 53.4972 39 52.9916 39Z" fill="white"/>
<path opacity="0.5" fill-rule="evenodd" clip-rule="evenodd" d="M47.9484 60.6316H33.0185C32.6508 60.6316 32.3528 60.3252 32.3528 59.9474V44.2105C32.3528 43.8326 32.6508 43.5263 33.0185 43.5263H58.3177C58.6854 43.5263 58.9834 43.8326 58.9834 44.2105V52.2753C59.4699 52.6029 59.9168 52.9885 60.315 53.4241V37.3684C60.315 36.6127 59.7188 36 58.9834 36H54.9888V38.7368C54.9888 39.8705 54.0946 40.7895 52.9915 40.7895C51.8885 40.7895 50.9942 39.8705 50.9942 38.7368V36H40.342V38.7368C40.342 39.8705 39.4478 40.7895 38.3447 40.7895C37.2416 40.7895 36.3474 39.8705 36.3474 38.7368V36H32.3528C31.6174 36 31.0212 36.6127 31.0212 37.3684V60.6316C31.0212 61.3873 31.6174 62 32.3528 62H48.471C48.2533 61.5627 48.0783 61.1043 47.9484 60.6316Z" fill="white"/>
<path fill-rule="evenodd" clip-rule="evenodd" d="M55.2801 65C51.9939 65 49.3298 62.0899 49.3298 58.5C49.3335 54.9118 51.9954 52.004 55.2801 52C58.5664 52 61.2304 54.9101 61.2304 58.5C61.2304 62.0899 58.5664 65 55.2801 65ZM59.0532 56.844C59.3113 56.562 59.3113 56.1048 59.0532 55.8228C58.795 55.5408 58.3765 55.5408 58.1183 55.8228L53.9577 60.3677L52.4417 58.7117C52.1823 58.438 51.7699 58.4419 51.5149 58.7205C51.2599 58.9991 51.2563 59.4495 51.5069 59.7329L53.4903 61.8996C53.7485 62.1815 54.167 62.1815 54.4251 61.8996L59.0532 56.844Z" fill="white"/>
<defs>
<filter id="filter0_d" x="-53.188" y="-22" width="196.797" height="205" filterUnits="userSpaceOnUse" color-interpolation-filters="sRGB">
<feFlood flood-opacity="0" result="BackgroundImageFix"/>
<feColorMatrix in="SourceAlpha" type="matrix" values="0 0 0 0 0 0 0 0 0 0 0 0 0 0 0 0 0 0 127 0"/>
<feOffset dy="32"/>
<feGaussianBlur stdDeviation="27"/>
<feColorMatrix type="matrix" values="0 0 0 0 0.144886 0 0 0 0 0.539681 0 0 0 0 1 0 0 0 0.224553 0"/>
<feBlend mode="normal" in2="BackgroundImageFix" result="effect1_dropShadow"/>
<feBlend mode="normal" in="SourceGraphic" in2="effect1_dropShadow" result="shape"/>
</filter>
</defs>
</svg>
