<svg width="144" height="183" viewBox="0 0 144 183" fill="none" xmlns="http://www.w3.org/2000/svg">
<g filter="url(#filter0_d)">
<rect x="0.309814" width="88.7967" height="97" rx="10" fill="black"/>
</g>
<path fill-rule="evenodd" clip-rule="evenodd" d="M34.4643 63.841L24.5522 53L27.3494 50L34.8084 55L56.253 31L59.0501 33L37.2792 63.653C36.9511 64.1148 36.4521 64.4009 35.9118 64.437C35.3715 64.4731 34.8433 64.2556 34.4643 63.841Z" fill="white"/>
<path opacity="0.497489" fill-rule="evenodd" clip-rule="evenodd" d="M66.509 40H61.8472C61.3322 40 60.9148 39.5523 60.9148 39C60.9148 38.4477 61.3322 38 61.8472 38H66.509C67.024 38 67.4414 38.4477 67.4414 39C67.4414 39.5523 67.024 40 66.509 40Z" fill="white"/>
<path opacity="0.497489" fill-rule="evenodd" clip-rule="evenodd" d="M66.5093 49H55.3208C54.8059 49 54.3884 48.5523 54.3884 48C54.3884 47.4477 54.8059 47 55.3208 47H66.5093C67.0242 47 67.4417 47.4477 67.4417 48C67.4417 48.5523 67.0242 49 66.5093 49Z" fill="white"/>
<path opacity="0.497489" fill-rule="evenodd" clip-rule="evenodd" d="M66.5091 58H48.7939C48.279 58 47.8616 57.5523 47.8616 57C47.8616 56.4477 48.279 56 48.7939 56H66.5091C67.024 56 67.4414 56.4477 67.4414 57C67.4414 57.5523 67.024 58 66.5091 58Z" fill="white"/>
<path opacity="0.497489" fill-rule="evenodd" clip-rule="evenodd" d="M66.5091 67H42.2673C41.7524 67 41.335 66.5523 41.335 66C41.335 65.4477 41.7524 65 42.2673 65H66.5091C67.024 65 67.4415 65.4477 67.4415 66C67.4415 66.5523 67.024 67 66.5091 67Z" fill="white"/>
<defs>
<filter id="filter0_d" x="-53.6902" y="-22" width="196.797" height="205" filterUnits="userSpaceOnUse" color-interpolation-filters="sRGB">
<feFlood flood-opacity="0" result="BackgroundImageFix"/>
<feColorMatrix in="SourceAlpha" type="matrix" values="0 0 0 0 0 0 0 0 0 0 0 0 0 0 0 0 0 0 127 0"/>
<feOffset dy="32"/>
<feGaussianBlur stdDeviation="27"/>
<feColorMatrix type="matrix" values="0 0 0 0 0.144886 0 0 0 0 0.539681 0 0 0 0 1 0 0 0 0.224553 0"/>
<feBlend mode="normal" in2="BackgroundImageFix" result="effect1_dropShadow"/>
<feBlend mode="normal" in="SourceGraphic" in2="effect1_dropShadow" result="shape"/>
</filter>
</defs>
</svg>
