<svg width="128" height="129" viewBox="0 0 128 129" fill="none" xmlns="http://www.w3.org/2000/svg">
<circle r="4" transform="matrix(-1 0 0 1 124 4.75928)" fill="white" fill-opacity="0.15"/>
<circle r="4" transform="matrix(-1 0 0 1 124 28.7593)" fill="white" fill-opacity="0.15"/>
<circle r="4" transform="matrix(-1 0 0 1 124 52.7593)" fill="white" fill-opacity="0.15"/>
<circle r="4" transform="matrix(-1 0 0 1 124 76.7593)" fill="white" fill-opacity="0.15"/>
<circle r="4" transform="matrix(-1 0 0 1 124 100.759)" fill="white" fill-opacity="0.15"/>
<circle r="4" transform="matrix(-1 0 0 1 124 124.759)" fill="white" fill-opacity="0.15"/>
<circle r="4" transform="matrix(-1 0 0 1 100 4.75928)" fill="white" fill-opacity="0.15"/>
<circle r="4" transform="matrix(-1 0 0 1 100 28.7593)" fill="white" fill-opacity="0.15"/>
<circle r="4" transform="matrix(-1 0 0 1 100 52.7593)" fill="white" fill-opacity="0.15"/>
<circle r="4" transform="matrix(-1 0 0 1 100 76.7593)" fill="white" fill-opacity="0.15"/>
<circle r="4" transform="matrix(-1 0 0 1 100 100.759)" fill="white" fill-opacity="0.15"/>
<circle r="4" transform="matrix(-1 0 0 1 100 124.759)" fill="white" fill-opacity="0.15"/>
<circle r="4" transform="matrix(-1 0 0 1 76 4.75928)" fill="white" fill-opacity="0.15"/>
<circle r="4" transform="matrix(-1 0 0 1 76 28.7593)" fill="white" fill-opacity="0.15"/>
<circle r="4" transform="matrix(-1 0 0 1 76 52.7593)" fill="white" fill-opacity="0.15"/>
<circle r="4" transform="matrix(-1 0 0 1 76 76.7593)" fill="white" fill-opacity="0.15"/>
<circle r="4" transform="matrix(-1 0 0 1 76 100.759)" fill="white" fill-opacity="0.15"/>
<circle r="4" transform="matrix(-1 0 0 1 76 124.759)" fill="white" fill-opacity="0.15"/>
<circle r="4" transform="matrix(-1 0 0 1 52 4.75928)" fill="white" fill-opacity="0.15"/>
<circle r="4" transform="matrix(-1 0 0 1 52 28.7593)" fill="white" fill-opacity="0.15"/>
<circle r="4" transform="matrix(-1 0 0 1 52 52.7593)" fill="white" fill-opacity="0.15"/>
<circle r="4" transform="matrix(-1 0 0 1 52 76.7593)" fill="white" fill-opacity="0.15"/>
<circle r="4" transform="matrix(-1 0 0 1 52 100.759)" fill="white" fill-opacity="0.15"/>
<circle r="4" transform="matrix(-1 0 0 1 52 124.759)" fill="white" fill-opacity="0.15"/>
<circle r="4" transform="matrix(-1 0 0 1 28 4.75928)" fill="white" fill-opacity="0.15"/>
<circle r="4" transform="matrix(-1 0 0 1 28 28.7593)" fill="white" fill-opacity="0.15"/>
<circle r="4" transform="matrix(-1 0 0 1 28 52.7593)" fill="white" fill-opacity="0.15"/>
<circle r="4" transform="matrix(-1 0 0 1 28 76.7593)" fill="white" fill-opacity="0.15"/>
<circle r="4" transform="matrix(-1 0 0 1 28 100.759)" fill="white" fill-opacity="0.15"/>
<circle r="4" transform="matrix(-1 0 0 1 28 124.759)" fill="white" fill-opacity="0.15"/>
<circle r="4" transform="matrix(-1 0 0 1 4 4.75928)" fill="white" fill-opacity="0.15"/>
<circle r="4" transform="matrix(-1 0 0 1 4 28.7593)" fill="white" fill-opacity="0.15"/>
<circle r="4" transform="matrix(-1 0 0 1 4 52.7593)" fill="white" fill-opacity="0.15"/>
<circle r="4" transform="matrix(-1 0 0 1 4 76.7593)" fill="white" fill-opacity="0.15"/>
<circle r="4" transform="matrix(-1 0 0 1 4 100.759)" fill="white" fill-opacity="0.15"/>
<circle r="4" transform="matrix(-1 0 0 1 4 124.759)" fill="white" fill-opacity="0.15"/>
</svg>
