<svg width="582" height="442" viewBox="0 0 582 442" fill="none" xmlns="http://www.w3.org/2000/svg">
<g clip-path="url(#clip0)">
<path opacity="0.1" d="M138.256 368.858C133.356 368.362 128.237 367.832 123.596 369.129C118.955 370.426 115.11 374.214 116.488 377.835C119.566 385.907 137.634 380.285 145.964 385.803C148.939 387.775 150.098 390.877 152.421 393.298C156.18 397.23 162.642 399.064 168.88 400.073C206.352 406.132 249.071 390.536 281.914 405.556C292.551 410.422 300.939 418.165 312.601 421.411C328.052 425.712 344.972 421.117 360.958 418.171C380.896 414.527 401.218 413.461 421.427 415C436.376 416.153 456.259 416.539 461.044 405.683C464.123 398.701 457.608 390.929 448.961 387.625C440.314 384.321 430.19 384.425 420.534 384.742C401.896 385.411 383.252 386.76 364.613 386.103C328.57 384.823 294.522 370.536 259.425 370.063C218.551 369.567 179.32 372.998 138.256 368.858Z" fill="#FCAC32"/>
<path opacity="0.1" d="M100.363 188.136C94.598 193.965 94.2463 202.902 94.2463 202.902C94.2463 202.902 103.176 202.394 108.918 196.56C114.66 190.725 115.041 181.794 115.041 181.794C115.041 181.794 106.105 182.319 100.363 188.136Z" fill="#FCAC32"/>
<path opacity="0.1" d="M123.567 44.1355C125.602 52.0632 133.068 56.9927 133.068 56.9927C133.068 56.9927 137.236 49.0766 135.201 41.1489C133.166 33.2213 125.7 28.2975 125.7 28.2975C125.7 28.2975 121.509 36.2136 123.567 44.1355Z" fill="#FCAC32"/>
<path opacity="0.1" d="M460.727 65.9408C454.962 71.7698 454.605 80.7064 454.605 80.7064C454.605 80.7064 463.541 80.199 469.283 74.3643C475.025 68.5295 475.399 59.5929 475.399 59.5929C475.399 59.5929 466.469 60.1406 460.727 65.9408Z" fill="#FCAC32"/>
<path opacity="0.1" d="M285.016 147.627C284.347 155.78 289.784 162.883 289.784 162.883C289.784 162.883 296.315 156.766 296.984 148.607C297.653 140.449 292.217 133.363 292.217 133.363C292.217 133.363 285.685 139.469 285.016 147.627Z" fill="#FCAC32"/>
<path opacity="0.1" d="M474.143 261.964C473.474 270.117 478.91 277.22 478.91 277.22C478.91 277.22 485.442 271.103 486.111 262.95C486.78 254.798 481.343 247.695 481.343 247.695C481.343 247.695 474.811 253.812 474.143 261.964Z" fill="#FCAC32"/>
<path opacity="0.1" d="M338.147 55.5689C300.836 54.4446 265.3 44.0378 231.367 32.6219C197.434 21.2061 163.824 8.58527 127.407 2.54295C103.984 -1.34304 77.1938 -1.89077 58.3249 8.97733C40.1594 19.4303 34.2906 37.4823 31.1372 54.2313C28.762 66.829 27.3669 80.0899 33.8698 91.8862C38.3896 100.079 46.4029 106.963 51.9488 114.804C71.2443 142.104 57.6043 175.764 36.7004 202.441C26.8999 214.946 15.514 226.87 7.94459 240.182C0.375141 253.495 -3.12421 268.739 3.49977 282.311C10.0603 295.768 25.7008 305.875 42.6441 312.984C77.0554 327.398 117.589 331.555 157.143 333.896C244.673 339.085 332.664 336.836 420.425 334.588C452.905 333.758 485.523 332.916 517.473 328.569C535.217 326.159 553.533 322.33 566.418 313.082C582.767 301.344 586.82 281.47 575.861 266.75C557.482 242.068 506.681 235.933 493.819 209.44C486.751 194.859 494.009 178.618 504.288 165.092C526.334 136.079 563.281 110.624 565.224 77.455C566.562 54.681 548.8 31.8724 521.335 21.0966C492.551 9.79604 452.628 11.2201 431.401 29.9179C409.523 49.146 371.094 56.5548 338.147 55.5689Z" fill="#FCAC32"/>
<path d="M461.828 164.105C461.034 164.309 460.299 164.697 459.684 165.239C459.068 165.781 458.59 166.462 458.289 167.225L457.712 167.132L455.562 166.786C455.562 166.786 444.17 165.847 442.043 165.991C439.916 166.135 438.584 164.036 438.584 164.036L430.115 156.87L429.458 156.293C430.375 155.947 430.945 155.768 430.945 155.768C430.945 155.768 408.22 127.517 403.319 126.969C398.419 126.422 390.319 119.826 390.239 119.762L390.152 119.313C389.973 118.361 389.841 117.398 389.743 116.43L390.948 117.168C390.948 116.833 390.948 116.499 390.982 116.165C391.162 112.678 392.339 109.316 394.372 106.478C396.742 103.192 400.247 100.609 401.648 96.8212C402.206 95.1922 402.458 93.474 402.391 91.7532C402.427 88.6535 401.609 85.6036 400.028 82.9377C399.221 81.605 398.142 80.4585 396.86 79.574C395.578 78.6895 394.123 78.087 392.591 77.8063C391.784 77.6795 390.959 77.6622 390.164 77.4777C385.431 76.3649 383.69 70.017 379.089 68.4603C376.945 67.7339 374.558 68.2124 372.488 69.1118C370.419 70.0113 368.545 71.3027 366.521 72.3002C364.498 73.2976 362.203 74.0299 360.364 75.4424C360.174 75.5866 359.972 75.7595 359.788 75.9383L359.425 76.29C358.666 77.0604 358.005 77.9223 357.459 78.8556L357.372 78.9998C357.315 79.0978 357.263 79.2016 357.211 79.3054C357.159 79.4091 357.124 79.4668 357.09 79.5475C357.055 79.6282 356.998 79.732 356.957 79.8243L356.836 80.101L356.732 80.3662C356.698 80.4642 356.658 80.5623 356.629 80.666C356.6 80.7698 356.571 80.8332 356.548 80.9197L356.462 81.2253L356.41 81.4732C356.41 81.577 356.369 81.6865 356.352 81.7903C356.335 81.8941 356.352 81.946 356.352 82.0209C356.352 82.0959 356.352 82.24 356.352 82.3496C356.352 82.4591 356.352 82.4937 356.352 82.5629C356.352 82.6321 356.352 82.7935 356.352 82.9146C356.352 83.0357 356.352 83.0299 356.352 83.0876C356.374 83.2571 356.409 83.4247 356.456 83.5892C356.767 84.65 357.839 85.734 358.658 86.6795C358.566 86.766 358.473 86.8467 358.381 86.939C356.435 88.8145 354.888 91.0633 353.831 93.5508C352.774 96.0383 352.229 98.7135 352.23 101.416C352.231 102.617 352.341 103.816 352.559 104.997C351.511 104.205 350.385 103.523 349.198 102.961C345.293 101.09 341.023 100.105 336.693 100.079C329.631 99.998 319.71 97.3458 319.71 97.3458C319.963 97.8299 320.157 98.3429 320.286 98.8737C319.854 98.6258 319.387 98.3606 318.874 98.0838C314.737 95.8629 310.254 94.3617 305.614 93.6443C305.614 93.6443 302.674 94.0537 302.282 87.8788C302.147 85.9494 301.799 84.0409 301.244 82.1881C299.557 76.5407 298.387 70.7512 297.751 64.8914L296.765 55.828C296.765 55.828 301.204 32.1891 298.535 22.1109C299.394 18.9514 298.91 16.0571 296.079 13.9757C284.912 5.754 273.647 37.7529 273.647 37.7529L269.462 41.8176C268.388 41.1178 267.177 40.6558 265.911 40.4627C265.911 40.4627 263.657 42.7689 262.088 49.0649C261.258 52.4032 255.586 57.9785 250.455 62.4699C246.811 65.6583 243.295 68.9735 239.784 72.3002C237.189 74.7679 231.407 78.2964 218.793 80.2913C216.816 80.6026 215.017 80.8967 213.374 81.1676C213.794 79.6779 214.007 78.1376 214.008 76.5898C213.989 72.694 212.645 68.9206 210.198 65.8895C207.75 62.8584 204.345 60.7498 200.541 59.91C200.599 59.5065 200.599 59.0969 200.541 58.6935C200.329 57.8253 199.889 57.0294 199.267 56.3872C196.61 53.1008 193.727 49.7222 189.772 48.1655C188.141 47.5311 186.395 47.2501 184.647 47.341H183.771C183.592 47.341 183.419 47.341 183.24 47.341C181.376 47.4443 179.555 47.9441 177.898 48.8071C176.242 49.67 174.789 50.8764 173.636 52.3456C172.218 54.2424 171.365 56.491 170.142 58.5147C167.871 62.2623 164.377 65.1509 160.59 67.434C158.313 68.812 155.92 69.9997 153.77 71.5622C145.97 77.2298 142.372 87.7058 144.333 97.0691C145.197 101.18 147.025 105.227 146.535 109.396C146.148 112.63 144.407 115.536 142.632 118.281C140.856 121.025 138.977 123.816 138.273 126.992C137.57 130.169 138.308 133.911 140.972 135.837C141.952 136.54 143.139 136.99 143.975 137.843C144.531 138.501 144.996 139.23 145.359 140.011C146.773 142.566 148.691 144.808 150.997 146.599C153.303 148.391 155.949 149.696 158.774 150.435C159.67 150.664 160.594 150.765 161.518 150.735H161.616H161.795C163.91 150.868 166.078 150.303 166.787 148.429C166.895 148.003 167.056 147.592 167.266 147.206C167.465 146.919 167.762 146.714 168.102 146.63C168.784 146.786 169.441 147.034 170.056 147.368C173.009 148.9 176.24 149.823 179.557 150.083C180.111 150.128 180.667 150.137 181.223 150.112C182.377 150.22 183.54 150.054 184.618 149.628C185.655 149.102 186.551 148.335 187.23 147.391C187.38 147.201 187.518 146.999 187.662 146.814C186.901 151.419 185.467 155.887 183.408 160.075C183.408 160.075 179.949 165.841 180.197 171.652C180.063 173.77 180.512 175.883 181.494 177.764C181.494 177.764 181.592 177.51 181.793 177.112C182.785 178.773 186.037 184.083 188.17 185.945C188.273 191.428 188.25 198.295 187.564 199.708C186.411 202.124 182.768 219.311 198.437 231.032L202.052 238.948L187.172 240.003C185.668 239.796 166.211 237.178 166.113 240.989C166.015 244.95 169.053 283.522 179.142 280.91C188.544 278.477 185.443 267.228 184.976 265.718L185.31 265.625L184.941 265.522L192.465 258.39C192.606 257.521 192.399 256.632 191.888 255.916L191.963 255.876L210.134 256.689L214.406 265.971C214.406 265.971 221.653 276.995 215.778 286.272C209.904 295.549 203.827 310.055 202.847 318.853C202.046 326.049 196.719 333.117 194.811 335.447C191.404 336.6 178.334 341.731 183.552 349.497C189.524 358.388 208.918 375.31 216.758 374.727C224.599 374.145 221.457 368.443 221.457 368.443L214.902 362.089C214.902 362.089 213.749 348.552 214.216 344.591C214.47 342.532 212.953 341.051 211.333 340.422C211.95 336.012 213.513 327.651 216.868 323.033C221.566 316.553 236.653 288.036 236.653 288.036C236.653 288.036 241.45 283.781 240.372 271.12C239.939 266.012 239.697 261.526 239.559 257.98L256.635 258.747C256.635 258.747 274.95 256.908 262.509 237.282C250.068 217.656 223.624 198.422 223.624 198.422L223.388 186.274C224.587 186.574 225.29 186.724 225.29 186.724C225.29 186.724 225.187 186.285 225.014 185.501L225.29 185.565C225.29 185.565 221.468 169.023 220.292 155.872L221.37 156.368C232.733 169.519 240.395 158.403 240.395 158.403C240.395 158.403 264.394 124.663 262.042 126.208C261.799 126.329 261.534 126.4 261.262 126.417C260.991 126.433 260.719 126.396 260.463 126.306L262.192 120.794C262.192 120.794 269.277 109.967 258.993 103.878C250.599 98.9083 250.818 114.487 251.181 120.374L250.766 120.022C250.766 120.022 242.735 132.13 238.423 138.875C234.111 145.621 230.49 141.181 230.49 141.181L225.043 135.041C225.937 132.581 226.377 129.979 226.34 127.361C226.459 125.535 226.192 123.704 225.557 121.988C224.923 120.272 223.934 118.708 222.656 117.398C218.499 113.161 217.283 109.056 217.156 105.896C217.197 104.259 217.567 102.647 218.246 101.157L246.558 86.1664C246.558 86.1664 252.53 86.2586 260.561 73.8857C265.765 65.9724 271.493 58.4161 277.706 51.2674C277.706 51.2674 277.539 51.0252 277.25 50.6274C277.539 50.2873 277.706 50.1027 277.706 50.1027C277.706 50.1027 277.377 49.6242 276.818 48.8862L281.182 43.8529C281.044 46.1278 281.027 48.4084 281.13 50.6851L283.39 58.3245L284.658 100.857C284.658 100.857 283.286 104.893 292.107 108.981C299.567 112.44 311.385 118.206 314.832 119.906C314.706 120.218 314.631 120.385 314.631 120.385L315.657 120.316L315.807 120.385C333.038 118.84 332.45 136.044 332.45 136.044C332.45 136.044 333.603 171.041 328.34 183.224C323.076 195.407 323.832 210.484 323.832 210.484C323.832 210.484 324.356 207.912 327.291 211.273C327.233 211.568 327.17 211.885 327.1 212.213C325.417 220.648 321.912 238.591 321.26 245.867C320.543 252.498 319.264 259.055 317.438 265.47L315.709 297.659L326.726 298.195L326.605 299.348C326.544 299.933 326.343 300.494 326.017 300.983C325.692 301.472 325.252 301.875 324.737 302.156C320.966 304.203 312.054 311.381 312.769 333.532L312.388 337.095C311.778 343.13 309.948 348.977 307.009 354.283C306.756 354.732 306.531 355.165 306.341 355.58C306.369 355.347 306.475 355.13 306.64 354.963C306.64 354.963 300.916 356.151 302.092 371.62C303.268 387.089 305.032 389.793 307.384 389.983C309.736 390.173 321.22 392.981 320.603 387.279C319.986 381.577 319.45 368.91 320.211 366.978C320.972 365.047 324.097 359.835 321.134 358.578C321.993 355.03 322.409 351.389 322.373 347.739C322.373 347.739 328.138 338.652 332.26 335.268C336.382 331.883 338.602 326.135 340.095 318.738C340.198 318.254 352.242 310.228 350.472 303.563C350.16 302.41 349.936 301.389 349.763 300.467C349.688 300.057 349.624 299.671 349.567 299.314H349.78L352.23 284.617V298.927L353.683 299.118L353.631 300.271L353.014 313.993C352.902 316.665 352.317 319.297 351.285 321.765C348.69 327.905 343.905 341.575 345.208 356.358L345.07 369.538C344.655 369.619 338.671 371.032 339.806 385.97C340.959 401.433 342.741 404.143 345.093 404.334C347.445 404.524 358.929 407.332 358.318 401.629C357.707 395.927 357.165 383.26 357.926 381.329C358.687 379.397 360.059 374.289 357.096 373.032C357.111 371.3 357.534 369.595 358.329 368.057C359.621 365.86 363.933 355.418 367.179 347.387C370.497 339.258 372.342 330.604 372.627 321.828C372.627 321.73 372.627 321.632 372.627 321.534C372.714 318.574 373.349 315.655 374.5 312.926C375.827 309.873 376.877 306.706 377.636 303.465C377.717 303.079 377.78 302.704 377.838 302.312L380.651 302.687L390.256 261.117C390.256 261.117 392.885 238.585 391.599 228.409C391.547 227.988 391.49 227.602 391.42 227.227L391.997 227.279C391.997 227.279 393.957 222.257 393.369 200.792C392.781 179.326 397.289 172.54 397.289 172.54C399.722 164.826 402.409 162.243 403.977 161.378C404.38 161.121 404.842 160.97 405.32 160.94L412.59 169.26L413.927 170.793C413.93 170.763 413.93 170.732 413.927 170.701L414.504 171.376C414.46 171.034 414.444 170.688 414.457 170.344C418.337 172.598 427.302 177.868 432.652 181.65C439.627 186.58 441.541 186.003 447.641 185.49C451.342 185.184 456.346 183.109 459.701 181.529L460.007 181.385C460.91 181.867 461.86 182.253 462.843 182.538C462.843 182.538 472.69 190.881 473.641 175.654C474.592 160.427 461.828 164.105 461.828 164.105ZM206.439 341.431C205.436 341.133 204.47 340.725 203.556 340.215L206.439 341.431ZM191.023 176.605L191.058 178.767L190.908 178.836C190.954 178.075 190.989 177.326 191.023 176.605ZM345.029 369.59V370.432C344.923 370.318 344.864 370.167 344.864 370.011C344.864 369.855 344.923 369.704 345.029 369.59Z" fill="url(#paint0_linear)"/>
<path d="M376.46 116.251H359.742V133.836H376.46V116.251Z" fill="#FF7590"/>
<path d="M339.426 319.297C337.956 326.648 335.777 332.362 331.741 335.729C327.706 339.096 322.039 348.125 322.039 348.125C321.941 360.135 318.77 363.784 318.77 363.784L315.501 364.649H307.43C307.43 364.649 305.989 360.613 305.701 358.215C305.603 357.413 306.174 356.07 306.969 354.629C309.854 349.345 311.648 343.536 312.244 337.545L312.619 333.999C311.939 311.992 320.69 304.849 324.362 302.813C324.869 302.53 325.301 302.129 325.619 301.643C325.937 301.157 326.133 300.601 326.19 300.023L326.841 293.733L348.552 294.799C348.552 294.799 348.091 296.713 348.915 301.141C349.083 302.058 349.307 303.079 349.607 304.214C351.337 310.839 339.518 318.813 339.426 319.297Z" fill="#8E5362"/>
<path d="M376.241 304.099C375.496 307.318 374.468 310.465 373.169 313.503C372.038 316.219 371.412 319.118 371.324 322.059C371.324 322.157 371.324 322.255 371.324 322.353C371.043 331.068 369.234 339.666 365.98 347.756C362.791 355.736 358.566 366.119 357.297 368.304C355.187 371.954 356.433 378.106 356.433 378.106L344.211 377.241L344.424 356.675C343.15 341.99 347.843 328.424 350.385 322.295C351.412 319.844 351.998 317.23 352.115 314.575L352.691 300.934L352.87 296.898C352.87 296.898 374.477 293.825 376.299 298.726C376.8 300.023 376.679 301.954 376.241 304.099Z" fill="#8E5362"/>
<path opacity="0.1" d="M348.915 301.141L326.167 300.023L326.818 293.733L348.552 294.799C348.552 294.799 348.074 296.708 348.915 301.141Z" fill="black"/>
<path opacity="0.1" d="M376.241 304.099L352.686 300.934L352.864 296.898C352.864 296.898 374.472 293.825 376.293 298.726C376.801 300.023 376.679 301.954 376.241 304.099Z" fill="black"/>
<path d="M388.619 262.022L379.205 303.344L351.342 299.596V285.373L348.933 299.988L315.496 298.351L317.225 266.352C319.017 259.966 320.27 253.442 320.972 246.847C321.624 239.617 325.048 221.784 326.703 213.407C327.279 210.645 327.602 208.904 327.602 208.904C327.602 208.904 384.872 220.815 388.619 225.14C389.259 225.878 389.68 227.446 389.939 229.527C391.196 239.629 388.619 262.022 388.619 262.022Z" fill="#BDD2E8"/>
<path opacity="0.1" d="M321.745 264.714C321.745 264.714 344.286 252.895 349.78 255.392L321.745 264.714Z" fill="black"/>
<path opacity="0.1" d="M334.042 226.085C334.042 226.085 352.778 240.309 353.354 244.149L334.042 226.085Z" fill="black"/>
<path opacity="0.1" d="M328.951 275.093C328.951 275.093 342.499 274.516 346.822 277.975L328.951 275.093Z" fill="black"/>
<path opacity="0.1" d="M353.354 259.883C353.354 259.883 359.794 280.962 357.003 286.728C354.213 292.493 351.336 285.378 351.336 285.378L353.354 259.883Z" fill="black"/>
<path d="M344.309 369.752C344.309 369.752 337.967 370.715 339.12 386.086C340.273 401.457 342.003 404.155 344.309 404.345C346.615 404.535 357.857 407.326 357.28 401.653C356.704 395.979 356.127 383.399 356.894 381.473C357.661 379.547 358.987 374.479 356.081 373.228L355.453 376.192C355.453 376.192 349.301 370.519 345.652 374.652C345.495 373.645 345.242 372.654 344.897 371.695C344.534 370.795 343.738 370.328 344.309 369.752Z" fill="#494457"/>
<path d="M460.364 181.114C460.364 181.114 458.912 181.927 456.779 182.941C453.487 184.51 448.581 186.574 444.949 186.879C438.965 187.387 437.091 187.963 430.248 183.063C424.996 179.303 416.204 174.062 412.376 171.825L410.71 170.84L410.543 170.741V170.672L413.72 161.943L424.961 155.964L427.752 158.357L436.059 165.478C436.059 165.478 437.356 167.565 439.449 167.421C441.542 167.276 452.708 168.21 452.708 168.21L454.818 168.556L459.263 169.294L460.364 181.114Z" fill="#8E5362"/>
<path opacity="0.1" d="M460.364 181.114C460.364 181.114 458.912 181.927 456.779 182.942C454.524 181.788 451.723 179.626 452.801 176.069C453.775 172.869 454.04 170.373 454.842 168.574L459.286 169.312L460.364 181.114Z" fill="black"/>
<path d="M458.854 165.547C458.854 165.547 471.393 161.943 470.459 177.078C469.525 192.213 459.863 183.927 459.863 183.927C459.863 183.927 451.647 181.765 453.377 176.069C455.106 170.373 454.605 166.919 458.854 165.547Z" fill="#8E5362"/>
<path d="M328.853 116.539L315.789 122.028L315.588 122.115L315.443 122.045L314.631 121.636C311.252 119.953 299.642 114.193 292.337 110.774C283.69 106.738 285.033 102.702 285.033 102.702L283.788 60.4231L281.574 52.8299C281.574 52.8299 280.012 27.0923 292.528 20.6407C305.043 14.189 296.949 57.9208 296.949 57.9208L297.918 67.0074C298.543 72.8202 299.691 78.5648 301.348 84.1715C301.889 86.0147 302.229 87.9111 302.363 89.8275C302.749 95.9736 305.631 95.5642 305.631 95.5642C310.184 96.2792 314.58 97.7732 318.626 99.9807C320.128 100.774 321.566 101.684 322.926 102.702L328.853 116.539Z" fill="#8E5362"/>
<path d="M375.359 136.719L364.21 135.566C364.21 135.566 367.496 130.677 368.943 125.92C369.148 125.268 369.311 124.603 369.433 123.931C369.767 122.046 369.681 120.299 368.822 119.036C365.559 114.233 388.233 107.505 388.233 107.505C387.957 110.163 387.874 112.837 387.985 115.507C388.05 117.365 388.242 119.217 388.561 121.048C389.247 124.778 390.614 128.29 393.219 130.088C400.339 134.989 375.359 136.719 375.359 136.719Z" fill="#8E5362"/>
<path opacity="0.1" d="M375.359 136.719L364.21 135.566C364.21 135.566 367.496 130.677 368.943 125.92C370.229 127.748 370.673 127.707 372.477 128.071C372.477 128.071 383.73 129.737 388.573 121.048C389.259 124.778 390.625 128.29 393.231 130.089C400.339 134.989 375.359 136.719 375.359 136.719Z" fill="black"/>
<path opacity="0.1" d="M412.399 171.825C412.386 172.168 412.402 172.511 412.445 172.852L410.716 170.84L410.572 170.672L413.748 161.943L424.99 155.964L427.78 158.357C423.785 159.885 412.578 164.734 412.399 171.825Z" fill="black"/>
<path opacity="0.1" d="M328.853 116.539L315.79 122.028H315.444L314.435 122.097C314.435 122.097 314.51 121.93 314.631 121.619C315.72 118.972 320.776 106.052 318.591 99.9634C320.094 100.757 321.532 101.667 322.892 102.685L328.853 116.539Z" fill="black"/>
<path opacity="0.1" d="M389.939 229.51C384.854 229.054 333.984 224.35 329.239 216.86C328.489 215.64 327.641 214.483 326.703 213.401C327.279 210.639 327.602 208.898 327.602 208.898C327.602 208.898 384.872 220.81 388.619 225.134C389.259 225.86 389.68 227.423 389.939 229.51Z" fill="black"/>
<path d="M372.477 128.647C372.477 128.647 383.851 130.331 388.659 121.492C388.659 121.492 396.69 128.088 401.492 128.653C406.294 129.218 428.588 157.285 428.588 157.285C428.588 157.285 410.716 163.05 411.869 172.275L403.412 162.474C403.412 162.474 399.186 162.278 395.537 174.005C395.537 174.005 391.115 180.727 391.692 202.06C392.268 223.393 390.348 228.391 390.348 228.391C390.348 228.391 334.232 223.589 329.239 215.707C324.247 207.826 323.474 211.671 323.474 211.671C323.474 211.671 322.702 196.681 327.89 184.573C333.079 172.465 331.926 137.682 331.926 137.682C331.926 137.682 332.502 120.575 315.594 122.115C315.594 122.115 322.702 105.585 319.439 99.2427C319.439 99.2427 329.164 101.883 336.094 101.964C340.347 101.997 344.539 102.982 348.362 104.847C350.443 105.867 352.363 107.153 353.452 108.687C356.715 113.299 362.1 111.189 362.1 111.189C363.457 115.41 365.134 119.521 367.115 123.487C367.34 123.908 367.565 124.323 367.796 124.721C368.13 125.297 368.476 125.874 368.822 126.347C370.205 128.324 370.597 128.272 372.477 128.647Z" fill="#FCAC32"/>
<path opacity="0.1" d="M387.985 115.49C387.372 116.361 386.689 117.18 385.944 117.941C384.069 119.865 381.828 121.394 379.352 122.437C376.877 123.481 374.218 124.018 371.531 124.017C370.836 124.018 370.142 123.983 369.45 123.914C369.784 122.028 369.698 120.281 368.839 119.019C365.576 114.216 388.25 107.488 388.25 107.488C387.968 110.145 387.88 112.82 387.985 115.49Z" fill="black"/>
<path d="M391.691 103.279C391.691 107.27 390.508 111.171 388.291 114.49C386.074 117.808 382.922 120.395 379.236 121.922C375.549 123.449 371.492 123.849 367.578 123.07C363.663 122.292 360.068 120.37 357.246 117.548C354.424 114.726 352.503 111.13 351.724 107.215C350.946 103.301 351.345 99.2436 352.872 95.5563C354.4 91.869 356.986 88.7173 360.304 86.5C363.622 84.2826 367.523 83.0991 371.514 83.0991C374.166 83.0892 376.795 83.6044 379.247 84.615C381.7 85.6256 383.928 87.1117 385.804 88.9875C387.679 90.8633 389.165 93.0918 390.176 95.5446C391.186 97.9973 391.701 100.626 391.691 103.279Z" fill="#8E5362"/>
<path opacity="0.1" d="M401.688 149.403L402.103 162.906C402.103 162.906 408.128 158.052 408.318 153.439C408.508 148.827 401.688 149.403 401.688 149.403Z" fill="black"/>
<path opacity="0.1" d="M353.066 162.906C353.066 162.906 368.92 184.671 378.144 186.879C387.368 189.088 356.525 169.963 353.066 162.906Z" fill="black"/>
<path opacity="0.1" d="M369.883 165.172C369.883 165.172 378.72 175.158 385.062 176.403L369.883 165.172Z" fill="black"/>
<path opacity="0.1" d="M338.751 190.339C338.751 190.339 354.893 206.194 364.117 207.157L338.751 190.339Z" fill="black"/>
<path opacity="0.1" d="M391.691 103.279C391.694 108.554 389.624 113.619 385.926 117.381L383.713 116.003C382.856 115.557 382.118 114.915 381.557 114.129C380.824 112.907 381.038 111.374 381.095 109.949C381.216 106.934 380.386 103.671 378.028 101.785C374.206 98.7239 368.078 100.419 364.192 97.4151C363.257 96.6204 362.433 95.7031 361.742 94.688L358.099 89.8045C357.88 89.5162 357.615 89.228 357.332 88.8878C360.169 86.098 363.767 84.2092 367.674 83.4588C371.581 82.7084 375.623 83.1299 379.291 84.6703C382.959 86.2107 386.09 88.8012 388.29 92.1163C390.491 95.4313 391.662 99.3229 391.657 103.302L391.691 103.279Z" fill="black"/>
<path d="M359.356 77.4373C361.16 76.0593 363.362 75.3329 365.392 74.3181C367.421 73.3034 369.214 72.0119 371.243 71.1471C373.272 70.2822 375.619 69.7749 377.723 70.4956C382.237 72.0465 383.943 78.354 388.584 79.461C389.368 79.6455 390.175 79.6628 390.965 79.7839C392.473 80.0697 393.902 80.6723 395.159 81.552C396.417 82.4316 397.473 83.5681 398.258 84.8864C399.807 87.5466 400.604 90.5777 400.564 93.6559C400.628 95.3642 400.38 97.0699 399.832 98.6892C398.46 102.454 395.018 105.031 392.695 108.289C390.495 111.406 389.328 115.134 389.357 118.949L383.73 115.45C382.872 115.006 382.133 114.363 381.574 113.576C380.842 112.354 381.055 110.82 381.113 109.396C381.234 106.38 380.404 103.117 378.051 101.232C374.224 98.1703 368.095 99.8654 364.215 96.8615C363.28 96.0669 362.456 95.1496 361.765 94.1344L358.122 89.251C357.332 88.1901 355.816 86.8698 355.47 85.5783C354.703 82.7993 357.326 78.9998 359.356 77.4373Z" fill="#362133"/>
<path opacity="0.1" d="M384.359 114.798C383.501 114.354 382.762 113.712 382.202 112.924C381.47 111.702 381.684 110.168 381.741 108.744C381.862 105.729 381.032 102.466 378.674 100.58C374.852 97.5188 368.724 99.2139 364.838 96.21C363.903 95.4154 363.078 94.4981 362.388 93.4829L358.745 88.5995C357.949 87.5386 356.439 86.2183 356.093 84.9268C355.464 82.7013 357.056 79.8012 358.756 77.9447C356.848 79.709 354.755 83.0588 355.464 85.5553C355.833 86.8467 357.326 88.1671 358.116 89.2279L361.76 94.1114C362.45 95.1265 363.274 96.0438 364.21 96.8385C368.078 99.8423 374.206 98.1473 378.046 101.209C380.398 103.094 381.228 106.357 381.107 109.373C381.049 110.797 380.836 112.331 381.568 113.553C382.128 114.34 382.867 114.983 383.724 115.427L389.351 118.926C389.351 118.592 389.351 118.258 389.386 117.929L384.359 114.798Z" fill="black"/>
<path d="M306.606 355.303C306.606 355.303 300.991 356.456 302.144 371.856C303.297 387.256 305.026 389.925 307.332 390.116C309.638 390.306 320.88 393.097 320.304 387.423C319.727 381.75 319.151 369.169 319.917 367.244C320.684 365.318 323.728 360.146 320.822 358.895L318.476 361.962C318.476 361.962 312.325 356.289 308.676 360.423C308.676 360.423 305.263 356.647 306.606 355.303Z" fill="#494457"/>
<path opacity="0.1" d="M310.157 364.851C311.374 365.428 312.509 366.131 313.72 366.707C314.912 367.332 316.243 367.645 317.588 367.618C318.16 367.608 318.713 367.416 319.168 367.071" fill="black"/>
<path opacity="0.1" d="M347.111 379.911C347.831 380.574 348.391 381.421 349.204 381.969C350.357 382.742 351.832 382.788 353.239 382.805C353.473 382.826 353.709 382.797 353.931 382.718C354.182 382.582 354.394 382.383 354.548 382.142L355.303 381.168" fill="black"/>
<path d="M252.374 124.225C252.374 124.225 249.78 99.629 259.869 105.683C269.958 111.737 263.011 122.495 263.011 122.495L260.641 130.089L252.374 124.225Z" fill="#FFC1C7"/>
<path d="M268.517 45.623L274.282 39.9612C274.282 39.9612 285.333 8.15254 296.287 16.3223C307.24 24.4922 282.405 45.1502 282.405 45.1502L275.821 52.8357L268.517 45.623Z" fill="#FFC1C7"/>
<path d="M184.151 171.416L183.863 177.948C183.863 177.948 189.15 187.173 191.358 187.848C193.566 188.523 193.375 168.337 193.375 168.337L184.151 171.416Z" fill="#2BAFD9"/>
<path opacity="0.1" d="M184.151 171.416L183.863 177.948C183.863 177.948 189.15 187.173 191.358 187.848C193.566 188.523 193.375 168.337 193.375 168.337L184.151 171.416Z" fill="#2BAFD9"/>
<path d="M192.989 164.244L193.381 188.321H220.183L218.165 174.293L192.989 164.244Z" fill="#FFC1C7"/>
<path d="M199.238 224.356L200.489 232.041L216.153 266.831C216.153 266.831 223.261 277.785 217.496 287.01C211.731 296.235 205.776 310.649 204.813 319.389C203.85 328.13 196.264 336.686 196.264 336.686L212.792 343.703C212.792 343.703 213.945 329.963 218.557 323.523C223.169 317.083 237.962 288.74 237.962 288.74C237.962 288.74 242.672 284.508 241.617 271.922C240.562 259.335 240.654 250.491 240.654 250.491L239.023 230.409L199.238 224.356Z" fill="#575988"/>
<path opacity="0.1" d="M199.238 224.356L200.489 232.041L216.153 266.831C216.153 266.831 223.261 277.785 217.496 287.01C211.731 296.235 205.776 310.649 204.813 319.389C203.85 328.13 196.264 336.686 196.264 336.686L212.792 343.703C212.792 343.703 213.945 329.963 218.557 323.523C223.169 317.083 237.962 288.74 237.962 288.74C237.962 288.74 242.672 284.508 241.617 271.922C240.562 259.335 240.654 250.491 240.654 250.491L239.023 230.409L199.238 224.356Z" fill="black"/>
<path d="M197.699 335.631C197.699 335.631 180.018 341.01 185.881 349.855C191.744 358.699 210.768 375.512 218.453 374.935C226.138 374.358 223.065 368.685 223.065 368.685L216.626 362.343C216.626 362.343 215.473 348.892 215.957 344.954C216.441 341.016 210.48 339.188 209.708 341.495C208.935 343.801 197.699 335.631 197.699 335.631Z" fill="#C4747B"/>
<path d="M208.843 178.093L194.828 179.644C193.576 179.782 192.421 180.385 191.593 181.335C190.764 182.284 190.322 183.51 190.355 184.769C190.504 190.373 190.602 199.287 189.818 200.913C188.665 203.317 185.114 220.423 200.484 232.047L221.336 238.677L187.899 241.081L188.959 259.629L194.148 256.747L257.563 259.629C257.563 259.629 275.532 257.802 263.328 238.297C251.123 218.792 225.187 199.667 225.187 199.667L224.898 184.481L222.973 180.064L208.843 178.093Z" fill="#575988"/>
<path opacity="0.1" d="M226.236 238.383C228.509 237.391 230.962 236.878 233.442 236.878C235.922 236.878 238.375 237.391 240.648 238.383H226.236Z" fill="black"/>
<path d="M189.536 240.978C189.536 240.978 168.88 238.003 168.782 241.941C168.684 245.878 171.664 284.219 181.563 281.625C191.461 279.03 187.23 266.346 187.23 266.346L194.632 259.237C194.632 259.237 195.399 255.299 190.499 255.68L189.536 240.978Z" fill="#C4747B"/>
<path d="M223.74 133.45L231.903 142.773C231.903 142.773 235.46 147.195 239.686 140.467C243.911 133.738 251.792 121.729 251.792 121.729C251.792 121.729 260.538 129.414 262.844 127.88C265.15 126.347 241.611 159.885 241.611 159.885C241.611 159.885 234.117 170.932 222.967 157.867L219.704 156.328L223.74 133.45Z" fill="#2BAFD9"/>
<path opacity="0.1" d="M223.74 133.45L231.903 142.773C231.903 142.773 235.46 147.195 239.686 140.467C243.911 133.738 251.792 121.729 251.792 121.729C251.792 121.729 260.538 129.414 262.844 127.88C265.15 126.347 241.611 159.885 241.611 159.885C241.611 159.885 234.117 170.932 222.967 157.867L219.704 156.328L223.74 133.45Z" fill="#2BAFD9"/>
<path d="M198.766 95.5643C208.158 95.5643 215.773 87.9494 215.773 78.5559C215.773 69.1624 208.158 61.5475 198.766 61.5475C189.373 61.5475 181.759 69.1624 181.759 78.5559C181.759 87.9494 189.373 95.5643 198.766 95.5643Z" fill="#FFC1C7"/>
<path opacity="0.1" d="M198.76 87.7116C198.76 87.7116 184.146 94.6303 185.875 106.738C187.605 118.846 187.893 134.124 187.893 134.124C187.893 134.124 194.528 143.926 185.731 162.664C185.731 162.664 180.11 172.177 183.857 179.096C183.857 179.096 188.014 168.141 198.76 176.213C209.506 184.285 226.807 188.033 226.807 188.033C226.807 188.033 217.871 148.827 223.348 143.349C223.348 143.349 232.86 129.224 224.212 120.287C215.565 111.35 219.889 102.99 219.889 102.99L247.659 88.0979C247.659 88.0979 253.516 88.1902 261.397 75.8922C266.499 68.0332 272.117 60.5214 278.213 53.4065C278.213 53.4065 272.252 44.4699 266.683 43.7953C266.683 43.7953 264.469 46.1015 262.936 52.3514C262.117 55.6666 256.554 61.2073 251.521 65.6756C247.947 68.8467 244.5 72.1388 241.058 75.4771C238.51 77.9275 232.837 81.4329 220.465 83.4163C200.103 86.6623 198.76 87.7116 198.76 87.7116Z" fill="black"/>
<path d="M198.76 86.5584C198.76 86.5584 184.146 93.4771 185.875 105.585C187.605 117.692 187.893 132.971 187.893 132.971C187.893 132.971 194.528 142.773 185.731 161.511C185.731 161.511 180.11 171.024 183.857 177.943C183.857 177.943 188.014 166.988 198.76 175.06C209.506 183.132 226.807 186.879 226.807 186.879C226.807 186.879 217.871 147.673 223.348 142.196C223.348 142.196 232.86 128.071 224.212 119.134C215.565 110.197 219.889 101.837 219.889 101.837L247.659 86.9447C247.659 86.9447 253.516 87.037 261.397 74.739C266.499 66.88 272.117 59.3682 278.213 52.2533C278.213 52.2533 272.252 43.3167 266.683 42.6421C266.683 42.6421 264.469 44.9483 262.936 51.1982C262.117 54.5134 256.554 60.0541 251.521 64.5224C247.947 67.6935 244.5 70.9856 241.058 74.3239C238.51 76.7743 232.837 80.2797 220.465 82.2631C200.103 85.5091 198.76 86.5584 198.76 86.5584Z" fill="#2BAFD9"/>
<path opacity="0.1" d="M211.345 159.014C211.345 159.014 222.679 175.735 222.967 178.617C222.973 178.617 221.243 160.646 211.345 159.014Z" fill="black"/>
<path opacity="0.1" d="M196.454 102.702C196.454 102.702 204.358 112.215 215.778 104.241C212.622 105.313 209.28 105.73 205.957 105.465C202.634 105.2 199.401 104.26 196.454 102.702Z" fill="black"/>
<path opacity="0.1" d="M202.582 60.7691C202.375 59.9051 201.946 59.1101 201.337 58.4629C198.731 55.1938 195.9 51.8383 192.021 50.2873C189.445 49.3251 186.629 49.2123 183.985 49.9654C181.341 50.7186 179.008 52.2982 177.326 54.4731C175.93 56.3527 175.1 58.5898 173.895 60.6019C171.67 64.3265 168.228 67.1978 164.527 69.4694C162.296 70.8358 159.944 72.0178 157.84 73.5687C150.19 79.2017 146.656 89.6143 148.581 98.9372C149.429 103.019 151.222 107.044 150.737 111.189C150.363 114.406 148.65 117.289 146.915 120.022C145.18 122.755 143.329 125.522 142.638 128.67C141.946 131.818 142.672 135.549 145.284 137.457C146.246 138.16 147.405 138.61 148.23 139.452C148.775 140.107 149.231 140.832 149.584 141.608C150.958 144.142 152.833 146.369 155.096 148.153C157.359 149.938 159.962 151.242 162.746 151.986C165.225 152.638 168.551 152.401 169.456 150.003C169.56 149.579 169.717 149.171 169.923 148.786C170.742 147.633 172.546 148.279 173.815 148.942C176.702 150.451 179.865 151.36 183.114 151.611C184.402 151.781 185.712 151.625 186.924 151.156C187.948 150.636 188.828 149.874 189.49 148.936C192.522 144.987 193.393 139.827 193.912 134.874C194.252 131.651 194.488 128.37 193.871 125.188C192.891 120.08 189.784 115.306 190.245 110.128C190.735 104.593 195.226 100.067 195.912 94.5611C196.261 91.6783 195.541 88.7676 193.888 86.3798C193.279 85.6424 192.762 84.8331 192.349 83.9698C192.152 83.5332 192.091 83.0476 192.173 82.5758C192.256 82.104 192.478 81.6677 192.81 81.3234C193.175 81.0662 193.581 80.8714 194.01 80.7468C197.716 79.3228 199.694 75.6097 199.959 71.8102C200.063 70.3688 199.959 69.0427 200.357 67.6359C200.991 65.4623 202.911 63.0869 202.582 60.7691Z" fill="black"/>
<path d="M201.429 60.7691C201.222 59.9051 200.793 59.1101 200.184 58.4629C197.578 55.1938 194.748 51.8383 190.868 50.2873C188.292 49.3251 185.477 49.2123 182.833 49.9654C180.188 50.7186 177.855 52.2982 176.173 54.4731C174.778 56.3527 173.947 58.5898 172.743 60.6019C170.517 64.3265 167.076 67.1978 163.374 69.4694C161.143 70.8358 158.791 72.0178 156.687 73.5687C149.037 79.2017 145.503 89.6143 147.428 98.9372C148.276 103.019 150.069 107.044 149.585 111.189C149.21 114.406 147.498 117.289 145.762 120.022C144.027 122.755 142.177 125.522 141.485 128.67C140.793 131.818 141.519 135.549 144.131 137.457C145.094 138.16 146.252 138.61 147.077 139.452C147.622 140.107 148.078 140.832 148.432 141.608C149.805 144.142 151.68 146.369 153.943 148.153C156.206 149.938 158.809 151.242 161.593 151.986C164.072 152.638 167.398 152.401 168.304 150.003C168.407 149.579 168.564 149.171 168.771 148.786C169.589 147.633 171.394 148.279 172.662 148.942C175.549 150.451 178.713 151.36 181.961 151.611C183.249 151.781 184.56 151.625 185.771 151.156C186.795 150.636 187.676 149.874 188.337 148.936C191.369 144.987 192.24 139.827 192.759 134.874C193.099 131.651 193.335 128.37 192.718 125.188C191.738 120.08 188.631 115.306 189.092 110.128C189.582 104.593 194.073 100.067 194.759 94.5611C195.108 91.6783 194.388 88.7676 192.736 86.3798C192.126 85.6424 191.609 84.8331 191.196 83.9698C191 83.5332 190.938 83.0476 191.021 82.5758C191.103 82.104 191.325 81.6677 191.658 81.3234C192.023 81.0662 192.428 80.8714 192.857 80.7468C196.564 79.3228 198.541 75.6097 198.806 71.8102C198.91 70.3688 198.806 69.0427 199.204 67.6359C199.838 65.4623 201.758 63.0869 201.429 60.7691Z" fill="#BB7684"/>
<g opacity="0.1">
<path opacity="0.1" d="M167.052 148.757C166.847 149.142 166.688 149.551 166.58 149.974C166.044 151.404 164.643 152.061 163.08 152.222C165.254 152.442 167.577 151.917 168.309 149.974C168.417 149.551 168.576 149.142 168.782 148.757C168.927 148.546 169.126 148.376 169.358 148.267C168.482 148.014 167.583 148.025 167.052 148.757Z" fill="black"/>
<path opacity="0.1" d="M201.458 60.7633C201.256 59.897 200.826 59.1007 200.213 58.457C197.607 55.188 194.776 51.8324 190.897 50.2815C189.21 49.623 187.398 49.3511 185.593 49.4858C186.818 49.563 188.024 49.8314 189.167 50.2815C193.047 51.8324 195.877 55.188 198.483 58.457C199.097 59.1007 199.527 59.897 199.729 60.7633C200.057 63.0695 198.143 65.4622 197.509 67.5955C197.088 69.0023 197.209 70.3226 197.111 71.7697C196.84 75.5635 194.869 79.265 191.156 80.7064C190.727 80.8309 190.322 81.0257 189.957 81.2829C189.624 81.6283 189.402 82.066 189.321 82.5389C189.24 83.0119 189.303 83.4983 189.501 83.9351C189.912 84.7982 190.427 85.6076 191.035 86.3451C192.689 88.7301 193.411 91.639 193.064 94.5207C192.372 100.038 187.876 104.559 187.391 110.088C186.93 115.277 190.043 120.039 191.018 125.142C191.629 128.324 191.398 131.605 191.058 134.828C190.539 139.78 189.674 144.946 186.636 148.89C185.977 149.828 185.098 150.59 184.077 151.11C183.479 151.372 182.842 151.529 182.191 151.577C183.416 151.723 184.658 151.562 185.806 151.11C186.83 150.604 187.714 149.856 188.383 148.93C191.421 144.987 192.286 139.821 192.805 134.868C193.145 131.645 193.381 128.365 192.764 125.182C191.79 120.079 188.677 115.3 189.138 110.128C189.634 104.587 194.119 100.067 194.811 94.561C195.158 91.6793 194.436 88.7705 192.782 86.3855C192.174 85.648 191.659 84.8386 191.248 83.9754C191.049 83.5387 190.987 83.0522 191.068 82.5793C191.149 82.1063 191.371 81.6687 191.704 81.3233C192.069 81.0661 192.474 80.8712 192.903 80.7467C196.615 79.3169 198.587 75.6038 198.858 71.8101C198.956 70.3629 198.858 69.0426 199.256 67.6358C199.873 65.4622 201.787 63.0868 201.458 60.7633Z" fill="black"/>
</g>
<path opacity="0.1" d="M179.632 264.242C180.62 265.321 181.892 266.099 183.302 266.489C184.712 266.878 186.203 266.863 187.605 266.444" fill="black"/>
<path opacity="0.1" d="M216.574 362.833C216.023 363.278 215.382 363.598 214.695 363.771C214.008 363.945 213.292 363.967 212.596 363.836" fill="black"/>
<path opacity="0.1" d="M60.6189 380.729C69.1932 380.729 76.1441 379.555 76.1441 378.106C76.1441 376.657 69.1932 375.483 60.6189 375.483C52.0446 375.483 45.0938 376.657 45.0938 378.106C45.0938 379.555 52.0446 380.729 60.6189 380.729Z" fill="#FCAC32"/>
<path d="M485.661 432.965C494.235 432.965 501.186 431.791 501.186 430.342C501.186 428.893 494.235 427.719 485.661 427.719C477.087 427.719 470.136 428.893 470.136 430.342C470.136 431.791 477.087 432.965 485.661 432.965Z" fill="#FCAC32"/>
<path opacity="0.1" d="M485.661 382.471C494.235 382.471 501.186 381.296 501.186 379.847C501.186 378.398 494.235 377.224 485.661 377.224C477.087 377.224 470.136 378.398 470.136 379.847C470.136 381.296 477.087 382.471 485.661 382.471Z" fill="#FCAC32"/>
<path opacity="0.1" d="M104.641 405.089C113.215 405.089 120.166 403.914 120.166 402.465C120.166 401.017 113.215 399.842 104.641 399.842C96.0663 399.842 89.1155 401.017 89.1155 402.465C89.1155 403.914 96.0663 405.089 104.641 405.089Z" fill="#FCAC32"/>
<path d="M534.762 406.386C547.564 406.386 557.943 404.631 557.943 402.466C557.943 400.3 547.564 398.545 534.762 398.545C521.959 398.545 511.581 400.3 511.581 402.466C511.581 404.631 521.959 406.386 534.762 406.386Z" fill="#FCAC32"/>
<path opacity="0.1" d="M201.464 442C230.361 442 253.787 438.04 253.787 433.156C253.787 428.271 230.361 424.311 201.464 424.311C172.566 424.311 149.141 428.271 149.141 433.156C149.141 438.04 172.566 442 201.464 442Z" fill="#FCAC32"/>
<path d="M544.343 396.054C545.401 395.191 546.173 394.027 546.557 392.716C546.839 391.39 546.274 389.804 545.012 389.32C543.593 388.778 542.077 389.758 540.93 390.756C539.783 391.753 538.463 392.877 536.958 392.67C537.732 391.969 538.311 391.08 538.638 390.088C538.965 389.097 539.03 388.038 538.826 387.014C538.761 386.59 538.581 386.191 538.307 385.861C537.517 385.019 536.093 385.382 535.148 386.045C532.15 388.155 531.314 392.226 531.297 395.893C530.997 394.573 531.251 393.195 531.245 391.857C531.239 390.519 530.864 388.974 529.723 388.265C529.017 387.876 528.223 387.678 527.417 387.688C526.068 387.642 524.569 387.775 523.647 388.761C522.494 389.989 522.799 392.041 523.797 393.373C524.794 394.705 526.304 395.564 527.694 396.498C528.812 397.163 529.766 398.072 530.484 399.156C530.567 399.307 530.636 399.466 530.691 399.629H539.137C541.025 398.677 542.777 397.475 544.343 396.054Z" fill="#FCAC32"/>
<path d="M495.248 424.069C496.305 423.205 497.075 422.041 497.456 420.731C497.739 419.405 497.18 417.848 495.911 417.335C494.493 416.793 492.977 417.773 491.83 418.771C490.683 419.768 489.362 420.892 487.858 420.685C488.631 419.984 489.21 419.095 489.538 418.103C489.865 417.112 489.93 416.053 489.726 415.029C489.663 414.604 489.484 414.204 489.207 413.876C488.423 413.034 486.993 413.397 486.053 414.06C483.055 416.17 482.219 420.241 482.202 423.908C481.897 422.587 482.15 421.209 482.145 419.872C482.139 418.534 481.764 416.989 480.623 416.28C479.915 415.899 479.12 415.711 478.317 415.732C476.968 415.686 475.469 415.819 474.546 416.805C473.393 418.033 473.699 420.085 474.696 421.417C475.694 422.749 477.204 423.608 478.599 424.542C479.715 425.207 480.667 426.116 481.384 427.2C481.467 427.351 481.536 427.509 481.591 427.673H490.037C491.928 426.711 493.681 425.499 495.248 424.069Z" fill="#FCAC32"/>
<path d="M122.224 372.058C122.224 372.058 114.124 344.55 123.746 324.307C127.843 315.839 129.081 306.269 127.274 297.036C126.382 292.663 125.091 288.38 123.417 284.243" stroke="#535461" stroke-width="2" stroke-miterlimit="10"/>
<path d="M129.384 271.449C129.384 274.822 123.279 284.594 123.279 284.594C123.279 284.594 117.179 274.822 117.179 271.449C117.154 270.632 117.294 269.818 117.589 269.055C117.884 268.293 118.33 267.598 118.899 267.011C119.468 266.424 120.149 265.957 120.902 265.638C121.655 265.32 122.464 265.155 123.282 265.155C124.099 265.155 124.908 265.32 125.661 265.638C126.414 265.957 127.095 266.424 127.664 267.011C128.234 267.598 128.679 268.293 128.974 269.055C129.27 269.818 129.409 270.632 129.384 271.449Z" fill="#FCAC32"/>
<path d="M139.473 290.123C137.639 292.949 127.205 297.838 127.205 297.838C127.205 297.838 127.395 286.307 129.228 283.487C130.129 282.177 131.506 281.27 133.065 280.959C134.624 280.647 136.244 280.957 137.578 281.822C138.913 282.686 139.858 284.037 140.211 285.588C140.565 287.138 140.3 288.765 139.473 290.123Z" fill="#FCAC32"/>
<path d="M139.035 322.03C136.025 323.552 124.547 322.503 124.547 322.503C124.547 322.503 130.525 312.649 133.535 311.133C134.973 310.458 136.618 310.371 138.12 310.889C139.622 311.407 140.862 312.491 141.578 313.909C142.294 315.328 142.429 316.97 141.954 318.486C141.479 320.002 140.432 321.274 139.035 322.03Z" fill="#FCAC32"/>
<path d="M133.264 346.113C130.554 348.114 119.065 348.996 119.065 348.996C119.065 348.996 123.296 338.272 125.983 336.265C127.286 335.395 128.875 335.06 130.419 335.33C131.963 335.599 133.344 336.451 134.277 337.711C135.209 338.97 135.622 340.54 135.429 342.096C135.236 343.651 134.453 345.073 133.241 346.067L133.264 346.113Z" fill="#FCAC32"/>
<path d="M114.389 298.495C116.81 300.842 128.069 303.275 128.069 303.275C128.069 303.275 125.314 292.084 122.881 289.737C121.711 288.657 120.165 288.078 118.574 288.121C116.982 288.165 115.471 288.829 114.361 289.971C113.252 291.114 112.633 292.644 112.636 294.237C112.639 295.829 113.264 297.357 114.378 298.495H114.389Z" fill="#FCAC32"/>
<path d="M108.002 326.729C111.011 328.245 122.483 327.196 122.483 327.196C122.483 327.196 116.505 317.343 113.496 315.826C112.055 315.136 110.4 315.038 108.888 315.554C107.376 316.07 106.126 317.158 105.407 318.585C104.688 320.012 104.557 321.664 105.042 323.187C105.527 324.709 106.59 325.981 108.002 326.729Z" fill="#FCAC32"/>
<path d="M105.551 355.021C108.261 357.027 119.751 357.903 119.751 357.903C119.751 357.903 115.519 347.179 112.833 345.179C111.529 344.309 109.941 343.974 108.397 344.243C106.853 344.512 105.471 345.365 104.539 346.624C103.606 347.884 103.193 349.454 103.386 351.009C103.579 352.565 104.362 353.987 105.574 354.98L105.551 355.021Z" fill="#FCAC32"/>
<path d="M103.061 370.328C103.061 370.328 112.925 368.368 115.56 365.756C118.194 363.144 130.024 358.578 131.338 361.841C132.653 365.105 149.095 376.203 137.916 378.164C126.738 380.124 111.611 380.775 108.324 379.472C105.038 378.169 103.061 370.328 103.061 370.328Z" fill="#A8A8A8"/>
<path opacity="0.2" d="M137.934 376.936C126.755 378.896 111.628 379.547 108.342 378.239C105.834 377.247 104.093 372.473 103.407 370.242L103.061 370.328C103.061 370.328 105.033 378.164 108.324 379.472C111.616 380.781 126.738 380.124 137.916 378.164C141.145 377.587 142.067 376.272 141.721 374.589C141.462 375.667 140.338 376.515 137.934 376.936Z" fill="black"/>
<path d="M488.838 342.025C488.838 342.025 492.008 346.17 487.379 352.403C482.75 358.636 478.933 363.934 480.461 367.837C480.461 367.837 487.448 356.22 493.144 356.058C498.84 355.897 495.081 348.996 488.838 342.025Z" fill="#FCAC32"/>
<path opacity="0.1" d="M488.838 342.025C489.115 342.427 489.334 342.865 489.489 343.328C495.035 349.843 497.987 355.926 492.654 356.076C487.69 356.22 481.735 365.099 480.305 367.342C480.352 367.515 480.408 367.687 480.473 367.855C480.473 367.855 487.46 356.237 493.156 356.076C498.851 355.914 495.081 348.996 488.838 342.025Z" fill="black"/>
<path d="M494.729 347.306C494.729 348.765 494.562 349.947 494.361 349.947C494.159 349.947 493.997 348.794 493.997 347.306C493.997 345.819 494.199 346.534 494.401 346.534C494.603 346.534 494.729 345.848 494.729 347.306Z" fill="#FFD037"/>
<path d="M496.747 349.047C495.467 349.745 494.349 350.166 494.257 349.987C494.164 349.808 495.116 349.105 496.396 348.407C497.675 347.71 497.174 348.217 497.272 348.407C497.37 348.598 498.027 348.35 496.747 349.047Z" fill="#FFD037"/>
<path d="M472.113 342.025C472.113 342.025 468.943 346.17 473.572 352.403C478.201 358.636 482.018 363.934 480.49 367.837C480.49 367.837 473.509 356.22 467.807 356.058C462.105 355.897 465.858 348.996 472.113 342.025Z" fill="#FCAC32"/>
<path opacity="0.1" d="M472.113 342.025C471.836 342.427 471.617 342.865 471.462 343.328C465.916 349.843 462.964 355.926 468.297 356.076C473.26 356.22 479.216 365.099 480.645 367.342C480.599 367.516 480.541 367.688 480.472 367.855C480.472 367.855 473.491 356.237 467.79 356.076C462.088 355.914 465.858 348.996 472.113 342.025Z" fill="black"/>
<path d="M466.221 347.306C466.221 348.765 466.389 349.947 466.59 349.947C466.792 349.947 466.954 348.794 466.954 347.306C466.954 345.819 466.752 346.534 466.55 346.534C466.348 346.534 466.221 345.848 466.221 347.306Z" fill="#FFD037"/>
<path d="M464.204 349.047C465.484 349.745 466.596 350.166 466.694 349.987C466.792 349.808 465.835 349.105 464.555 348.407C463.276 347.71 463.777 348.217 463.679 348.407C463.581 348.598 462.924 348.35 464.204 349.047Z" fill="#FFD037"/>
<path d="M467.23 367.313C467.23 367.313 476.086 367.036 478.76 365.139C481.435 363.242 492.383 360.971 493.046 363.986C493.709 367.001 506.352 379.144 496.355 379.224C486.359 379.305 473.128 377.668 470.465 376.048C467.801 374.428 467.23 367.313 467.23 367.313Z" fill="#A8A8A8"/>
<path opacity="0.2" d="M496.528 378.192C486.532 378.273 473.301 376.636 470.638 375.016C468.608 373.782 467.795 369.348 467.53 367.301H467.23C467.23 367.301 467.807 374.445 470.459 376.065C473.111 377.685 486.353 379.323 496.35 379.242C499.232 379.242 500.229 378.192 500.177 376.676C499.774 377.604 498.673 378.175 496.528 378.192Z" fill="black"/>
</g>
<defs>
<linearGradient id="paint0_linear" x1="305.874" y1="405.216" x2="305.874" y2="12.6265" gradientUnits="userSpaceOnUse">
<stop stop-color="#808080" stop-opacity="0.25"/>
<stop offset="0.54" stop-color="#808080" stop-opacity="0.12"/>
<stop offset="1" stop-color="#808080" stop-opacity="0.1"/>
</linearGradient>
<clipPath id="clip0">
<rect width="582" height="442" fill="white"/>
</clipPath>
</defs>
</svg>
