<svg width="579" height="420" viewBox="0 0 579 420" fill="none" xmlns="http://www.w3.org/2000/svg">
<path d="M368.968 314.861V416.106H115.501C86.6215 416.106 63.1251 393.396 63.1251 365.483C63.1251 337.571 86.6215 314.861 115.501 314.861H368.968Z" fill="#F2F2F2"/>
<path d="M375.194 415.327C375.193 416.36 374.783 417.35 374.054 418.08C373.324 418.81 372.334 419.221 371.303 419.221H110.986C96.8477 419.221 83.2885 413.601 73.2913 403.596C63.294 393.591 57.6776 380.022 57.6776 365.873C57.6776 351.724 63.294 338.155 73.2913 328.15C83.2885 318.145 96.8477 312.525 110.986 312.525H371.303C372.335 312.525 373.324 312.935 374.054 313.665C374.784 314.395 375.194 315.386 375.194 316.419C375.194 317.451 374.784 318.442 374.054 319.172C373.324 319.902 372.335 320.313 371.303 320.313H110.986C98.9117 320.313 87.3319 325.113 78.7941 333.657C70.2563 342.201 65.4598 353.79 65.4598 365.873C65.4598 377.956 70.2563 389.545 78.7941 398.089C87.3319 406.633 98.9117 411.433 110.986 411.433H371.303C372.334 411.433 373.324 411.844 374.054 412.574C374.783 413.304 375.193 414.294 375.194 415.327Z" fill="#FCAC32"/>
<path d="M368.968 338.225H96.5888C96.3824 338.225 96.1845 338.143 96.0386 337.997C95.8926 337.851 95.8106 337.653 95.8106 337.446C95.8106 337.24 95.8926 337.042 96.0386 336.896C96.1845 336.75 96.3824 336.668 96.5888 336.668H368.968C369.174 336.668 369.372 336.75 369.518 336.896C369.664 337.042 369.746 337.24 369.746 337.446C369.746 337.653 369.664 337.851 369.518 337.997C369.372 338.143 369.174 338.225 368.968 338.225Z" fill="#CCCCCC"/>
<path d="M368.968 356.917H96.5888C96.3824 356.917 96.1845 356.834 96.0386 356.688C95.8926 356.542 95.8106 356.344 95.8106 356.138C95.8106 355.931 95.8926 355.733 96.0386 355.587C96.1845 355.441 96.3824 355.359 96.5888 355.359H368.968C369.174 355.359 369.372 355.441 369.518 355.587C369.664 355.733 369.746 355.931 369.746 356.138C369.746 356.344 369.664 356.542 369.518 356.688C369.372 356.834 369.174 356.917 368.968 356.917Z" fill="#CCCCCC"/>
<path d="M368.968 375.608H96.5888C96.3824 375.608 96.1845 375.526 96.0386 375.38C95.8926 375.234 95.8106 375.036 95.8106 374.829C95.8106 374.623 95.8926 374.425 96.0386 374.279C96.1845 374.132 96.3824 374.05 96.5888 374.05H368.968C369.174 374.05 369.372 374.132 369.518 374.279C369.664 374.425 369.746 374.623 369.746 374.829C369.746 375.036 369.664 375.234 369.518 375.38C369.372 375.526 369.174 375.608 368.968 375.608Z" fill="#CCCCCC"/>
<path d="M368.968 394.299H96.5888C96.3824 394.299 96.1845 394.217 96.0386 394.071C95.8926 393.925 95.8106 393.727 95.8106 393.52C95.8106 393.314 95.8926 393.116 96.0386 392.97C96.1845 392.824 96.3824 392.742 96.5888 392.742H368.968C369.174 392.742 369.372 392.824 369.518 392.97C369.664 393.116 369.746 393.314 369.746 393.52C369.746 393.727 369.664 393.925 369.518 394.071C369.372 394.217 369.174 394.299 368.968 394.299Z" fill="#CCCCCC"/>
<path d="M564.861 333.919L501.385 412.757L304.015 253.607C281.528 235.474 277.469 203.037 294.969 181.302C312.469 159.567 345.003 156.637 367.491 174.77L564.861 333.919Z" fill="#F2F2F2"/>
<path d="M506.721 416.059C506.074 416.863 505.133 417.377 504.107 417.487C503.082 417.598 502.054 417.296 501.25 416.648L298.547 253.198C287.537 244.321 280.503 231.431 278.991 217.363C277.479 203.295 281.613 189.202 290.483 178.185C299.354 167.168 312.235 160.128 326.292 158.615C340.349 157.101 354.431 161.238 365.44 170.116L568.144 333.566C568.542 333.886 568.873 334.283 569.118 334.731C569.363 335.18 569.518 335.673 569.573 336.182C569.628 336.69 569.582 337.205 569.438 337.696C569.294 338.187 569.055 338.644 568.734 339.043C568.413 339.441 568.017 339.772 567.569 340.017C567.12 340.262 566.627 340.417 566.119 340.471C565.611 340.526 565.097 340.48 564.606 340.335C564.116 340.191 563.659 339.951 563.261 339.63L360.558 176.18C355.902 172.423 350.553 169.621 344.816 167.934C339.078 166.246 333.065 165.707 327.119 166.346C321.173 166.985 315.411 168.79 310.163 171.658C304.914 174.525 300.281 178.4 296.529 183.06C292.777 187.72 289.979 193.074 288.295 198.817C286.611 204.559 286.075 210.577 286.715 216.528C287.356 222.478 289.162 228.243 292.03 233.495C294.898 238.746 298.771 243.381 303.429 247.134L506.133 410.584C506.936 411.232 507.449 412.173 507.56 413.2C507.67 414.226 507.368 415.255 506.721 416.059Z" fill="#CCCCCC"/>
<path d="M550.213 352.112L338.116 181.088C338.037 181.024 337.971 180.945 337.922 180.855C337.873 180.765 337.842 180.667 337.831 180.565C337.82 180.464 337.829 180.361 337.858 180.263C337.887 180.164 337.935 180.073 337.999 179.993C338.063 179.914 338.142 179.847 338.232 179.798C338.321 179.749 338.42 179.719 338.521 179.708C338.623 179.697 338.726 179.706 338.824 179.735C338.922 179.763 339.013 179.811 339.093 179.875L551.189 350.9C551.269 350.964 551.335 351.043 551.384 351.133C551.433 351.223 551.464 351.321 551.475 351.423C551.486 351.525 551.477 351.628 551.448 351.726C551.42 351.824 551.372 351.916 551.308 351.995C551.243 352.075 551.164 352.141 551.074 352.19C550.985 352.239 550.886 352.27 550.784 352.281C550.683 352.292 550.58 352.283 550.482 352.254C550.384 352.225 550.292 352.177 550.213 352.113V352.112Z" fill="#CCCCCC"/>
<path d="M538.494 366.667L326.398 195.643C326.237 195.513 326.135 195.325 326.113 195.12C326.091 194.915 326.152 194.709 326.281 194.548C326.41 194.388 326.598 194.285 326.803 194.263C327.008 194.241 327.214 194.301 327.374 194.43L539.471 365.454C539.55 365.518 539.617 365.597 539.666 365.687C539.715 365.777 539.746 365.876 539.757 365.977C539.768 366.079 539.759 366.182 539.73 366.28C539.701 366.379 539.653 366.47 539.589 366.55C539.525 366.63 539.446 366.696 539.356 366.745C539.266 366.794 539.167 366.825 539.066 366.836C538.964 366.846 538.861 366.837 538.763 366.808C538.665 366.779 538.574 366.731 538.494 366.667Z" fill="#CCCCCC"/>
<path d="M526.775 381.222L314.679 210.198C314.519 210.068 314.416 209.88 314.394 209.674C314.372 209.469 314.432 209.263 314.561 209.102C314.691 208.942 314.879 208.839 315.084 208.817C315.289 208.795 315.495 208.855 315.656 208.985L527.752 380.009C527.832 380.073 527.898 380.152 527.947 380.242C527.996 380.332 528.026 380.43 528.037 380.532C528.048 380.634 528.039 380.736 528.01 380.835C527.982 380.933 527.934 381.024 527.87 381.104C527.806 381.183 527.726 381.25 527.637 381.299C527.547 381.348 527.449 381.379 527.347 381.389C527.245 381.4 527.142 381.391 527.044 381.362C526.946 381.334 526.855 381.286 526.775 381.222V381.222Z" fill="#CCCCCC"/>
<path d="M515.057 395.776L302.961 224.752C302.881 224.688 302.815 224.609 302.766 224.519C302.717 224.429 302.686 224.331 302.675 224.229C302.664 224.127 302.673 224.025 302.702 223.926C302.731 223.828 302.779 223.737 302.843 223.657C302.907 223.577 302.986 223.511 303.076 223.462C303.166 223.413 303.264 223.382 303.366 223.371C303.467 223.36 303.57 223.37 303.668 223.398C303.766 223.427 303.858 223.475 303.937 223.539L516.033 394.563C516.113 394.627 516.179 394.707 516.228 394.796C516.278 394.886 516.309 394.985 516.32 395.087C516.331 395.188 516.321 395.291 516.293 395.39C516.264 395.488 516.216 395.579 516.152 395.659C516.088 395.739 516.008 395.805 515.919 395.854C515.829 395.903 515.73 395.934 515.629 395.945C515.527 395.956 515.424 395.946 515.326 395.917C515.228 395.889 515.136 395.841 515.057 395.776Z" fill="#CCCCCC"/>
<path d="M263.103 304.219L254.207 304.219L249.975 269.876L263.106 269.878L263.103 304.219Z" fill="#FFB8B8"/>
<path d="M247.851 301.675H265.009V312.486H237.048C237.048 311.066 237.327 309.66 237.87 308.349C238.413 307.037 239.209 305.845 240.212 304.841C241.215 303.837 242.406 303.041 243.717 302.498C245.028 301.954 246.433 301.675 247.851 301.675Z" fill="#2F2E41"/>
<path d="M172.21 304.219L163.314 304.219L159.083 269.876L172.214 269.878L172.21 304.219Z" fill="#FFB8B8"/>
<path d="M156.959 301.675H174.117V312.486H146.155C146.155 311.066 146.435 309.66 146.978 308.349C147.521 307.037 148.316 305.845 149.32 304.841C150.323 303.837 151.514 303.041 152.824 302.498C154.135 301.954 155.54 301.675 156.959 301.675Z" fill="#2F2E41"/>
<path d="M201.927 49.48V45.5859C201.927 38.9246 204.571 32.5361 209.278 27.8258C213.985 23.1156 220.368 20.4694 227.025 20.4694H227.025C233.681 20.4694 240.065 23.1156 244.772 27.8258C249.478 32.5361 252.123 38.9246 252.123 45.5859V49.48C252.123 54.2823 250.216 58.888 246.823 62.2838C243.43 65.6796 238.828 67.5873 234.029 67.5873H220.021C217.645 67.5873 215.292 67.1189 213.097 66.209C210.901 65.299 208.907 63.9652 207.226 62.2838C205.546 60.6024 204.214 58.6062 203.304 56.4094C202.395 54.2125 201.927 51.8579 201.927 49.48Z" fill="#2F2E41"/>
<path d="M227.025 68.9272C237.581 68.9272 246.139 60.3631 246.139 49.7988C246.139 39.2346 237.581 30.6705 227.025 30.6705C216.468 30.6705 207.911 39.2346 207.911 49.7988C207.911 60.3631 216.468 68.9272 227.025 68.9272Z" fill="#FFB8B8"/>
<path d="M123.057 115.54C123.832 114.807 124.759 114.254 125.772 113.918C126.785 113.582 127.858 113.473 128.918 113.597C129.978 113.722 130.997 114.077 131.904 114.639C132.812 115.2 133.585 115.954 134.17 116.847L150.555 113.745L154.867 123.25L131.667 127.305C130.103 128.189 128.269 128.468 126.513 128.089C124.757 127.71 123.201 126.7 122.14 125.25C121.079 123.8 120.586 122.01 120.755 120.221C120.924 118.431 121.743 116.766 123.057 115.54V115.54Z" fill="#FFB8B8"/>
<path d="M212.123 80.9736L212.337 81.2985L185.468 99.012L140.13 113.5C139.529 113.694 139.014 114.089 138.672 114.62C138.329 115.151 138.181 115.784 138.253 116.412L139.242 124.937C139.286 125.314 139.408 125.678 139.601 126.006C139.794 126.333 140.052 126.616 140.361 126.838C140.669 127.059 141.021 127.213 141.392 127.291C141.764 127.368 142.148 127.367 142.519 127.288L185.189 118.135C187.254 117.694 189.206 116.834 190.925 115.607L221.111 94.1145C222.205 93.3311 223.079 92.2776 223.646 91.0565C224.213 89.8355 224.454 88.4883 224.347 87.1461C224.237 85.802 223.778 84.51 223.017 83.397C222.256 82.284 221.219 81.3885 220.007 80.7985C218.795 80.2084 217.451 79.9443 216.106 80.0319C214.761 80.1196 213.462 80.5561 212.337 81.2985L212.123 80.9736Z" fill="#CCCCCC"/>
<path d="M254.366 294.474C253.683 294.474 253.015 294.275 252.443 293.902C251.871 293.528 251.42 292.996 251.146 292.37L210.359 191.514C210.264 191.295 210.104 191.111 209.901 190.986C209.698 190.861 209.461 190.801 209.223 190.814C208.985 190.828 208.757 190.914 208.569 191.061C208.381 191.208 208.243 191.409 208.173 191.637L174.897 289.824C174.757 290.281 174.525 290.705 174.215 291.068C173.905 291.432 173.524 291.728 173.095 291.939C172.666 292.15 172.199 292.271 171.722 292.295C171.244 292.318 170.768 292.244 170.32 292.076L159.162 287.888C158.556 287.663 158.025 287.274 157.627 286.765C157.229 286.255 156.98 285.646 156.907 285.003C151.887 241.24 195.663 130.776 196.106 129.666L196.228 129.358L236.134 138.192L236.217 138.282C252.137 155.664 265.224 265.292 267.685 287.092C267.777 287.879 267.598 288.675 267.178 289.347C266.758 290.019 266.121 290.527 265.373 290.789L255.524 294.275C255.152 294.407 254.76 294.474 254.366 294.474Z" fill="#2F2E41"/>
<path d="M219.983 141.747C210.315 141.747 199.536 139.818 196.218 131.856L196.141 131.673L196.245 131.503C198.863 127.203 202.325 119.868 200.464 118.491C196.799 115.779 195.021 111.318 195.179 105.231C195.522 92.0182 204.518 80.287 217.565 76.0397H217.566C221.207 74.8733 224.913 73.9184 228.665 73.1796C231.401 72.6273 234.224 72.6881 236.933 73.3575C239.642 74.027 242.169 75.2886 244.333 77.0516C246.524 78.8262 248.295 81.0644 249.519 83.6055C250.743 86.1466 251.389 88.9274 251.412 91.7482C251.548 105.869 249.376 125.535 238.25 139.038C237.729 139.664 237.003 140.086 236.201 140.23C230.848 141.199 225.423 141.707 219.983 141.747Z" fill="#CCCCCC"/>
<path d="M216.387 141.219C216.913 139.33 218.162 137.725 219.864 136.753C221.566 135.781 223.582 135.521 225.475 136.029C225.861 136.137 226.238 136.276 226.602 136.446L239.043 125.115L247.695 130.949L229.904 146.705C229.1 148.155 227.836 149.294 226.311 149.941C224.786 150.588 223.088 150.706 221.489 150.277C220.557 150.022 219.685 149.584 218.923 148.99C218.161 148.395 217.524 147.655 217.05 146.813C216.575 145.97 216.272 145.042 216.159 144.082C216.045 143.122 216.122 142.149 216.387 141.219Z" fill="#FFB8B8"/>
<path d="M237.072 141.363C236.265 141.363 235.483 141.084 234.858 140.572L229.952 136.56C229.543 136.225 229.215 135.802 228.992 135.323C228.769 134.844 228.658 134.32 228.666 133.792C228.674 133.263 228.802 132.743 229.039 132.271C229.276 131.799 229.617 131.387 230.037 131.065L250.614 115.271C250.858 115.083 251.018 114.806 251.059 114.501C251.101 114.195 251.02 113.886 250.835 113.64L238.134 96.8359C236.658 94.8901 235.918 92.4846 236.044 90.0452C236.171 87.6058 237.156 85.2898 238.824 83.5072C240.582 81.6076 242.989 80.4386 245.568 80.2322C248.146 80.0258 250.708 80.7971 252.745 82.393L252.825 82.4778L266.088 101.483C267.522 102.608 268.677 104.05 269.462 105.695C270.247 107.341 270.642 109.146 270.615 110.97C270.588 112.794 270.14 114.586 269.306 116.208C268.472 117.83 267.275 119.236 265.808 120.318L239.157 140.675C238.553 141.122 237.823 141.363 237.072 141.363Z" fill="#CCCCCC"/>
<path d="M210.094 44.4178V34.9271L227.025 27.5284L243.168 34.9271V44.4178C243.168 44.8309 243.005 45.2271 242.713 45.5192C242.421 45.8113 242.025 45.9754 241.612 45.9754H211.65C211.238 45.9754 210.842 45.8113 210.55 45.5192C210.258 45.2271 210.094 44.8309 210.094 44.4178Z" fill="#2F2E41"/>
<path d="M226.247 21.7284C223.758 13.7546 228.986 4.61621 236.715 1.45996C244.444 -1.69629 253.691 0.510027 260.213 5.72463C266.734 10.9392 270.781 18.7497 272.925 26.8234C275.069 34.8972 275.476 43.3161 275.871 51.6607C285.368 53.4063 291.827 64.6779 288.538 73.7619C285.248 82.846 273.072 87.359 264.663 82.611C256.255 77.863 253.819 65.0998 259.888 57.585C262.76 54.0292 264.364 49.6162 264.446 45.0451C264.529 40.4739 263.085 36.0059 260.344 32.3486C257.602 28.6913 253.72 26.0538 249.311 24.8539C244.903 23.654 240.221 23.9603 236.006 25.7242C231.326 27.6828 225.454 22.5939 226.247 21.7284Z" fill="#2F2E41"/>
<path d="M119.546 78.724C108.177 78.6494 96.9499 76.1886 86.5901 71.5007C85.9734 71.2256 85.45 70.777 85.0835 70.2095C84.7171 69.642 84.5235 68.9801 84.5263 68.3045V39.9419C84.5274 39.0127 84.8967 38.1219 85.5532 37.4649C86.2097 36.8078 87.0999 36.4383 88.0284 36.4373H151.065C151.993 36.4383 152.883 36.8079 153.54 37.4649C154.196 38.1219 154.566 39.0127 154.567 39.9419V68.3045C154.569 68.9802 154.376 69.642 154.009 70.2095C153.643 70.7771 153.12 71.2257 152.503 71.5007C142.143 76.1886 130.916 78.6494 119.546 78.724Z" fill="#FCAC32"/>
<path d="M119.538 55.7469C119.071 55.7473 118.608 55.6542 118.177 55.4731L68.19 34.3677C67.5454 34.0956 66.997 33.6365 66.6156 33.0495C66.2341 32.4626 66.0371 31.7747 66.05 31.0747C66.0628 30.3747 66.2849 29.6945 66.6875 29.122C67.0902 28.5494 67.655 28.1107 68.3092 27.8624L118.297 8.88457C119.102 8.5775 119.992 8.5794 120.796 8.8899L170.114 27.8676C170.764 28.118 171.325 28.5568 171.725 29.128C172.125 29.6992 172.345 30.3768 172.358 31.074C172.371 31.7713 172.176 32.4566 171.797 33.0422C171.419 33.6278 170.874 34.087 170.234 34.3613L120.915 55.4663C120.48 55.6519 120.011 55.7473 119.538 55.7469Z" fill="#FCAC32"/>
<path d="M90.363 73.4307C92.9418 73.4307 95.0324 71.3386 95.0324 68.7578C95.0324 66.1771 92.9418 64.085 90.363 64.085C87.7842 64.085 85.6937 66.1771 85.6937 68.7578C85.6937 71.3386 87.7842 73.4307 90.363 73.4307Z" fill="#3F3D56"/>
<path opacity="0.2" d="M170.404 31.3655L121.085 52.4705C120.701 52.6351 120.287 52.7204 119.869 52.7214C119.451 52.7224 119.037 52.6391 118.652 52.4764L68.6647 31.3717C68.0369 31.1129 67.5132 30.6523 67.1762 30.0624C66.9558 30.4449 66.8192 30.87 66.7756 31.3093C66.7319 31.7487 66.7821 32.1923 66.9229 32.6108C67.0636 33.0292 67.2917 33.4129 67.592 33.7364C67.8924 34.0599 68.258 34.3157 68.6647 34.4869L118.652 55.5917C119.037 55.7543 119.451 55.8377 119.869 55.8366C120.287 55.8356 120.701 55.7503 121.085 55.5858L170.404 34.4807C170.809 34.308 171.172 34.0514 171.47 33.7278C171.768 33.4042 171.995 33.0209 172.134 32.6034C172.273 32.1858 172.323 31.7434 172.279 31.3054C172.235 30.8674 172.098 30.4437 171.878 30.0624C171.544 30.6475 171.026 31.1056 170.404 31.3655Z" fill="black"/>
<path d="M90.7554 68.7395C90.9618 68.7395 91.1597 68.6575 91.3057 68.5114C91.4516 68.3653 91.5336 68.1672 91.5336 67.9607V41.9007L117.2 32.5432C117.407 32.5463 117.606 32.4672 117.754 32.3233C117.902 32.1794 117.987 31.9826 117.99 31.776C117.993 31.5694 117.914 31.3701 117.771 31.2219C117.627 31.0737 117.43 30.9887 117.224 30.9856L91.5568 40.3431C91.3502 40.3383 91.1449 40.3756 90.9531 40.4526C90.7614 40.5296 90.5873 40.6447 90.4413 40.791C90.2938 40.9356 90.1767 41.1083 90.097 41.2989C90.0173 41.4894 89.9765 41.6941 89.9772 41.9007V67.9607C89.9772 68.1672 90.0592 68.3653 90.2051 68.5114C90.351 68.6574 90.549 68.7395 90.7554 68.7395Z" fill="#3F3D56"/>
</svg>
