<svg id="Capa_1" enable-background="new 0 0 512 512" height="512" viewBox="0 0 512 512" width="512" xmlns="http://www.w3.org/2000/svg"><g><g><path d="m507.259 421.625-70.975-70.975c5.895-1.235 11.513-4.076 16.117-8.546 6.385-6.199 9.937-14.514 10.002-23.413.065-8.898-3.363-17.264-9.655-23.556l-10.752-10.752c-2.93-2.929-7.679-2.929-10.606 0-2.93 2.929-2.93 7.677-.001 10.606l10.752 10.752c3.43 3.43 5.299 7.989 5.263 12.839-.035 4.85-1.972 9.382-5.451 12.761-7.015 6.811-18.339 6.72-25.246-.205l-35.534-35.6c-2.145-2.148-5.369-2.793-8.176-1.632-2.804 1.16-4.633 3.896-4.633 6.93v126.006c0 7.66-6.231 13.892-13.892 13.892s-13.892-6.232-13.892-13.892v-44.336c0-4.142-3.357-7.5-7.5-7.5s-7.5 3.358-7.5 7.5v32.886c0 3.804-1.508 7.354-4.246 9.997-2.736 2.641-6.35 4.021-10.159 3.885-7.377-.262-13.378-6.72-13.378-14.395v-47.06c0-4.142-3.357-7.5-7.5-7.5s-7.5 3.358-7.5 7.5v36.091c0 7.66-6.231 13.892-13.892 13.892s-13.892-6.232-13.892-13.892v-46.716c0-4.142-3.357-7.5-7.5-7.5s-7.5 3.358-7.5 7.5v23.723c0 3.805-1.508 7.355-4.247 9.998-2.736 2.641-6.361 4.01-10.157 3.885-7.377-.262-13.378-6.72-13.378-14.396v-12.5c0-4.142-3.357-7.5-7.5-7.5s-7.5 3.358-7.5 7.5v12.5c0 15.658 12.491 28.841 27.845 29.386 5.353.194 10.494-1.055 15.028-3.573 1.181 14.856 13.646 26.584 28.801 26.584 6.228 0 12.003-1.981 16.726-5.346 4.537 9.582 14.044 16.418 25.011 16.808 6.406.225 12.526-1.604 17.646-5.215 4.608 9.848 14.612 16.685 26.185 16.685 3.259 0 6.389-.55 9.313-1.549l55.621 55.62c1.465 1.464 3.385 2.197 5.304 2.197s3.839-.732 5.304-2.197c2.929-2.929 2.929-7.678 0-10.606l-53.599-53.596c4.325-5.052 6.946-11.604 6.946-18.76v-107.874l113.289 113.265c1.465 1.464 3.384 2.197 5.304 2.197 1.919 0 3.839-.732 5.304-2.197 2.929-2.928 2.929-7.677 0-10.606z"/><path d="m197.23 331.976c0 4.142 3.357 7.5 7.5 7.5s7.5-3.358 7.5-7.5v-7.895c10.831-4.172 18.539-14.683 18.539-26.967 0-13.244-8.961-24.427-21.136-27.825 2.653-4.366 4.182-9.486 4.182-14.957 0-1.297-.094-2.572-.261-3.824 13.75-8.253 22.441-23.354 22.441-39.543 0-1.35-.071-2.684-.185-4.005 2.095-.552 4.021-1.636 5.594-3.209l9.185-9.185c1.211-1.211 2.135-2.632 2.75-4.177.605-.241 1.186-.537 1.747-.872l20.438 21.582c.799.844 1.783 1.491 2.875 1.889l99.313 36.237c8.15 2.974 15.7 7.788 21.833 13.922l6.44 6.44c1.464 1.464 3.384 2.196 5.303 2.196s3.839-.732 5.304-2.197c2.929-2.929 2.929-7.678-.001-10.607l-6.439-6.439c-7.668-7.669-17.106-13.688-27.297-17.406l-57.313-20.912-20.912-57.313c-3.719-10.189-9.737-19.628-17.406-27.297l-31.803-31.802c-12.859-12.858-33.782-12.858-46.642 0-3.61 3.611-6.267 7.968-7.873 12.68l-6.976-7.367c5.06-6.662 4.685-16.033-1.242-22.293l-74.325-78.487c-2.848-3.008-7.595-3.137-10.603-.289-3.007 2.848-3.137 7.595-.288 10.603l74.324 78.487c.861.91.842 2.315-.044 3.201l-16.774 16.774c-2.929 2.929-2.929 7.678 0 10.606 1.465 1.464 3.385 2.197 5.304 2.197s3.839-.732 5.304-2.197l7.86-7.86 28.509 30.106c-.782.969-1.403 2.038-1.857 3.176-1.545.615-2.965 1.539-4.175 2.75l-9.188 9.187c-1.698 1.699-2.787 3.775-3.291 5.96-1.163-.088-2.333-.148-3.519-.148-14.218 0-27.626 6.604-36.333 17.762h-7.495c2.272-4.125 3.568-8.859 3.568-13.892 0-5.983-1.829-11.548-4.956-16.164l5.472-5.472c2.929-2.929 2.929-7.678 0-10.606-2.93-2.929-7.678-2.929-10.607 0l-6.232 6.232c-3.802-1.845-8.066-2.881-12.568-2.881h-33.618c-10.035 0-18.888 5.146-24.069 12.934l-47.739-47.739c-2.929-2.929-7.677-2.93-10.607 0-2.929 2.929-2.929 7.678 0 10.606l53.535 53.535c.24 15.725 13.099 28.446 28.88 28.446h3.364c-2.272 4.125-3.568 8.859-3.568 13.892 0 15.931 12.961 28.892 28.892 28.892h.137c-2.272 4.125-3.568 8.859-3.568 13.892 0 15.931 12.961 28.892 28.892 28.892h9.134c-2.272 4.125-3.568 8.859-3.568 13.891 0 15.931 12.961 28.891 28.892 28.891h21.468v5.969zm28.065-180.239 5.505-5.505 23.455 23.454-5.506 5.505zm-10.916-27.562c-.981-5.75.891-11.642 5.007-15.759 7.011-7.01 18.419-7.011 25.428 0l31.801 31.801c6.134 6.134 10.948 13.684 13.922 21.833l16.584 45.45-21.921-7.998-19.235-20.312.738-.738c4.832-4.833 4.832-12.698-.001-17.532l-27.135-27.134c-2.341-2.342-5.454-3.632-8.767-3.632-3.083 0-5.986 1.131-8.264 3.176l-8.083-8.535c-.018-.206-.039-.412-.074-.62zm-4.346 44.525-.851-.85 5.506-5.505 23.454 23.454-5.505 5.505-1.222-1.221c-.251-.251-.52-.473-.795-.681-4.389-8.25-11.213-15.009-19.508-19.324-.3-.49-.655-.955-1.079-1.378zm10.962 42.265c0 10.208-5.13 19.769-13.376 25.521-5.225-6.63-13.283-10.924-22.334-11.036 2.275-4.127 3.573-8.865 3.573-13.901 0-11.533-6.795-21.505-16.59-26.135 5.129-3.541 11.272-5.519 17.657-5.519 17.133.001 31.07 13.938 31.07 31.07zm-147.73-42.199c0-7.66 6.231-13.892 13.892-13.892h33.618c7.66 0 13.892 6.232 13.892 13.892s-6.231 13.892-13.892 13.892h-33.619c-7.66-.001-13.891-6.233-13.891-13.892zm28.687 42.783c0-7.66 6.231-13.892 13.892-13.892h44.123c7.66 0 13.892 6.232 13.892 13.892s-6.231 13.892-13.892 13.892h-44.123c-7.66-.001-13.892-6.232-13.892-13.892zm25.461 42.783c0-7.66 6.231-13.892 13.892-13.892h43.619c7.66 0 13.892 6.232 13.892 13.892s-6.231 13.892-13.892 13.892h-43.619c-7.66 0-13.892-6.232-13.892-13.892zm34.458 42.783c0-7.66 6.231-13.891 13.892-13.891h26.116c7.659 0 13.891 6.232 13.891 13.892s-6.231 13.891-13.891 13.891h-26.116c-7.66-.001-13.892-6.233-13.892-13.892z"/></g></g></svg>