<svg width="58" height="60" viewBox="0 0 58 60" fill="none" xmlns="http://www.w3.org/2000/svg">
<path d="M9.97337 1.08817L1.05322 10.3159L48.0293 58.9118L56.9494 49.6841L9.97337 1.08817Z" fill="#7190C4"/>
<path d="M55.4626 48.125L50.9736 52.775C50.1905 53.5792 49.1318 54.0305 48.0283 54.0305C46.9249 54.0305 45.8662 53.5792 45.083 52.775L2.5376 8.75002L9.96885 1.08752L55.4626 48.125Z" fill="#89A3CE"/>
<path d="M54.2722 46.9187L53.946 47.2562C53.1644 48.0634 52.1051 48.5168 51.0007 48.5168C49.8962 48.5168 48.8369 48.0634 48.0553 47.2562L9.56992 7.44373C9.13255 6.97726 8.88794 6.35295 8.88794 5.7031C8.88794 5.05325 9.13255 4.42894 9.56992 3.96248L11.1589 2.31873L54.2722 46.9187Z" fill="#A5B9DB"/>
<path d="M56.9488 5.69999C56.9541 6.2865 56.7373 6.85186 56.3446 7.27499L10.5669 54.6062L1.05127 58.9125L2.33814 55.8687L5.21398 49.0687L50.9675 1.73749C51.3708 1.32829 51.9131 1.09906 52.4779 1.09906C53.0428 1.09906 53.5851 1.32829 53.9884 1.73749L56.3204 4.12499C56.4193 4.23231 56.5102 4.34723 56.5923 4.46874C56.824 4.83473 56.9479 5.2625 56.9488 5.69999Z" fill="#F6B756"/>
<path d="M56.5802 7.00625L51.2213 12.55L50.0129 11.3L56.3204 4.81875C56.4208 4.71056 56.5118 4.59344 56.5923 4.46875C56.5102 4.34723 56.4193 4.23232 56.3204 4.125L56.5802 4.4C56.9069 4.74962 57.0895 5.21687 57.0895 5.70312C57.0895 6.18938 56.9069 6.65663 56.5802 7.00625Z" fill="#BD5698"/>
<path d="M56.5924 4.46874C56.5118 4.59343 56.4209 4.71055 56.3205 4.81874L10.5669 52.1437L9.92049 52.4375L2.34424 55.8687L5.20195 49.1L50.9676 1.73749C51.3708 1.32829 51.9131 1.09906 52.478 1.09906C53.0429 1.09906 53.5852 1.32829 53.9884 1.73749L56.3205 4.12499C56.4194 4.23231 56.5103 4.34723 56.5924 4.46874Z" fill="#FAC77D"/>
<path d="M56.5924 4.46874C56.5118 4.59343 56.4209 4.71055 56.3205 4.81874L50.0311 11.3187L45.8684 7.01249L50.9676 1.73749C51.3708 1.32829 51.9131 1.09906 52.478 1.09906C53.0429 1.09906 53.5852 1.32829 53.9884 1.73749L56.3205 4.12499C56.4194 4.23231 56.5103 4.34723 56.5924 4.46874Z" fill="#C96FA6"/>
<path d="M10.5367 54.6187L1.05127 58.9125L2.33814 55.8687L9.92044 52.4375C10.2575 53.1177 10.4666 53.8579 10.5367 54.6187Z" fill="#D9B18C"/>
<path d="M5.02669 57.1125L1.05127 58.9125L2.79127 54.8C3.31138 54.9803 3.78395 55.2831 4.17184 55.6843C4.55972 56.0856 4.85234 56.5744 5.02669 57.1125Z" fill="#5C5F7D"/>
<path d="M9.92049 52.4375L2.34424 55.8687L5.20195 49.1C6.19683 49.1991 7.15127 49.5571 7.97633 50.1407C8.8014 50.7242 9.47022 51.5144 9.92049 52.4375Z" fill="#E5C2A1"/>
<path d="M47.9769 9.18748L8.61545 49.9C8.50252 50.0145 8.35068 50.0786 8.19254 50.0786C8.03439 50.0786 7.88255 50.0145 7.76962 49.9C7.66072 49.7834 7.59985 49.6277 7.59985 49.4656C7.59985 49.3035 7.66072 49.1478 7.76962 49.0312L47.125 8.31873L47.9769 9.18748Z" fill="#FFD69E"/>
<path d="M52.6592 4.08124C52.6585 4.24215 52.598 4.39662 52.49 4.51249L47.9769 9.18748L47.125 8.31874L51.6442 3.64999C51.7289 3.57059 51.8337 3.5177 51.9463 3.49745C52.0589 3.4772 52.1748 3.49042 52.2805 3.53558C52.3861 3.58074 52.4772 3.65599 52.5432 3.75257C52.6092 3.84916 52.6473 3.96313 52.6531 4.08124H52.6592Z" fill="#D686B5"/>
<path d="M45.8693 7.01209L43.3445 9.62396L48.6974 15.1615L51.2222 12.5496L45.8693 7.01209Z" fill="#8288A1"/>
<path d="M45.8737 7.00763L43.3489 9.61951L47.5099 13.924L50.0347 11.3121L45.8737 7.00763Z" fill="#969CB2"/>
<path d="M47.0624 8.23932L44.5376 10.8512L45.7252 12.0798L48.2501 9.46792L47.0624 8.23932Z" fill="#AEB4C6"/>
<path d="M36.975 28.1562L49.1187 15.625L51.6441 13.0125L56.7373 7.74375C57.2519 7.21056 57.541 6.48787 57.541 5.73437C57.541 4.98088 57.2519 4.25819 56.7373 3.725L54.4293 1.30625C53.9139 0.773835 53.2153 0.474792 52.4869 0.474792C51.7586 0.474792 51.06 0.773835 50.5445 1.30625L45.4514 6.575L42.926 9.1875L30.8125 21.75L10.3916 0.656249C10.279 0.543599 10.1284 0.48063 9.97173 0.48063C9.81505 0.48063 9.6645 0.543599 9.55184 0.656249L5.09309 5.26875L0.634339 9.88125C0.525444 9.99779 0.464574 10.1535 0.464574 10.3156C0.464574 10.4777 0.525444 10.6335 0.634339 10.75L21.025 31.875L4.79705 48.6312C4.75005 48.6829 4.7113 48.742 4.68226 48.8062L0.507464 58.6625C0.454454 58.7802 0.438188 58.912 0.460925 59.0397C0.483662 59.1674 0.544273 59.2846 0.634339 59.375C0.745378 59.489 0.894814 59.5539 1.05121 59.5563C1.13423 59.5569 1.2165 59.5399 1.29288 59.5062L10.8025 55.2C10.8619 55.1684 10.9168 55.1284 10.9656 55.0812L27.2177 38.25L47.6083 59.375C47.721 59.4877 47.8715 59.5506 48.0282 59.5506C48.1849 59.5506 48.3354 59.4877 48.4481 59.375L52.9068 54.7625L57.3958 50.1188C57.5047 50.0022 57.5656 49.8465 57.5656 49.6844C57.5656 49.5223 57.5047 49.3665 57.3958 49.25L36.975 28.1562ZM10.9112 53.375C10.6054 52.2654 10.031 51.2548 9.24236 50.4389C8.45367 49.623 7.47678 49.0288 6.40413 48.7125L43.3489 10.4937L47.856 15.1562L10.9112 53.375ZM5.32871 56.3062C4.93453 55.5296 4.32136 54.8953 3.57059 54.4875L5.56434 49.775C6.63938 49.9743 7.62964 50.5094 8.40192 51.3083C9.1742 52.1072 9.69146 53.1316 9.88413 54.2438L5.32871 56.3062ZM51.3843 2.175C51.6819 1.88264 52.0766 1.71964 52.4869 1.71964C52.8973 1.71964 53.292 1.88264 53.5895 2.175L55.8975 4.5625C56.1871 4.86653 56.3495 5.27626 56.3495 5.70312C56.3495 6.12999 56.1871 6.53971 55.8975 6.84375L51.2212 11.675L46.7141 7.0125L51.3843 2.175ZM45.8683 7.88125L50.3814 12.55L48.7018 14.2875L44.1887 9.61875L45.8683 7.88125ZM9.96871 1.95625L13.5937 5.70625L13.1225 6.19375C13.0352 6.31411 12.9928 6.46299 13.0031 6.61305C13.0135 6.76312 13.0757 6.90431 13.1786 7.01069C13.2814 7.11707 13.4179 7.18151 13.563 7.19218C13.708 7.20284 13.852 7.15902 13.9683 7.06875L14.4395 6.58125L15.9741 8.16875L14.9108 9.26875C14.8001 9.38558 14.7381 9.54265 14.7381 9.70625C14.7381 9.86984 14.8001 10.0269 14.9108 10.1437C15.0228 10.2554 15.1721 10.3181 15.3277 10.3187C15.4853 10.3197 15.6371 10.2569 15.7506 10.1437L16.8139 9.0375L18.3485 10.625L17.8773 11.1125C17.7987 11.2 17.7459 11.3089 17.7253 11.4264C17.7047 11.5439 17.717 11.665 17.7609 11.7755C17.8047 11.886 17.8783 11.9811 17.9728 12.0497C18.0673 12.1183 18.1788 12.1574 18.2941 12.1625C18.4526 12.1618 18.6045 12.0967 18.717 11.9812L19.1883 11.4937L20.7289 13.0812L19.6595 14.1875C19.5807 14.2754 19.5279 14.3848 19.5075 14.5029C19.4871 14.6209 19.5 14.7425 19.5445 14.8532C19.5891 14.9639 19.6635 15.059 19.7589 15.1271C19.8543 15.1953 19.9666 15.2336 20.0825 15.2375C20.2389 15.2352 20.3883 15.1702 20.4993 15.0562L21.5687 13.9562L23.1033 15.5437L22.632 16.0312C22.5232 16.1478 22.4623 16.3035 22.4623 16.4656C22.4623 16.6277 22.5232 16.7835 22.632 16.9C22.7446 17.0155 22.8965 17.0806 23.055 17.0812C23.1327 17.0822 23.2099 17.0666 23.2816 17.0354C23.3533 17.0042 23.4181 16.9581 23.4718 16.9L23.9431 16.4125L25.4837 18.0062L24.4143 19.1062C24.3054 19.2228 24.2446 19.3785 24.2446 19.5406C24.2446 19.7027 24.3054 19.8585 24.4143 19.975C24.5273 20.0895 24.6791 20.1537 24.8373 20.1537C24.9954 20.1537 25.1472 20.0895 25.2602 19.975L26.3235 18.875L27.8641 20.4625L27.3929 20.9562C27.315 21.0425 27.2623 21.1498 27.241 21.2657C27.2196 21.3817 27.2304 21.5015 27.2721 21.6114C27.3138 21.7212 27.3848 21.8166 27.4767 21.8865C27.5686 21.9564 27.6778 21.9979 27.7916 22.0062C27.9501 22.0056 28.102 21.9405 28.2145 21.825L28.6858 21.3375L29.9243 22.5875L26.2993 26.3375L6.36184 5.675L9.96871 1.95625ZM1.89101 10.3125L5.51601 6.5625L25.4837 27.2312L21.8587 30.9812L1.89101 10.3125ZM3.0933 55.625C3.5719 55.8974 3.96582 56.3049 4.22913 56.8L2.20517 57.7188L3.0933 55.625ZM48.0252 58.05L28.0877 37.3875L31.7127 33.6375L51.6441 54.3L48.0252 58.05ZM52.49 53.4313L32.5162 32.7687L36.1412 29.0187L37.3495 30.3L36.8783 30.7875C36.7694 30.904 36.7085 31.0598 36.7085 31.2219C36.7085 31.384 36.7694 31.5397 36.8783 31.6562C36.9908 31.7717 37.1427 31.8368 37.3012 31.8375C37.379 31.8384 37.4561 31.8228 37.5278 31.7916C37.5995 31.7605 37.6643 31.7144 37.7181 31.6562L38.1954 31.1687L39.73 32.7625L38.6666 33.8687C38.5559 33.9856 38.4939 34.1427 38.4939 34.3062C38.4939 34.4698 38.5559 34.6269 38.6666 34.7437C38.7786 34.8554 38.928 34.9181 39.0835 34.9187C39.2411 34.9197 39.3929 34.8569 39.5064 34.7437L40.5698 33.6375L42.1104 35.2312L41.6391 35.7188C41.5605 35.8062 41.5078 35.9151 41.4872 36.0326C41.4665 36.1501 41.4789 36.2713 41.5227 36.3818C41.5666 36.4922 41.6401 36.5874 41.7346 36.656C41.8291 36.7245 41.9407 36.7637 42.056 36.7687C42.2145 36.7681 42.3664 36.703 42.4789 36.5875L42.9502 36.1L44.4848 37.6875L43.4214 38.7937C43.3425 38.8816 43.2897 38.9911 43.2694 39.1091C43.249 39.2272 43.2618 39.3488 43.3064 39.4595C43.351 39.5702 43.4254 39.6652 43.5208 39.7334C43.6162 39.8015 43.7285 39.8398 43.8443 39.8438C44.0007 39.8414 44.1502 39.7765 44.2612 39.6625L45.3306 38.5562L46.8652 40.15L46.3939 40.6375C46.315 40.7254 46.2623 40.8348 46.2419 40.9529C46.2215 41.0709 46.2343 41.1925 46.2789 41.3032C46.3235 41.4139 46.3979 41.509 46.4933 41.5771C46.5887 41.6453 46.701 41.6836 46.8168 41.6875C46.9732 41.6852 47.1227 41.6202 47.2337 41.5063L47.705 41.0187L49.2456 42.6125L48.1762 43.7125C48.0673 43.829 48.0064 43.9848 48.0064 44.1469C48.0064 44.309 48.0673 44.4647 48.1762 44.5813C48.2891 44.6958 48.441 44.7599 48.5991 44.7599C48.7573 44.7599 48.9091 44.6958 49.022 44.5813L50.0854 43.4813L51.62 45.0688L51.1487 45.5563C51.0615 45.6766 51.0191 45.8255 51.0294 45.9756C51.0397 46.1256 51.102 46.2668 51.2048 46.3732C51.3077 46.4796 51.4442 46.544 51.5892 46.5547C51.7343 46.5653 51.8782 46.5215 51.9945 46.4313L52.4658 45.9438L56.0908 49.6938L52.49 53.4313Z" fill="#39426A"/>
</svg>
