<svg width="249" height="22" viewBox="0 0 249 22" fill="none" xmlns="http://www.w3.org/2000/svg">
<g clip-path="url(#clip0)">
<path d="M24.999 2.3741C24.0253 2.78177 23.0273 3.04556 22.0535 3.16547C23.1733 2.51799 23.9036 1.58273 24.3174 0.383693C23.295 0.959233 22.1996 1.36691 21.0555 1.58273C20.0331 0.527578 18.7916 0 17.3067 0C15.8948 0 14.6777 0.503597 13.6796 1.48681C12.6816 2.47002 12.1704 3.66906 12.1704 5.05995C12.1704 5.44365 12.2191 5.82734 12.2921 6.21103C10.1986 6.11511 8.22686 5.58753 6.40116 4.65228C4.57545 3.71703 3.01751 2.47002 1.72735 0.935252C1.26484 1.72662 1.02141 2.56595 1.02141 3.47722C1.02141 4.34053 1.21615 5.15588 1.62998 5.8753C2.0438 6.6187 2.60369 7.21823 3.28528 7.67386C2.45763 7.64988 1.67866 7.43405 0.972723 7.02638V7.09832C0.972723 8.32134 1.36221 9.3765 2.14118 10.3118C2.92014 11.223 3.89385 11.8225 5.08665 12.0623C4.64848 12.1823 4.18597 12.2302 3.7478 12.2302C3.45568 12.2302 3.13923 12.2062 2.77409 12.1583C3.09054 13.1655 3.69911 14.0048 4.57545 14.6523C5.45179 15.2998 6.44984 15.6355 7.56961 15.6595C5.71956 17.0983 3.5774 17.8177 1.21615 17.8177C0.753638 17.8177 0.339812 17.7938 -0.0253296 17.7458C2.36026 19.2566 4.98928 20 7.83738 20C9.66308 20 11.3671 19.7122 12.9737 19.1607C14.5803 18.5851 15.9435 17.8417 17.0633 16.8825C18.183 15.9233 19.1811 14.8201 19.9844 13.5971C20.8121 12.3501 21.4206 11.0552 21.8101 9.71223C22.1996 8.3693 22.4187 7.0024 22.4187 5.65947C22.4187 5.3717 22.4187 5.15588 22.3943 5.01199C23.4411 4.26858 24.2931 3.40528 24.999 2.3741Z" fill="white"/>
</g>
<path d="M66.6467 7.21043V5.3054C66.6467 5.01862 66.6667 4.7933 66.6866 4.64991C66.7066 4.48603 66.7665 4.34264 66.8663 4.19925C66.9661 4.05587 67.1058 3.95344 67.3054 3.89199C67.505 3.83054 67.7844 3.81006 68.1238 3.81006H69.98V0H67.006C65.2894 0 64.0719 0.409683 63.3333 1.24953C62.5948 2.08939 62.2156 3.29795 62.2156 4.93669V7.21043H60V11H62.2156V22H66.6467V11H69.6008L70 7.21043H66.6467Z" fill="white"/>
<path d="M120.93 0H111.07C107.717 0 105 2.71746 105 6.06953V15.9305C105 19.2825 107.717 22 111.07 22H120.93C124.283 22 127 19.2825 127 15.9305V6.06953C127 2.71746 124.283 0 120.93 0ZM125.047 15.9305C125.047 18.2086 123.192 20.0473 120.93 20.0473H111.07C108.791 20.0473 106.953 18.1923 106.953 15.9305V6.06953C106.953 3.80769 108.808 1.95266 111.07 1.95266H120.93C123.209 1.95266 125.047 3.80769 125.047 6.06953V15.9305Z" fill="white"/>
<path d="M116 5.33722C112.876 5.33722 110.321 7.87568 110.321 10.9999C110.321 14.1242 112.859 16.6789 116 16.6789C119.124 16.6789 121.679 14.1405 121.679 10.9999C121.679 7.87568 119.124 5.33722 116 5.33722ZM116 14.7263C113.95 14.7263 112.274 13.0665 112.274 11.0162C112.29 8.94965 113.95 7.28988 116 7.28988C118.05 7.28988 119.726 8.94965 119.726 10.9999C119.726 13.0502 118.05 14.7263 116 14.7263Z" fill="white"/>
<path d="M121.907 3.67743C121.533 3.67743 121.158 3.82388 120.898 4.10051C120.638 4.36086 120.475 4.73512 120.475 5.10938C120.475 5.48364 120.621 5.8579 120.898 6.11826C121.158 6.37861 121.533 6.54134 121.907 6.54134C122.281 6.54134 122.655 6.39489 122.916 6.11826C123.176 5.8579 123.339 5.48364 123.339 5.10938C123.339 4.73512 123.192 4.36086 122.916 4.10051C122.655 3.82388 122.297 3.67743 121.907 3.67743Z" fill="white"/>
<path d="M167.216 7.14935H162.276V21.9999H167.216V7.14935Z" fill="white"/>
<path d="M183.438 8.50565C182.404 7.37922 181.025 6.8045 179.325 6.8045C178.704 6.8045 178.13 6.87347 177.601 7.03439C177.096 7.19531 176.659 7.40221 176.292 7.67807C175.947 7.95393 175.648 8.2068 175.442 8.45968C175.235 8.68956 175.051 8.94244 174.867 9.24129V7.12634H169.95L169.973 7.83899C169.973 8.32175 169.996 9.79301 169.996 12.2758C169.996 14.7585 169.996 17.9769 169.973 21.9769H174.89V13.7011C174.89 13.1953 174.936 12.7815 175.051 12.4827C175.258 11.9769 175.579 11.5401 175.993 11.1953C176.407 10.8505 176.935 10.6896 177.578 10.6896C178.429 10.6896 179.072 10.9884 179.463 11.5861C179.876 12.1838 180.06 13.0114 180.06 14.0459V21.9769H184.977V13.4712C185 11.2873 184.495 9.63209 183.438 8.50565Z" fill="white"/>
<path d="M164.78 0C163.953 0 163.287 0.252874 162.781 0.735632C162.253 1.21839 162 1.81609 162 2.55172C162 3.28736 162.253 3.88506 162.758 4.39081C163.264 4.87356 163.907 5.12644 164.734 5.12644H164.757C165.607 5.12644 166.274 4.87356 166.779 4.39081C167.285 3.90805 167.537 3.28736 167.537 2.55172C167.537 1.81609 167.262 1.1954 166.779 0.712644C166.274 0.252874 165.607 0 164.78 0Z" fill="white"/>
<g clip-path="url(#clip1)">
<path d="M247.986 7.64988C247.986 7.09832 247.938 6.3789 247.842 5.51559C247.77 4.65228 247.65 3.88489 247.506 3.21343C247.338 2.44604 246.978 1.82254 246.427 1.29496C245.875 0.767386 245.228 0.479616 244.484 0.383693C242.182 0.119904 238.681 0 234.005 0C229.329 0 225.827 0.119904 223.525 0.383693C222.782 0.479616 222.134 0.767386 221.583 1.29496C221.031 1.82254 220.671 2.44604 220.504 3.21343C220.336 3.88489 220.24 4.65228 220.144 5.51559C220.072 6.3789 220.024 7.09832 220 7.64988C220 8.22542 220 8.99281 220 10C220 11.0072 220 11.7746 220.024 12.3501C220.024 12.9017 220.072 13.6211 220.168 14.4844C220.216 15.3477 220.336 16.1151 220.48 16.7866C220.647 17.554 221.007 18.1775 221.559 18.705C222.11 19.2326 222.758 19.5204 223.501 19.6163C225.803 19.8801 229.305 20 233.981 20C238.657 20 242.158 19.8801 244.46 19.6163C245.204 19.5444 245.851 19.2326 246.403 18.705C246.954 18.1775 247.314 17.554 247.482 16.7866C247.65 16.1151 247.746 15.3477 247.842 14.4844C247.914 13.6211 247.962 12.9017 247.986 12.3501C247.986 11.7986 248.01 11.0072 248.01 10C248.01 8.99281 248.01 8.22542 247.986 7.64988ZM239.544 10.8393L231.535 15.8513C231.391 15.9472 231.223 16.0192 231.007 16.0192C230.839 16.0192 230.695 15.9712 230.528 15.8993C230.192 15.7074 230 15.4197 230 15.012V5.01199C230 4.60432 230.168 4.31655 230.528 4.1247C230.887 3.93285 231.223 3.95683 231.535 4.14868L235.54 6.65468L239.544 9.16067C239.856 9.32854 240.024 9.61631 240.024 10C240 10.3837 239.856 10.6715 239.544 10.8393Z" fill="white"/>
</g>
<defs>
<clipPath id="clip0">
<rect width="25" height="20" fill="white"/>
</clipPath>
<clipPath id="clip1">
<rect width="28.0096" height="20" fill="white" transform="translate(220)"/>
</clipPath>
</defs>
</svg>
