<svg width="395" height="295" viewBox="0 0 395 295" fill="none" xmlns="http://www.w3.org/2000/svg">
<g clip-path="url(#clip0)">
<path opacity="0.1" d="M388.526 131.362C388.455 131.781 388.384 132.199 388.306 132.618C385.777 146.87 381.648 160.611 375.51 173.227C375.308 173.646 375.103 174.064 374.894 174.483C370.955 182.438 366.117 189.913 360.476 196.763C357.418 200.459 354.084 203.968 350.119 206.501C344.563 210.051 338.066 211.494 331.681 212.675C325.046 213.904 318.326 214.917 311.62 216.038C309.243 216.427 306.881 216.834 304.534 217.26C298.056 218.433 291.626 219.79 285.35 221.587C277.589 223.83 270.059 226.718 262.973 230.81C262.406 231.134 261.845 231.467 261.291 231.808C260.735 232.144 260.172 232.488 259.631 232.839C259.09 233.191 258.546 233.538 258.009 233.893L257.181 234.454C256.909 234.633 256.64 234.827 256.372 235.007C255.574 235.552 254.787 236.128 254 236.681L253.97 236.703C253.451 237.077 252.937 237.451 252.422 237.824C249.517 239.981 246.675 242.238 243.844 244.502L242.058 245.934C241.135 246.666 240.213 247.397 239.291 248.127C238.75 248.557 238.202 248.983 237.657 249.409C237.262 249.719 236.87 250.029 236.467 250.336C234.45 251.894 232.406 253.419 230.321 254.876C229.825 255.224 229.322 255.571 228.829 255.911C224.656 258.772 220.218 261.222 215.575 263.228L215.515 263.255C213.229 264.231 210.876 265.044 208.474 265.687C207.098 266.061 205.722 266.356 204.327 266.588C200.611 267.232 196.818 267.297 193.082 266.782C185.739 265.74 178.858 262.298 171.534 261.147C156.422 258.796 141.746 266.379 127.526 272.332C124.045 273.792 120.525 275.162 116.968 276.442C114.611 277.294 112.242 278.105 109.863 278.875C95.367 283.573 80.43 286.775 65.2845 288.43C59.101 289.107 52.6528 289.428 46.3574 288.942C43.9801 288.767 41.6144 288.459 39.2714 288.019C31.3015 286.525 23.8612 283.352 17.8679 277.556C12.8891 272.814 9.37592 266.614 6.69816 260.145C5.62158 257.547 4.67305 254.889 3.85257 252.171C2.56292 247.911 1.59426 243.56 0.954764 239.155C0.809315 238.161 0.678783 237.163 0.581817 236.165C0.387884 234.454 0.243676 232.735 0.149196 231.008C-0.372975 221.832 0.52144 212.631 2.80085 203.728C5.34063 193.867 9.57731 184.423 11.4421 174.468C11.5204 174.049 11.5912 173.631 11.6621 173.212C11.9107 171.717 12.0997 170.195 12.229 168.646C13.1688 156.471 9.53256 144.553 6.66086 132.618C6.56017 132.199 6.45947 131.781 6.3625 131.362C6.05171 130.039 5.75709 128.715 5.47862 127.39C2.8195 114.766 2.09225 101.257 4.45301 88.6596C4.5276 88.2411 4.61338 87.8188 4.69916 87.404C6.29164 79.6012 9.10367 72.1796 13.4112 65.5689C17.8306 58.7826 23.6337 53.136 29.8209 48.1733C32.8418 45.7568 35.9658 43.4959 39.1931 41.3907C41.5128 39.881 43.8748 38.4522 46.2791 37.1044C65.7059 26.2672 87.8702 20.9719 109.785 22.1566C110.946 22.2163 112.104 22.2961 113.26 22.3957C114.474 22.5004 115.683 22.6249 116.889 22.7694C130.998 24.4025 144.726 28.4496 158.372 32.8779C162.945 34.3727 167.506 35.8675 172.067 37.3623C174.096 38.025 176.123 38.6789 178.15 39.3242C188.089 42.467 198.192 45.3033 208.388 47.4409C210.753 47.9391 213.115 48.3938 215.474 48.8049C223.677 50.2773 231.978 51.1342 240.309 51.3684C243.541 51.4482 246.773 51.4145 250.005 51.2675C251.639 51.1928 253.274 51.0832 254.91 50.9387C271.808 49.4887 288.102 44.6269 304.463 40.0604C306.828 39.3989 309.196 38.7412 311.549 38.1059C314.66 37.2689 317.774 36.4579 320.899 35.7105C340.359 31.0281 357.702 33.7187 375.793 43.3751C379.896 45.5687 383.998 48.2144 386.534 52.3102C389.07 56.4059 389.685 61.4769 390.155 66.3574C390.819 73.3007 391.274 80.3412 391.42 87.4115C391.42 87.83 391.42 88.2486 391.446 88.6671C391.774 102.983 390.905 117.408 388.526 131.362Z" fill="#F9A826"/>
<path opacity="0.1" d="M259.452 173.227H258.18V173.784V174.483H259.62L259.452 173.227ZM245.038 173.227C245.036 173.237 245.036 173.247 245.038 173.257L244.926 174.296V174.389V174.483H255.965V174.408L256.752 173.227H245.038ZM215.519 173.227V132.618H228.199C228.065 132.505 227.927 132.393 227.785 132.289L227.599 132.147C227.52 132.083 227.442 132.023 227.36 131.967C227.278 131.911 227.084 131.769 226.939 131.672C226.793 131.575 226.704 131.511 226.566 131.433L226.48 131.377H226.461H215.519V129.153L215.224 129.295L214.911 129.471H214.889L214.821 129.512L214.628 129.639C214.56 129.68 214.493 129.721 214.43 129.766C214.236 129.897 214.057 130.039 213.852 130.185L213.665 130.334C213.539 130.431 213.419 130.532 213.292 130.633C212.796 131.041 212.308 131.467 211.801 131.859C211.674 131.96 211.547 132.057 211.428 132.15C211.157 132.349 210.875 132.534 210.585 132.704C210.464 132.779 210.34 132.847 210.212 132.909L210.003 133.006L209.813 133.088C209.365 133.278 208.9 133.425 208.425 133.529V173.227H189.405C189.405 173.272 189.431 173.313 189.442 173.358C189.547 173.732 189.651 174.105 189.752 174.479H208.429V218.011H208.72L209.052 218.033L209.656 218.078L210.633 218.175L211.073 218.228L211.558 218.288H211.629C211.909 218.325 212.192 218.37 212.479 218.415L212.662 218.445L213.072 218.512L213.662 218.616L215.075 218.542L215.269 218.583C215.347 218.583 215.426 218.613 215.508 218.631V174.483H244.9V174.389V174.296L245.012 173.257C245.01 173.247 245.01 173.237 245.012 173.227H215.519ZM259.452 173.227H258.18V173.784V174.483H259.62L259.452 173.227ZM244.243 173.227L244.117 174.483H256.398L257.233 173.227H244.243ZM215.526 173.227V132.618H228.207C228.072 132.505 227.934 132.393 227.793 132.289L227.606 132.147C227.528 132.083 227.449 132.023 227.367 131.967C227.285 131.911 227.091 131.769 226.946 131.672C226.801 131.575 226.711 131.511 226.573 131.433L226.487 131.377H226.461H215.519V129.153L215.224 129.295L214.911 129.471H214.889L214.821 129.512L214.628 129.639C214.56 129.68 214.493 129.721 214.43 129.766C214.236 129.897 214.057 130.039 213.852 130.185L213.665 130.334C213.539 130.431 213.419 130.532 213.292 130.633C212.796 131.041 212.308 131.467 211.801 131.859C211.674 131.96 211.547 132.057 211.428 132.15C211.157 132.349 210.875 132.534 210.585 132.704C210.464 132.779 210.34 132.847 210.212 132.909L210.003 133.006L209.813 133.088C209.365 133.278 208.9 133.425 208.425 133.529V173.227H189.405C189.405 173.272 189.431 173.313 189.442 173.358C189.547 173.732 189.655 174.105 189.756 174.479H208.429V218.007L208.72 218.026L209.052 218.048L209.656 218.093L210.633 218.19L211.073 218.243L211.558 218.303H211.629C211.909 218.34 212.192 218.385 212.479 218.43L212.662 218.46L213.072 218.527L213.662 218.631L215.075 218.557L215.269 218.598C215.347 218.598 215.426 218.628 215.508 218.646V174.483H244.117L244.251 173.227H215.526ZM311.62 88.6596H391.517C391.517 88.2411 391.517 87.8225 391.491 87.404H311.62V38.0985C309.248 38.7337 306.88 39.3914 304.534 40.0529V87.404H217.637L217.417 87.1648L217.749 86.7912L250.069 51.2488C246.837 51.3983 243.604 51.432 240.372 51.3497L215.519 78.667V48.7974C213.147 48.3863 210.785 47.9317 208.433 47.4334V77.2918L172.097 37.3548C167.535 35.86 162.974 34.3391 158.402 32.8704L207.791 87.1648L207.571 87.404H116.919V22.7545C115.711 22.6174 114.501 22.4929 113.29 22.3808C112.134 22.2786 110.975 22.1989 109.814 22.1416V87.404H46.3088V37.1044C43.8996 38.4497 41.5376 39.8785 39.2228 41.3907V87.404H4.68414C4.59836 87.8188 4.51258 88.2411 4.43799 88.6596H39.193V131.362H6.3624C6.45937 131.781 6.56006 132.199 6.66076 132.618H39.2079V173.227H11.6508C11.5799 173.646 11.5091 174.064 11.4308 174.483H39.2079V288.031C41.5509 288.47 43.9166 288.779 46.2939 288.954V174.483H109.814V278.886C112.196 278.111 114.564 277.301 116.919 276.454V174.483H208.418V265.702C210.82 265.059 213.172 264.246 215.459 263.269L215.519 263.243V174.483H304.512V217.26C306.871 216.834 309.233 216.427 311.598 216.038V174.483H374.876C375.085 174.064 375.29 173.646 375.491 173.227H311.62V132.618H388.309C388.388 132.199 388.458 131.781 388.529 131.362H311.62V88.6596ZM46.3125 88.6596H109.814V131.362H46.3088L46.3125 88.6596ZM46.3125 173.227V132.618H109.814V173.227H46.3125ZM116.923 88.6596H208.418V131.362H116.919L116.923 88.6596ZM116.923 173.227V132.618H208.418V173.227H116.923ZM304.515 173.227H215.519V132.618H304.512L304.515 173.227ZM304.515 131.373H215.519V89.8031L216.768 88.6596H304.512L304.515 131.373ZM245.041 173.227C245.04 173.237 245.04 173.247 245.041 173.257L244.93 174.296V174.389V174.483H255.969V174.408L256.756 173.227H245.041ZM259.456 173.227H258.184V173.784V174.483H259.624L259.456 173.227ZM215.523 173.227V132.618H228.203C228.069 132.505 227.931 132.393 227.789 132.289L227.602 132.147C227.524 132.083 227.446 132.023 227.364 131.967C227.282 131.911 227.088 131.769 226.942 131.672C226.797 131.575 226.707 131.511 226.569 131.433L226.484 131.377H226.465H215.519V129.153L215.224 129.295L214.911 129.471H214.889L214.821 129.512L214.628 129.639C214.56 129.68 214.493 129.721 214.43 129.766C214.236 129.897 214.057 130.039 213.852 130.185L213.665 130.334C213.539 130.431 213.419 130.532 213.292 130.633C212.796 131.041 212.308 131.467 211.801 131.859C211.674 131.96 211.547 132.057 211.428 132.15C211.157 132.349 210.875 132.534 210.585 132.704C210.464 132.779 210.34 132.847 210.212 132.909L210.003 133.006L209.813 133.088C209.365 133.278 208.9 133.425 208.425 133.529V173.227H189.405C189.405 173.272 189.431 173.313 189.442 173.358C189.547 173.732 189.651 174.105 189.752 174.479H208.429V218.011H208.72L209.052 218.033L209.656 218.078L210.633 218.175L211.073 218.228L211.558 218.288H211.629C211.909 218.325 212.192 218.37 212.479 218.415L212.662 218.445L213.072 218.512L213.662 218.616L215.075 218.542L215.269 218.583C215.347 218.583 215.426 218.613 215.508 218.631V174.483H244.9V174.389V174.296L245.012 173.257C245.01 173.247 245.01 173.237 245.012 173.227H215.523Z" fill="#F9A826"/>
<path opacity="0.1" d="M76.8423 59.2571H77.4091C77.2152 59.1446 77.052 58.9857 76.9342 58.7947C76.8164 58.6036 76.7477 58.3863 76.7341 58.1621C76.7341 57.2952 77.7933 56.5889 79.0874 56.5889H95.553C96.8472 56.5889 97.9063 57.2952 97.9063 58.1621C97.9063 59.0254 96.8472 59.7354 95.553 59.7354H95.0048C95.1979 59.8486 95.3601 60.0077 95.4772 60.1987C95.5943 60.3897 95.6626 60.6066 95.6761 60.8303C95.6761 61.5777 94.9078 62.1906 93.8785 62.3587H98.6187C99.9091 62.3587 100.968 63.065 100.968 63.932C100.968 64.799 99.9091 65.5015 98.6187 65.5015H82.1344C80.844 65.5015 79.7848 64.7952 79.7848 63.932C79.7848 63.1846 80.5531 62.5718 81.5824 62.4036H76.8423C75.5519 62.4036 74.4927 61.6973 74.4927 60.8303C74.4927 59.9634 75.5444 59.2571 76.8423 59.2571Z" fill="#F9A826"/>
<path opacity="0.1" d="M255.305 74.2312H255.857C255.663 74.1181 255.499 73.9586 255.381 73.7669C255.264 73.5752 255.195 73.3572 255.182 73.1325C255.182 72.2693 256.241 71.563 257.535 71.563H274.001C275.295 71.563 276.354 72.2693 276.354 73.1325C276.354 73.9995 275.295 74.7058 274.001 74.7058H273.452C273.646 74.8196 273.808 74.9793 273.925 75.171C274.042 75.3626 274.111 75.5802 274.124 75.8045C274.124 76.5518 273.356 77.161 272.326 77.3291H277.066C278.357 77.3291 279.416 78.0392 279.416 78.9024C279.416 79.7656 278.357 80.4757 277.066 80.4757H260.604C259.314 80.4757 258.255 79.7694 258.255 78.9024C258.255 78.155 259.023 77.5421 260.052 77.3777H255.305C254.014 77.3777 252.955 76.6677 252.955 75.8045C252.955 74.9412 254.022 74.2312 255.305 74.2312Z" fill="#F9A826"/>
<path opacity="0.1" d="M51.5822 138.309H52.1342C51.9408 138.195 51.7785 138.035 51.6614 137.844C51.5443 137.652 51.4761 137.435 51.4629 137.21C51.4629 136.347 52.5183 135.637 53.8125 135.637H70.2781C71.5722 135.637 72.6314 136.347 72.6314 137.21C72.6314 138.077 71.5722 138.783 70.2781 138.783H69.7299C69.9232 138.897 70.0856 139.057 70.2027 139.249C70.3198 139.44 70.3879 139.658 70.4012 139.882C70.4012 140.63 69.6329 141.239 68.6036 141.407H73.3437C74.6378 141.407 75.6933 142.113 75.6933 142.98C75.6933 143.847 74.6378 144.553 73.3437 144.553H56.8744C55.584 144.553 54.5248 143.843 54.5248 142.98C54.5248 142.233 55.2968 141.62 56.3224 141.452H51.5822C50.2918 141.452 49.2327 140.745 49.2327 139.882C49.2327 139.019 50.2918 138.309 51.5822 138.309Z" fill="#F9A826"/>
<path d="M242.013 245.949C241.091 246.681 240.168 247.412 239.246 248.142C238.705 248.572 238.157 248.998 237.612 249.424C237.217 249.734 236.825 250.044 236.423 250.351C234.405 251.909 232.361 253.434 230.277 254.891C229.78 255.239 229.277 255.586 228.785 255.926C224.612 258.787 220.173 261.237 215.53 263.243L215.47 263.27V245.949H242.013Z" fill="#65617D"/>
<path d="M283.515 177.876L283.933 164.965C283.683 164.77 283.429 164.591 283.187 164.412C283.29 160.562 283.07 156.711 282.53 152.898C280.845 139.987 269.899 139.707 266.811 142.371C266.401 142.725 265.955 143.033 265.479 143.29C265.759 141.448 266.106 139.602 266.356 137.778C267.706 127.943 265.61 116.877 257.994 110.521C254.805 107.864 250.908 106.231 247.406 104.007C241.133 100.042 236.177 94.1866 229.833 90.3263C223.489 86.466 214.579 85.0198 209.045 89.9825C206.9 91.9033 205.517 94.5678 203.316 96.4213C199.214 99.8743 192.818 100.102 189.237 103.959C189.058 104.153 188.887 104.351 188.723 104.56C185.739 108.395 186.556 113.832 187.507 118.589C188.652 124.314 188.178 128.903 193.079 130.547C193.097 130.775 193.112 131.003 193.138 131.227C193.537 134.739 194.697 138.122 196.537 141.137C198.377 144.153 200.852 146.73 203.79 148.687L202.995 148.971C200.877 149.718 198.971 150.443 197.752 150.94C193.276 152.767 183.856 155.148 183.856 155.148C183.856 155.148 183.632 157.838 183.673 161.807C180.533 165.226 175.293 171.235 173.753 174.797C171.515 179.991 158.872 194.868 155.504 197.114C152.137 199.36 148.485 202.024 148.485 202.024C148.485 202.024 143.152 204.973 140.627 205.253C138.878 205.447 133.467 204.408 133.467 204.408C133.467 204.408 111.855 177.876 113.257 198.235C114.659 218.594 131.923 219.285 131.923 219.285L149.328 219.005C149.328 219.005 158.734 220.268 162.945 216.763C166.54 213.773 185.172 197.372 191.158 189.931C191.296 190.085 191.434 190.234 191.58 190.38C191.58 190.38 193.963 187.293 194.246 190.38C194.53 193.467 192.698 194.864 193.683 195.985C194.668 197.106 197.614 201.038 197.752 202.581C197.89 204.124 193.825 210.429 200.698 215.212C200.806 215.287 200.922 215.358 201.049 215.429C202.276 218.228 206.177 220.967 206.177 220.967L227.23 220.687L266.952 223.773C266.952 223.773 268.134 222.731 269.734 221.027C271.871 222.992 274.836 224.678 278.178 223.643C278.178 223.643 282.952 217.891 283.093 214.102C283.093 214.102 280.005 206.101 278.618 203.717C277.231 201.333 279.603 196.139 279.603 196.139C279.603 196.139 281.285 191.086 282.269 191.086C283.254 191.086 282.549 187.723 282.549 187.723C282.177 187.173 281.944 186.541 281.87 185.88C281.797 185.22 281.885 184.552 282.127 183.934C282.952 181.807 283.515 177.876 283.515 177.876Z" fill="url(#paint0_linear)"/>
<path d="M259.702 174.969L258.21 176.717L252.184 183.75L244.311 184.229L231.709 185.006C231.709 185.006 214.717 164.49 217.91 160.024C219.069 158.414 219.26 156.287 219.028 154.281C218.999 154.004 218.958 153.728 218.909 153.455C218.527 151.332 217.86 149.27 216.925 147.326L217.343 147.136L217.611 147.012L232.47 140.219L236.147 138.537C236.33 139.552 236.67 140.533 237.154 141.444C237.225 141.586 237.303 141.728 237.385 141.863C242.453 150.271 258.706 144.953 258.706 144.953L259.702 174.969Z" fill="#EE8E9E"/>
<path d="M281.672 164.471C281.561 169.561 280.733 171.758 280.733 171.758L259.702 174.969L258.915 169.498L255.801 147.894L258.725 144.964C259.893 145.217 261.103 145.197 262.263 144.907C263.422 144.617 264.5 144.064 265.412 143.29C268.474 140.637 279.338 140.917 281.009 153.754C281.499 157.304 281.721 160.887 281.672 164.471Z" fill="#EE8E9E"/>
<path d="M276.694 224.087C276.694 224.087 281.426 218.366 281.568 214.599L276.832 206.643L272.655 202.159L264.853 217.249C264.853 217.249 270.007 226.18 276.694 224.087Z" fill="#DFE5EE"/>
<path opacity="0.1" d="M276.694 224.087C276.694 224.087 281.426 218.366 281.568 214.599L276.832 206.643L272.655 202.159L264.853 217.249C264.853 217.249 270.007 226.18 276.694 224.087Z" fill="black"/>
<path d="M237.612 249.424C237.217 249.734 236.825 250.044 236.423 250.351C234.405 251.909 232.361 253.434 230.277 254.891C229.78 255.239 229.277 255.586 228.785 255.926H208.418H116.919H109.814L74.6156 254.663L46.3089 254.424L39.2229 254.05L3.86745 252.182C2.57222 247.919 1.59857 243.564 0.954735 239.155C0.809285 238.161 0.678753 237.163 0.581787 236.165L39.208 238.31L46.294 238.71L109.8 242.26L116.904 242.656L208.403 247.776L215.444 248.172H215.504L237.612 249.424Z" fill="#D48A9B"/>
<path d="M285.327 221.587C277.566 223.829 270.036 226.718 262.95 230.81C262.387 231.135 261.832 231.468 261.268 231.808C260.705 232.148 260.15 232.488 259.609 232.839C259.068 233.19 258.524 233.538 257.986 233.893L257.159 234.454L256.349 235.007C255.551 235.556 254.764 236.128 253.977 236.681L253.947 236.703C253.429 237.077 252.914 237.451 252.4 237.824C249.494 239.98 246.653 242.238 243.822 244.502C243.225 244.981 242.627 245.458 242.028 245.933L239.268 248.127C238.727 248.557 238.179 248.983 237.635 249.409C237.239 249.719 236.848 250.029 236.445 250.336L215.56 249.338H215.5L208.459 249.009L116.919 244.663L109.814 244.323L46.3089 241.3L39.2229 240.96L0.954738 239.155C0.809289 238.161 0.678757 237.163 0.581791 236.165C0.387858 234.454 0.24365 232.735 0.14917 231.008L39.2192 217.181L46.3052 214.666L52.7422 212.387L64.4714 213L91.581 214.393L109.826 215.354L116.93 215.728L121.469 215.967L122.554 216.027L160.752 218.026L161.154 218.052L178.198 218.941H178.392H178.504L180.208 219.027L186.019 219.334L193.284 219.707L195.678 219.834L196.129 219.861L199.516 220.036L200.482 220.085L203.715 220.257L205.002 220.328H205.043H205.311L208.336 220.488L213.02 220.735H213.043L214.497 220.81H214.654L215.523 220.858L217.656 220.971L219.521 221.068H219.539L221.632 221.176H221.665L223.25 221.262L224.466 221.326L228.781 221.553L229.557 221.595H229.825L230.198 221.617L231.462 221.684L232.029 221.714L236.43 221.942H236.833L243.33 221.886H243.374L268.075 221.684H268.548H269.048H270.518L278.469 221.621H279.655L285.327 221.587Z" fill="#EFC6CD"/>
<path d="M118.624 222.099L120.921 234.345L183.382 233.404C183.382 233.404 188.081 234.764 187.977 230.997C187.977 230.997 197.483 221.995 245.635 232.462L227.148 217.914L176.613 220.634L118.016 219.065L118.624 222.099Z" fill="#F9A826"/>
<path d="M119.772 219.169L121.965 232.462C121.965 232.462 175.67 230.892 184.113 232.357L177.732 220.216C177.732 220.216 145.259 217.181 119.772 219.169Z" fill="white"/>
<path opacity="0.1" d="M119.772 219.169L121.965 232.462C121.965 232.462 175.67 230.892 184.113 232.357L177.732 220.216C177.732 220.216 145.259 217.181 119.772 219.169Z" fill="black"/>
<path d="M120.574 219.121L122.737 231.483C122.737 231.483 175.759 230.025 184.113 231.386L177.821 220.096C177.821 220.096 145.74 217.271 120.574 219.121Z" fill="white"/>
<path opacity="0.1" d="M121.547 219.502L123.655 231.064C123.655 231.064 175.513 229.7 183.699 230.975L177.545 220.41C177.545 220.41 146.166 217.757 121.547 219.502Z" fill="black"/>
<path d="M121.965 219.08L124.083 230.664C124.083 230.664 175.942 229.3 184.128 230.575L177.959 219.999C177.959 219.999 146.583 217.35 121.965 219.08Z" fill="white"/>
<path d="M85.2744 187.641C85.2744 187.641 87.9894 191.194 84.025 196.565C80.0606 201.935 76.7861 206.464 78.1101 209.812C78.1101 209.812 84.0772 199.842 88.9628 199.722C93.8484 199.603 90.6336 193.635 85.2744 187.641Z" fill="#F9A826"/>
<path opacity="0.1" d="M85.2744 187.641C85.5129 187.985 85.7001 188.363 85.8301 188.762C90.5814 194.367 93.1137 199.599 88.5451 199.711C84.2898 199.831 79.1879 207.454 77.9646 209.382C78.0069 209.527 78.0554 209.673 78.1101 209.82C78.1101 209.82 84.0772 199.849 88.9628 199.73C93.8485 199.61 90.6336 193.635 85.2744 187.641Z" fill="black"/>
<path d="M90.3204 192.174C90.3204 193.422 90.1787 194.438 90.0071 194.438C89.8356 194.438 89.6938 193.422 89.6938 192.174C89.6938 190.925 89.8691 191.508 90.0407 191.508C90.2122 191.508 90.3204 190.922 90.3204 192.174Z" fill="#FFD037"/>
<path d="M92.051 193.665C90.9545 194.266 89.9998 194.629 89.9177 194.476C89.8357 194.323 90.6636 193.728 91.7526 193.115C92.8416 192.503 92.4165 192.951 92.4985 193.115C92.5806 193.28 93.1474 193.067 92.051 193.665Z" fill="#FFD037"/>
<path d="M70.9421 187.641C70.9421 187.641 68.2271 191.194 72.1952 196.565C76.1634 201.935 79.4304 206.464 78.1102 209.812C78.1102 209.812 72.1244 199.842 67.2537 199.722C62.383 199.603 65.5829 193.635 70.9421 187.641Z" fill="#F9A826"/>
<path opacity="0.1" d="M70.9421 187.641C70.7055 187.986 70.5184 188.364 70.3864 188.762C65.6351 194.367 63.1028 199.599 67.6714 199.711C71.9267 199.831 77.0324 207.454 78.2556 209.382C78.2158 209.527 78.1674 209.673 78.1102 209.82C78.1102 209.82 72.1244 199.849 67.2537 199.73C62.383 199.61 65.5829 193.635 70.9421 187.641Z" fill="black"/>
<path d="M65.8962 192.174C65.8962 193.422 66.038 194.438 66.2095 194.438C66.3811 194.438 66.5228 193.422 66.5228 192.174C66.5228 190.925 66.3475 191.508 66.1759 191.508C66.0044 191.508 65.8962 190.922 65.8962 192.174Z" fill="#FFD037"/>
<path d="M64.1656 193.665C65.262 194.266 66.2205 194.629 66.3026 194.476C66.3846 194.323 65.5567 193.728 64.4677 193.115C63.3787 192.503 63.8038 192.951 63.7218 193.115C63.6397 193.28 63.0691 193.067 64.1656 193.665Z" fill="#FFD037"/>
<path d="M92.6999 205.018L92.5657 206.139L92.3755 207.704L92.2972 208.358L92.107 209.928L92.0249 210.582L91.831 212.151L89.6604 229.984C89.4665 231.576 86.8708 232.817 83.738 232.817H72.4675C69.3348 232.817 66.7428 231.576 66.5489 229.984L64.3746 212.151L64.1844 210.582L64.1061 209.928L63.9121 208.358L63.8338 207.704L63.6436 206.139L63.5056 205.018C63.3975 204.117 64.7997 203.358 66.575 203.358H89.6455C91.417 203.358 92.823 204.117 92.6999 205.018Z" fill="#65617D"/>
<path d="M92.5768 206.127L92.3866 207.697H63.8338L63.6436 206.127H92.5768Z" fill="#9D9CB5"/>
<path d="M92.3083 208.351L92.1181 209.92H64.106L63.9121 208.351H92.3083Z" fill="#9D9CB5"/>
<path d="M92.0361 210.574L91.8459 212.14H64.3745L64.1843 210.574H92.0361Z" fill="#9D9CB5"/>
<path d="M127.119 203.575C127.119 203.575 119.877 196.598 120.156 205.668C120.436 214.738 127.119 203.575 127.119 203.575Z" fill="#EE8E9E"/>
<path d="M192.157 187.667C191.997 188.369 191.218 189.535 190.002 190.996C183.721 198.575 165.853 214.326 162.351 217.249C158.174 220.739 148.843 219.491 148.843 219.491L131.576 219.771C131.576 219.771 114.446 219.072 113.052 198.844C111.657 178.616 133.105 204.984 133.105 204.984C133.105 204.984 138.475 206.015 140.21 205.821C142.716 205.544 148.008 202.615 148.008 202.615C148.008 202.615 151.629 199.961 154.971 197.73C158.312 195.499 170.847 180.705 173.077 175.54C174.491 172.263 179.045 166.904 182.189 163.429C183.994 161.429 185.333 160.065 185.333 160.065C185.333 160.065 193.131 183.339 192.157 187.667Z" fill="#EE8E9E"/>
<path opacity="0.1" d="M192.158 187.667C191.997 188.369 191.218 189.535 190.002 190.996C183.662 184.528 182.338 171.62 182.189 163.414C183.994 161.415 185.333 160.051 185.333 160.051C185.333 160.051 193.131 183.339 192.158 187.667Z" fill="black"/>
<path opacity="0.1" d="M258.207 176.718L252.184 183.751L244.311 184.229L231.709 185.006C231.709 185.006 214.717 164.49 217.91 160.025C219.069 158.414 219.26 156.288 219.028 154.281C218.999 154.004 218.958 153.728 218.909 153.455C218.527 151.332 217.86 149.27 216.925 147.326L217.343 147.136L217.611 147.012C218.274 148.864 218.732 150.782 218.976 152.734C219.017 152.999 219.055 153.276 219.092 153.56C219.222 154.569 219.342 155.69 219.465 156.923C220.434 168.216 227.524 172.465 230.724 173.818C231.753 174.253 232.759 174.74 233.738 175.279C236.816 176.98 240.366 177.623 243.844 177.11C251.743 176.071 258.184 170.32 258.184 170.32L258.218 175.981L258.207 176.718Z" fill="black"/>
<path d="M258.449 220.601C258.449 220.601 206.643 220.459 199.814 215.716C192.985 210.974 197.032 204.692 196.89 203.156C196.748 201.621 193.828 197.715 192.855 196.594C191.882 195.473 193.69 194.083 193.411 191.015C193.131 187.947 190.766 191.015 190.766 191.015C181.014 181.105 183.102 155.988 183.102 155.988C183.102 155.988 192.426 153.619 196.901 151.799C198.113 151.306 200.001 150.603 202.123 149.845L202.91 149.561C208.381 147.599 214.885 145.383 214.885 145.383C214.885 145.383 216.134 144.497 217.391 147.147C217.966 148.365 218.544 150.327 219.006 153.462C219.047 153.728 219.084 154.004 219.122 154.288C219.252 155.297 219.372 156.418 219.495 157.651C220.464 168.945 227.554 173.193 230.754 174.546C231.783 174.981 232.789 175.469 233.767 176.007C236.846 177.709 240.396 178.352 243.874 177.838C251.773 176.8 258.214 171.048 258.214 171.048L258.248 176.71L258.345 193.721L258.449 220.601Z" fill="#DFE5EE"/>
<path d="M256.219 198.553L255.383 203.855C255.383 203.855 234.77 209.016 226.696 210.552C218.622 212.088 201.209 210.133 199.956 213.482C198.703 216.83 205.248 221.438 205.248 221.438L226.133 221.158L265.546 224.229C265.546 224.229 280.587 210.971 275.713 201.759C270.838 192.547 256.219 198.553 256.219 198.553Z" fill="#EE8E9E"/>
<path opacity="0.1" d="M213.744 156.687C213.744 156.687 204.271 164.501 206.084 168.272C207.896 172.042 213.744 156.687 213.744 156.687Z" fill="black"/>
<path opacity="0.1" d="M202.044 170.78C202.044 170.78 192.434 187.387 192.993 188.642C193.552 189.898 196.197 194.364 196.055 191.015C195.913 187.667 202.044 170.78 202.044 170.78Z" fill="black"/>
<path opacity="0.1" d="M205.945 173.713C205.945 173.713 203.708 184.038 201.489 188.366C199.27 192.693 205.945 173.713 205.945 173.713Z" fill="black"/>
<path opacity="0.1" d="M237.404 141.874C235.562 145.258 232.939 148.15 229.753 150.31C226.567 152.47 222.912 153.834 219.092 154.288H219.047C213.039 154.995 206.985 153.407 202.093 149.841C207.687 147.816 214.855 145.379 214.855 145.379C214.855 145.379 216.105 144.494 217.361 147.143L236.165 138.548C236.377 139.722 236.796 140.848 237.404 141.874Z" fill="black"/>
<path d="M240.342 129.475C240.349 133.677 239.256 137.808 237.172 141.455C236.177 143.195 234.97 144.804 233.581 146.246C229.704 150.291 224.538 152.85 218.976 153.481H218.928C218.039 153.583 217.145 153.634 216.25 153.634C210.33 153.634 204.618 151.451 200.202 147.5C195.787 143.549 192.978 138.108 192.31 132.214C192.207 131.31 192.156 130.4 192.158 129.49C192.158 123.087 194.696 116.947 199.214 112.42C203.732 107.892 209.86 105.349 216.25 105.349C222.64 105.349 228.768 107.892 233.286 112.42C237.804 116.947 240.342 123.087 240.342 129.49V129.475Z" fill="#EE8E9E"/>
<path opacity="0.1" d="M255.943 175.155L258.18 171.792C258.18 171.792 270.436 157.14 282.422 166.489L282.004 179.33C282.004 179.33 281.445 183.235 280.61 185.309C280.37 185.924 280.282 186.589 280.355 187.246C280.428 187.902 280.658 188.532 281.027 189.079C281.027 189.079 281.725 192.443 280.751 192.443C279.778 192.443 278.103 197.465 278.103 197.465C278.103 197.465 275.735 202.63 277.13 205.003C278.525 207.376 281.587 215.328 281.587 215.328C281.587 215.328 276.712 212.398 275.317 207.514C275.317 207.514 263.48 198.302 254.287 204.151L255.943 175.155Z" fill="black"/>
<path opacity="0.1" d="M281.672 164.471C281.56 169.561 280.732 171.758 280.732 171.758L259.702 174.969L258.915 169.498C261.667 166.62 271.677 157.472 281.672 164.471Z" fill="black"/>
<path d="M255.943 174.408L258.18 171.045C258.18 171.045 270.436 156.392 282.422 165.742L282.004 178.582C282.004 178.582 281.445 182.487 280.61 184.561C280.37 185.177 280.282 185.842 280.355 186.498C280.428 187.155 280.658 187.784 281.027 188.332C281.027 188.332 281.725 191.695 280.751 191.695C279.778 191.695 278.103 196.718 278.103 196.718C278.103 196.718 275.735 201.882 277.13 204.255C278.525 206.628 281.587 214.581 281.587 214.581C281.587 214.581 276.712 211.651 275.317 206.767C275.317 206.767 263.48 197.555 254.287 203.403L255.943 174.408Z" fill="#DFE5EE"/>
<path opacity="0.1" d="M275.716 164.92C275.716 164.92 255.525 177.342 256.498 188.235C256.498 188.235 267.78 168.268 275.716 164.92Z" fill="black"/>
<path opacity="0.1" d="M258.203 176.721L258.3 193.732C254.481 193.904 250.882 193.407 248.036 190.929C246.056 189.203 244.904 186.818 244.307 184.24C243.863 182.162 243.7 180.034 243.822 177.913C243.82 177.892 243.82 177.871 243.822 177.85C244.057 173.152 245.135 168.455 244.568 163.788C244.001 159.12 241.178 154.195 236.568 153.212C235.658 153.014 234.636 152.943 233.987 152.274C233.271 151.527 233.305 150.364 233.383 149.329L233.517 147.584C233.551 147.136 233.566 146.691 233.566 146.246C233.563 142.279 232.186 138.435 229.669 135.372C227.152 132.309 223.652 130.217 219.767 129.452L219.618 129.426C218.32 129.164 216.97 128.907 215.672 129.206C213.203 129.777 211.607 132.176 209.332 133.316C204.968 135.499 197.692 133.111 193.123 132.36C192.825 132.311 192.542 132.255 192.269 132.191C192.166 131.287 192.115 130.377 192.117 129.467C192.118 125.77 192.968 122.122 194.599 118.805C196.23 115.489 198.6 112.592 201.526 110.339C204.452 108.085 207.855 106.535 211.473 105.808C215.091 105.082 218.827 105.197 222.394 106.146C225.96 107.096 229.261 108.853 232.043 111.283C234.824 113.713 237.011 116.751 238.435 120.162C239.859 123.573 240.482 127.266 240.256 130.957C240.03 134.648 238.961 138.237 237.131 141.448C237.202 141.59 237.28 141.732 237.363 141.866C242.431 150.275 258.684 144.957 258.684 144.957L259.661 174.961L258.203 176.721Z" fill="black"/>
<path d="M210.208 132.902C212.468 131.758 214.065 129.359 216.548 128.791C217.843 128.492 219.193 128.75 220.498 129.008L220.647 129.038C224.755 129.852 228.422 132.148 230.954 135.49C233.485 138.833 234.705 142.99 234.383 147.173L234.249 148.918C234.166 149.95 234.133 151.119 234.856 151.859C235.502 152.528 236.524 152.607 237.434 152.794C242.043 153.78 244.866 158.679 245.433 163.373C246 168.067 244.904 172.779 244.687 177.495C244.471 182.211 245.336 187.417 248.894 190.514C254.488 195.373 262.992 192.607 270.395 192.163C267.12 192.163 264.666 188.777 264.487 185.503C264.308 182.23 265.763 179.113 267.154 176.161C268.545 173.209 269.94 170.032 269.63 166.766C269.205 162.282 265.677 158.69 264.327 154.374C262.753 149.352 264.271 143.959 264.983 138.739C266.322 128.963 264.237 117.958 256.685 111.638C253.522 108.996 249.655 107.371 246.179 105.158C239.951 101.201 235.039 95.3975 228.744 91.5484C222.448 87.6993 213.61 86.2718 208.116 91.2046C205.99 93.1142 204.618 95.7637 202.432 97.606C198.162 101.212 191.374 101.279 187.951 105.704C185.005 109.512 185.803 114.919 186.746 119.647C188.003 125.951 187.294 130.858 194.019 131.979C198.569 132.7 205.841 135.088 210.208 132.902Z" fill="#603556"/>
<path opacity="0.1" d="M265.613 189.15C260.224 189.812 254.884 190.152 250.96 186.744C247.402 183.646 246.526 178.444 246.753 173.724C246.981 169.004 248.07 164.288 247.499 159.598C246.929 154.909 244.109 150.009 239.5 149.023C238.59 148.828 237.571 148.757 236.922 148.089C236.203 147.341 236.232 146.175 236.315 145.144L236.449 143.399C236.771 139.216 235.551 135.059 233.019 131.718C230.488 128.376 226.821 126.081 222.713 125.267L222.564 125.237C221.259 124.979 219.909 124.721 218.614 125.02C216.146 125.592 214.549 128.01 212.274 129.131C207.907 131.317 200.638 128.929 196.062 128.178C189.349 127.076 190.05 122.161 188.79 115.846C188.085 112.318 187.462 108.409 188.417 105.069C188.238 105.259 188.066 105.442 187.902 105.67C184.956 109.478 185.754 114.886 186.698 119.613C187.954 125.917 187.246 130.824 193.97 131.945C198.542 132.692 205.815 135.084 210.182 132.898C212.442 131.754 214.038 129.355 216.522 128.787C217.816 128.488 219.166 128.746 220.472 129.004L220.621 129.034C224.729 129.848 228.396 132.144 230.927 135.487C233.459 138.829 234.679 142.986 234.357 147.169L234.222 148.914C234.14 149.946 234.107 151.116 234.83 151.855C235.475 152.524 236.497 152.603 237.407 152.79C242.017 153.776 244.84 158.675 245.407 163.369C245.974 168.063 244.881 172.775 244.661 177.491C244.441 182.207 245.31 187.413 248.868 190.511C254.462 195.369 262.965 192.603 270.368 192.159C268.358 192.17 266.669 190.892 265.613 189.15Z" fill="black"/>
<path d="M114.256 201.617L137.248 193.022C137.792 192.819 138.394 192.84 138.922 193.081C139.45 193.322 139.861 193.763 140.064 194.307C140.267 194.852 140.246 195.455 140.005 195.984C139.765 196.513 139.325 196.925 138.781 197.129L115.789 205.724L110.859 205.231L114.256 201.617Z" fill="#5C5C8E"/>
<path opacity="0.1" d="M139.371 193.605C139.573 194.15 139.552 194.753 139.31 195.282C139.069 195.812 138.628 196.223 138.084 196.426L115.077 205.051L111.377 204.677L110.844 205.245L115.774 205.739L138.766 197.144C139.31 196.94 139.75 196.528 139.99 195.999C140.231 195.47 140.252 194.867 140.049 194.322C139.88 193.868 139.565 193.483 139.154 193.227C139.237 193.347 139.309 193.473 139.371 193.605Z" fill="white"/>
<path d="M114.26 201.617L115.789 205.724L111.746 205.317L110.862 205.227L112.071 203.941L114.26 201.617Z" fill="#EFC8C4"/>
<path d="M112.067 203.93C112.161 204.001 112.242 204.088 112.306 204.188C112.344 204.248 112.364 204.317 112.364 204.388C112.364 204.459 112.344 204.528 112.306 204.588C112.242 204.654 112.168 204.708 112.086 204.749C111.993 204.81 111.916 204.892 111.859 204.988C111.802 205.084 111.768 205.191 111.757 205.302L110.87 205.216L112.067 203.93Z" fill="#727A9C"/>
<path d="M186.448 227.847C186.448 227.847 206.363 223.658 239.779 228.968L226.689 219.342L202.872 214.457L186.022 218.942L186.448 227.847Z" fill="white"/>
<path opacity="0.1" d="M186.448 227.847C186.448 227.847 206.363 223.658 239.779 228.968L226.689 219.342L202.872 214.457L186.022 218.942L186.448 227.847Z" fill="black"/>
<path d="M184.113 232.376C184.113 232.376 194.142 205.193 245.649 232.462L227.162 220.541C227.162 220.541 182.875 208.28 177.758 222.409L184.113 232.376Z" fill="white"/>
<path opacity="0.1" d="M184.113 232.357C184.113 232.357 194.142 203.295 245.649 232.88L227.162 219.95C227.162 219.95 182.86 205.287 177.732 220.634L184.113 232.357Z" fill="black"/>
<path d="M184.113 232.368C184.113 232.368 194.142 202.876 245.649 232.462L227.162 219.532C227.162 219.532 182.875 205.287 177.758 220.653L184.113 232.368Z" fill="white"/>
<path opacity="0.1" d="M184.113 232.376C184.113 232.376 194.142 199.599 245.649 232.88L227.148 218.332C227.148 218.332 182.86 203.384 177.743 220.634L184.113 232.376Z" fill="black"/>
<path d="M184.113 232.357C184.113 232.357 194.142 199.18 245.649 232.462L227.148 217.914C227.148 217.914 182.86 202.966 177.743 220.216L184.113 232.357Z" fill="white"/>
<path opacity="0.1" d="M338.64 229.233C338.64 229.233 326.277 242.503 337.406 248.949C337.406 248.949 338.86 250.706 340.937 249.786C340.937 249.786 340.236 249.162 341.642 247.959C342.139 247.527 342.584 247.038 342.966 246.502C343.485 245.777 343.755 244.904 343.735 244.013C343.735 244.013 345.353 238.747 340.21 231.913C340.21 231.913 339.744 229.626 339.349 229.375L338.409 232.563C338.409 232.563 340.77 233.164 341.657 234.966C341.657 234.966 338.547 232.518 338.245 233.03C338.185 233.135 337.823 234.745 337.823 234.745C337.823 234.745 341.926 235.806 343.209 238.632C343.209 238.632 339.893 235.22 337.682 235.354L337.279 237.813C337.279 237.813 341.668 238.725 343.246 241.887C343.246 241.887 339.658 238.437 337.219 238.359L337.148 240.829C337.148 240.829 341.411 241.801 342.713 244.439C342.713 244.439 338.166 240.878 337.171 241.397C337.171 241.397 337.242 243.673 337.544 244.267C337.544 244.267 340.587 245.014 341.206 246.636C341.206 246.636 337.917 244.577 337.633 244.891C337.633 244.891 338.517 247.828 339.748 249.08C339.748 249.08 337.794 247.365 337.182 245.052C337.182 245.052 336.354 246.498 336.563 247.918C336.563 247.918 335.343 246.565 336.977 244.338C336.977 244.338 336.38 242.021 336.529 241.655C336.529 241.655 334.609 243.624 334.116 245.392C334.116 245.392 333.743 243.18 336.526 241.016V238.527C336.526 238.527 333.848 240.997 333.296 242.526C333.296 242.526 333.258 240.209 336.581 237.903L336.954 235.485C336.954 235.485 334.485 237.436 333.505 239.005C333.505 239.005 333.93 236.845 337.085 234.797L337.521 233.213C337.521 233.213 335.746 234.67 335.284 235.134C334.821 235.597 334.646 235.508 334.646 235.508C335.372 234.255 336.431 233.228 337.704 232.54C337.704 232.54 338.845 229.319 338.64 229.233Z" fill="#F9A826"/>
<path opacity="0.1" d="M393.907 13.311C393.907 13.311 377.389 20.785 385.177 31.0205C385.177 31.0205 385.844 33.2066 388.112 33.1618C388.112 33.1618 387.705 32.3135 389.465 31.7455C390.091 31.5407 390.69 31.2608 391.248 30.9121C392.005 30.4445 392.591 29.7428 392.915 28.9129C392.915 28.9129 396.436 24.6826 394.321 16.3903C394.321 16.3903 394.773 14.0995 394.504 13.7146L392.408 16.2931C392.408 16.2931 394.355 17.758 394.482 19.7648C394.482 19.7648 392.557 16.3043 392.08 16.6631C391.983 16.7341 391.032 18.0794 391.032 18.0794C391.032 18.0794 394.388 20.643 394.504 23.7484C394.504 23.7484 392.759 19.3163 390.663 18.5839L389.346 20.699C389.346 20.699 393.046 23.2364 393.292 26.7641C393.292 26.7641 391.308 22.1975 389.089 21.1811L388.071 23.4233C388.071 23.4233 391.632 25.9681 391.8 28.9054C391.8 28.9054 388.977 23.8605 387.858 23.9577C387.858 23.9577 387.049 26.0803 387.112 26.7492C387.112 26.7492 389.626 28.6176 389.581 30.3516C389.581 30.3516 387.343 27.1827 386.97 27.362C386.97 27.362 386.653 30.4114 387.31 32.0444C387.31 32.0444 386.165 29.7051 386.493 27.3359C386.493 27.3359 385.169 28.3523 384.819 29.7425C384.819 29.7425 384.214 28.0197 386.579 26.596C386.579 26.596 386.918 24.2305 387.198 23.9502C387.198 23.9502 384.666 25.0227 383.539 26.4502C383.539 26.4502 384.043 24.2641 387.448 23.3448L388.418 21.0578C388.418 21.0578 384.998 22.2984 383.897 23.4943C383.897 23.4943 384.755 21.3418 388.708 20.5047L389.98 18.4195C389.98 18.4195 386.952 19.2678 385.441 20.3328C385.441 20.3328 386.668 18.5092 390.368 17.8365L391.379 16.5435C391.379 16.5435 389.178 17.2012 388.563 17.4479C387.948 17.6945 387.817 17.5488 387.817 17.5488C388.976 16.6699 390.357 16.1316 391.804 15.9942C391.804 15.9942 394.042 13.4605 393.907 13.311Z" fill="#F9A826"/>
<path opacity="0.1" d="M237.131 17.9375C237.131 17.9375 212.315 25.0377 224.38 35.6059C224.38 35.6059 225.45 37.8481 228.885 37.8481C228.885 37.8481 228.244 36.9811 230.899 36.4542C231.813 36.2699 232.709 36.0048 233.577 35.6619C234.6 35.3027 235.471 34.6056 236.046 33.6851C236.046 33.6851 241.267 29.4997 237.84 21.0616C237.84 21.0616 238.463 18.7596 238.045 18.3635L234.942 20.9121C234.942 20.9121 237.925 22.448 238.175 24.4772C238.175 24.4772 235.166 20.9308 234.446 21.2784C234.3 21.3494 232.894 22.6797 232.894 22.6797C232.894 22.6797 238.071 25.3629 238.306 28.5056C238.306 28.5056 235.546 23.9802 232.339 23.1842L230.399 25.2844C230.399 25.2844 236.068 27.9488 236.534 31.5214C236.534 31.5214 233.409 26.8539 230.023 25.7664L228.531 28.0086C228.531 28.0086 233.991 30.6768 234.349 33.6515C234.349 33.6515 229.937 28.4758 228.244 28.5393C228.244 28.5393 227.076 30.6693 227.181 31.3457C227.181 31.3457 231.037 33.3189 231.019 35.0528C231.019 35.0528 227.535 31.7867 226.961 31.9586C226.961 31.9586 226.565 35.0341 227.602 36.7008C227.602 36.7008 225.805 34.3054 226.237 31.9212C226.237 31.9212 224.264 32.9115 223.768 34.3054C223.768 34.3054 222.806 32.5528 226.349 31.1776C226.349 31.1776 226.8 28.7934 227.214 28.5169C227.214 28.5169 223.41 29.5333 221.743 30.9459C221.743 30.9459 222.444 28.7485 227.576 27.9115L228.986 25.6244C228.986 25.6244 223.839 26.7904 222.206 27.9675C222.206 27.9675 223.448 25.815 229.415 25.0676L231.28 22.9936C231.28 22.9936 226.715 23.7672 224.455 24.806C224.455 24.806 226.263 22.9936 231.846 22.4144L233.338 21.1363C233.338 21.1363 230.023 21.7417 229.098 21.9734C228.173 22.2051 227.979 22.0556 227.979 22.0556C229.843 21.1514 231.876 20.6522 233.946 20.5907C233.946 20.5907 237.347 18.0945 237.131 17.9375Z" fill="#F9A826"/>
<path opacity="0.1" d="M310.345 295.004C310.345 295.004 322.838 281.853 311.773 275.299C311.773 275.299 310.333 273.527 308.249 274.424C308.249 274.424 308.946 275.056 307.529 276.248C307.028 276.675 306.579 277.159 306.19 277.69C305.663 278.409 305.386 279.28 305.399 280.172C305.399 280.172 303.725 285.422 308.804 292.306C308.804 292.306 309.248 294.596 309.64 294.854L310.613 291.674C310.613 291.674 308.256 291.05 307.387 289.241C307.387 289.241 310.471 291.715 310.777 291.207C310.841 291.102 311.217 289.499 311.217 289.499C311.217 289.499 307.115 288.378 305.869 285.56C305.869 285.56 309.151 289.006 311.367 288.89L311.792 286.435C311.792 286.435 307.413 285.482 305.858 282.324C305.858 282.324 309.412 285.807 311.851 285.912L311.945 283.438C311.945 283.438 307.689 282.406 306.399 279.753C306.399 279.753 310.912 283.363 311.911 282.851C311.911 282.851 311.863 280.579 311.538 279.981C311.538 279.981 308.502 279.181 307.898 277.574C307.898 277.574 311.169 279.667 311.452 279.353C311.452 279.353 310.598 276.408 309.379 275.145C309.379 275.145 311.318 276.879 311.907 279.196C311.907 279.196 312.75 277.758 312.553 276.337C312.553 276.337 313.761 277.705 312.105 279.914C312.105 279.914 312.679 282.238 312.526 282.601C312.526 282.601 314.466 280.65 314.973 278.905C314.973 278.905 315.346 281.121 312.523 283.255L312.485 285.743C312.485 285.743 315.186 283.299 315.752 281.775C315.752 281.775 315.752 284.095 312.422 286.367L312.049 288.782C312.049 288.782 314.537 286.853 315.532 285.295C315.532 285.295 315.085 287.447 311.911 289.465L311.46 291.046C311.46 291.046 313.25 289.607 313.727 289.148C314.205 288.688 314.369 288.774 314.369 288.774C313.631 290.021 312.562 291.038 311.281 291.711C311.281 291.711 310.158 294.914 310.345 295.004Z" fill="#F9A826"/>
<path opacity="0.1" d="M188.491 0.463426C188.491 0.463426 190.621 18.4906 202.719 14.1407C202.719 14.1407 204.998 14.1594 205.64 11.977C205.64 11.977 204.707 12.1116 204.7 10.258C204.691 9.59866 204.605 8.94263 204.442 8.30359C204.228 7.43901 203.737 6.6686 203.044 6.10999C203.044 6.10999 200.075 1.46867 191.531 1.01276C191.531 1.01276 189.487 -0.108329 189.04 0.0336753L190.863 2.81024C190.863 2.81024 192.844 1.39019 194.791 1.876C194.791 1.876 190.919 2.67571 191.117 3.23626C191.154 3.3521 192.146 4.66378 192.146 4.66378C192.146 4.66378 195.633 2.19738 198.617 3.0382C198.617 3.0382 193.877 3.36705 192.549 5.14958L194.142 7.04797C194.142 7.04797 197.67 4.27513 201.105 5.101C201.105 5.101 196.159 5.62418 194.522 7.43661L196.379 9.08835C196.379 9.08835 199.87 6.45005 202.719 7.16007C202.719 7.16007 197.066 8.34096 196.819 9.43589C196.819 9.43589 198.598 10.8485 199.255 10.9979C199.255 10.9979 201.806 9.16309 203.424 9.72363C203.424 9.72363 199.732 10.912 199.788 11.3305C199.788 11.3305 202.596 12.5488 204.345 12.4143C204.345 12.4143 201.776 12.7879 199.62 11.779C199.62 11.779 200.187 13.3448 201.407 14.1034C201.407 14.1034 199.587 14.1594 198.941 11.4875C198.941 11.4875 196.793 10.4486 196.611 10.1011C196.611 10.1011 196.872 12.8403 197.89 14.3463C197.89 14.3463 195.958 13.2252 196.107 9.67879L194.242 8.06068C194.242 8.06068 194.395 11.7042 195.201 13.1168C195.201 13.1168 193.411 11.6482 193.799 7.61598L192.199 5.77366C192.199 5.77366 192.09 8.92018 192.65 10.684C192.65 10.684 191.281 8.96503 191.758 5.22806L190.83 3.87154C190.83 3.87154 190.796 6.16978 190.83 6.83496C190.863 7.50014 190.703 7.56367 190.703 7.56367C190.213 6.19441 190.112 4.71559 190.412 3.29231C190.412 3.29231 188.678 0.373739 188.491 0.463426Z" fill="#F9A826"/>
<path opacity="0.1" d="M278.916 254.118C278.916 254.118 261.455 249.26 260.895 262.13C260.895 262.13 260.015 264.237 261.787 265.658C261.787 265.658 262.014 264.746 263.73 265.437C264.342 265.68 264.98 265.849 265.632 265.942C266.513 266.069 267.412 265.903 268.19 265.471C268.19 265.471 273.598 264.477 277.268 256.749C277.268 256.749 279.077 255.28 279.133 254.809L275.877 255.448C275.877 255.448 276.436 257.825 275.25 259.447C275.25 259.447 275.996 255.553 275.388 255.523C275.265 255.523 273.676 255.938 273.676 255.938C273.676 255.938 274.631 260.071 272.725 262.518C272.725 262.518 274.217 257.997 273.072 256.091L270.708 256.872C270.708 256.872 271.931 261.192 269.865 264.062C269.865 264.062 271.26 259.282 270.2 257.077L267.985 258.157C267.985 258.157 269.104 262.395 267.362 264.772C267.362 264.772 268.414 259.084 267.493 258.438C267.493 258.438 265.516 259.559 265.132 260.104C265.132 260.104 265.878 263.165 264.729 264.454C264.729 264.454 265.028 260.579 264.621 260.474C264.621 260.474 262.428 262.616 261.891 264.29C261.891 264.29 262.507 261.76 264.271 260.149C264.271 260.149 262.607 260.082 261.447 260.923C261.447 260.923 262.081 259.215 264.804 259.637C264.804 259.637 266.579 258.034 266.971 258C266.971 258 264.36 257.201 262.562 257.574C262.562 257.574 264.345 256.214 267.549 257.694L269.757 256.573C269.757 256.573 266.333 255.336 264.726 255.549C264.726 255.549 266.758 254.428 270.32 256.33L272.625 255.542C272.625 255.542 269.76 254.252 267.918 254.103C267.918 254.103 270.025 253.486 273.296 255.343L274.9 254.996C274.9 254.996 272.789 254.092 272.158 253.875C271.528 253.658 271.532 253.501 271.532 253.501C272.976 253.567 274.374 254.033 275.571 254.846C275.571 254.846 278.927 254.323 278.916 254.118Z" fill="#F9A826"/>
</g>
<defs>
<linearGradient id="paint0_linear" x1="198.561" y1="223.949" x2="198.561" y2="86.7986" gradientUnits="userSpaceOnUse">
<stop stop-color="#808080" stop-opacity="0.25"/>
<stop offset="0.54" stop-color="#808080" stop-opacity="0.12"/>
<stop offset="1" stop-color="#808080" stop-opacity="0.1"/>
</linearGradient>
<clipPath id="clip0">
<rect width="395" height="295" fill="white"/>
</clipPath>
</defs>
</svg>
