<svg width="69" height="55" viewBox="0 0 69 55" fill="none" xmlns="http://www.w3.org/2000/svg">
<path d="M46.3063 25.886L39.3543 0.763993H54.9963L64.1603 23.516C67.7943 32.206 68.4263 35.208 68.4263 39.316C68.4263 48.322 61.9483 54.484 53.1003 54.484C44.4103 54.484 37.9323 48.48 37.9323 39.316C37.9323 32.838 41.0923 28.098 46.3063 25.886ZM9.01834 25.886L2.06634 0.763993H17.7083L26.8723 23.516C30.5063 32.206 31.1383 35.208 31.1383 39.316C31.1383 48.322 24.6603 54.484 15.8123 54.484C7.12234 54.484 0.644335 48.48 0.644335 39.316C0.644335 32.838 3.80434 28.098 9.01834 25.886Z" fill="white" fill-opacity="0.2"/>
</svg>
