<svg width="405" height="395" viewBox="0 0 405 395" fill="none" xmlns="http://www.w3.org/2000/svg">
<path fill-rule="evenodd" clip-rule="evenodd" d="M405 51.658C405 37.9574 399.666 24.818 390.172 15.1303C380.678 5.44252 367.802 0 354.375 0L50.625 0C37.1984 0 24.3217 5.44252 14.8277 15.1303C5.33369 24.818 0 37.9574 0 51.658L0 258.29C0 271.99 5.33369 285.13 14.8277 294.818C24.3217 304.505 37.1984 309.948 50.625 309.948H293.271C299.983 309.949 306.421 312.672 311.167 317.516L383.383 391.206C385.152 393.015 387.407 394.248 389.862 394.749C392.318 395.25 394.864 394.997 397.178 394.021C399.493 393.044 401.471 391.39 402.864 389.266C404.256 387.141 404.999 384.644 405 382.088V51.658ZM126.562 154.974C126.562 161.824 123.896 168.394 119.149 173.238C114.402 178.082 107.963 180.803 101.25 180.803C94.5367 180.803 88.0984 178.082 83.3514 173.238C78.6043 168.394 75.9375 161.824 75.9375 154.974C75.9375 148.124 78.6043 141.554 83.3514 136.71C88.0984 131.866 94.5367 129.145 101.25 129.145C107.963 129.145 114.402 131.866 119.149 136.71C123.896 141.554 126.562 148.124 126.562 154.974ZM227.812 154.974C227.812 161.824 225.146 168.394 220.399 173.238C215.652 178.082 209.213 180.803 202.5 180.803C195.787 180.803 189.348 178.082 184.601 173.238C179.854 168.394 177.188 161.824 177.188 154.974C177.188 148.124 179.854 141.554 184.601 136.71C189.348 131.866 195.787 129.145 202.5 129.145C209.213 129.145 215.652 131.866 220.399 136.71C225.146 141.554 227.812 148.124 227.812 154.974ZM303.75 180.803C310.463 180.803 316.902 178.082 321.649 173.238C326.396 168.394 329.062 161.824 329.062 154.974C329.062 148.124 326.396 141.554 321.649 136.71C316.902 131.866 310.463 129.145 303.75 129.145C297.037 129.145 290.598 131.866 285.851 136.71C281.104 141.554 278.438 148.124 278.438 154.974C278.438 161.824 281.104 168.394 285.851 173.238C290.598 178.082 297.037 180.803 303.75 180.803Z" fill="#C4C4C4"/>
</svg>
