<svg width="78" height="62" viewBox="0 0 78 62" fill="none" xmlns="http://www.w3.org/2000/svg">
<path d="M25.9433 29.06L33.8633 0.439992H16.0433L5.60329 26.36C1.46329 36.26 0.743291 39.68 0.743291 44.36C0.743291 54.62 8.12329 61.64 18.2033 61.64C28.1033 61.64 35.4833 54.8 35.4833 44.36C35.4833 36.98 31.8833 31.58 25.9433 29.06ZM68.4233 29.06L76.3433 0.439992H58.5233L48.0833 26.36C43.9433 36.26 43.2233 39.68 43.2233 44.36C43.2233 54.62 50.6033 61.64 60.6833 61.64C70.5833 61.64 77.9633 54.8 77.9633 44.36C77.9633 36.98 74.3633 31.58 68.4233 29.06Z" fill="#8C97AC"/>
</svg>
